<mxfile host="app.diagrams.net" agent="Mozilla/5.0 (Macintosh; Intel Mac OS X 10_15_7) AppleWebKit/537.36 (KHTML, like Gecko) Chrome/128.0.0.0 Safari/537.36" version="24.7.14">
  <diagram name="Page-1" id="Pxzo7z1HxhLjOSPzQq93">
    <mxGraphModel dx="2396" dy="956" grid="1" gridSize="10" guides="1" tooltips="1" connect="1" arrows="1" fold="1" page="1" pageScale="1" pageWidth="850" pageHeight="1100" math="0" shadow="0">
      <root>
        <mxCell id="0" />
        <mxCell id="1" parent="0" />
        <mxCell id="uXOJ_GGudiLRuNJcndU_-1" value="" style="group" vertex="1" connectable="0" parent="1">
          <mxGeometry x="880" y="1440" width="270" height="680" as="geometry" />
        </mxCell>
        <mxCell id="uXOJ_GGudiLRuNJcndU_-2" value="" style="rounded=0;whiteSpace=wrap;html=1;" vertex="1" parent="uXOJ_GGudiLRuNJcndU_-1">
          <mxGeometry width="270" height="680" as="geometry" />
        </mxCell>
        <mxCell id="uXOJ_GGudiLRuNJcndU_-3" value="Admin Menu&lt;div&gt;Delete Cars&lt;/div&gt;" style="text;html=1;align=right;verticalAlign=middle;whiteSpace=wrap;rounded=0;fontSize=16;fontStyle=1" vertex="1" parent="uXOJ_GGudiLRuNJcndU_-1">
          <mxGeometry x="5" y="10" width="260" height="30" as="geometry" />
        </mxCell>
        <mxCell id="uXOJ_GGudiLRuNJcndU_-4" style="edgeStyle=orthogonalEdgeStyle;rounded=0;orthogonalLoop=1;jettySize=auto;html=1;entryX=0.5;entryY=0;entryDx=0;entryDy=0;" edge="1" parent="uXOJ_GGudiLRuNJcndU_-1" source="uXOJ_GGudiLRuNJcndU_-5" target="uXOJ_GGudiLRuNJcndU_-14">
          <mxGeometry relative="1" as="geometry" />
        </mxCell>
        <mxCell id="uXOJ_GGudiLRuNJcndU_-5" value="A_C" style="strokeWidth=2;html=1;shape=mxgraph.flowchart.start_2;whiteSpace=wrap;" vertex="1" parent="uXOJ_GGudiLRuNJcndU_-1">
          <mxGeometry x="30" y="10" width="60" height="60" as="geometry" />
        </mxCell>
        <mxCell id="uXOJ_GGudiLRuNJcndU_-6" style="edgeStyle=orthogonalEdgeStyle;rounded=0;orthogonalLoop=1;jettySize=auto;html=1;" edge="1" parent="uXOJ_GGudiLRuNJcndU_-1" source="uXOJ_GGudiLRuNJcndU_-7" target="uXOJ_GGudiLRuNJcndU_-12">
          <mxGeometry relative="1" as="geometry" />
        </mxCell>
        <mxCell id="uXOJ_GGudiLRuNJcndU_-7" value="Input carId" style="shape=parallelogram;html=1;strokeWidth=2;perimeter=parallelogramPerimeter;whiteSpace=wrap;rounded=1;arcSize=12;size=0.23;" vertex="1" parent="uXOJ_GGudiLRuNJcndU_-1">
          <mxGeometry x="10" y="240" width="100" height="60" as="geometry" />
        </mxCell>
        <mxCell id="uXOJ_GGudiLRuNJcndU_-8" style="edgeStyle=orthogonalEdgeStyle;rounded=0;orthogonalLoop=1;jettySize=auto;html=1;entryX=1;entryY=0.5;entryDx=0;entryDy=0;" edge="1" parent="uXOJ_GGudiLRuNJcndU_-1" source="uXOJ_GGudiLRuNJcndU_-12" target="uXOJ_GGudiLRuNJcndU_-7">
          <mxGeometry relative="1" as="geometry">
            <Array as="points">
              <mxPoint x="190" y="400" />
              <mxPoint x="190" y="270" />
            </Array>
          </mxGeometry>
        </mxCell>
        <mxCell id="uXOJ_GGudiLRuNJcndU_-9" value="false" style="edgeLabel;html=1;align=center;verticalAlign=middle;resizable=0;points=[];" vertex="1" connectable="0" parent="uXOJ_GGudiLRuNJcndU_-8">
          <mxGeometry x="0.068" relative="1" as="geometry">
            <mxPoint as="offset" />
          </mxGeometry>
        </mxCell>
        <mxCell id="uXOJ_GGudiLRuNJcndU_-10" style="edgeStyle=orthogonalEdgeStyle;rounded=0;orthogonalLoop=1;jettySize=auto;html=1;entryX=0.5;entryY=0;entryDx=0;entryDy=0;" edge="1" parent="uXOJ_GGudiLRuNJcndU_-1" source="uXOJ_GGudiLRuNJcndU_-12" target="uXOJ_GGudiLRuNJcndU_-16">
          <mxGeometry relative="1" as="geometry" />
        </mxCell>
        <mxCell id="uXOJ_GGudiLRuNJcndU_-11" value="true" style="edgeLabel;html=1;align=center;verticalAlign=middle;resizable=0;points=[];" vertex="1" connectable="0" parent="uXOJ_GGudiLRuNJcndU_-10">
          <mxGeometry x="-0.3979" y="1" relative="1" as="geometry">
            <mxPoint as="offset" />
          </mxGeometry>
        </mxCell>
        <mxCell id="uXOJ_GGudiLRuNJcndU_-12" value="carId exist in carDictionary" style="strokeWidth=2;html=1;shape=mxgraph.flowchart.decision;whiteSpace=wrap;" vertex="1" parent="uXOJ_GGudiLRuNJcndU_-1">
          <mxGeometry x="10" y="350" width="100" height="100" as="geometry" />
        </mxCell>
        <mxCell id="uXOJ_GGudiLRuNJcndU_-13" style="edgeStyle=orthogonalEdgeStyle;rounded=0;orthogonalLoop=1;jettySize=auto;html=1;entryX=0.5;entryY=0;entryDx=0;entryDy=0;" edge="1" parent="uXOJ_GGudiLRuNJcndU_-1" source="uXOJ_GGudiLRuNJcndU_-14" target="uXOJ_GGudiLRuNJcndU_-7">
          <mxGeometry relative="1" as="geometry" />
        </mxCell>
        <mxCell id="uXOJ_GGudiLRuNJcndU_-14" value="display carDictionary" style="rounded=1;whiteSpace=wrap;html=1;absoluteArcSize=1;arcSize=14;strokeWidth=2;" vertex="1" parent="uXOJ_GGudiLRuNJcndU_-1">
          <mxGeometry x="10" y="130" width="100" height="60" as="geometry" />
        </mxCell>
        <mxCell id="uXOJ_GGudiLRuNJcndU_-15" style="edgeStyle=orthogonalEdgeStyle;rounded=0;orthogonalLoop=1;jettySize=auto;html=1;entryX=0;entryY=0.5;entryDx=0;entryDy=0;" edge="1" parent="uXOJ_GGudiLRuNJcndU_-1" source="uXOJ_GGudiLRuNJcndU_-16" target="uXOJ_GGudiLRuNJcndU_-17">
          <mxGeometry relative="1" as="geometry" />
        </mxCell>
        <mxCell id="uXOJ_GGudiLRuNJcndU_-16" value="filteredList = carDictionary with key first 2 carId" style="rounded=1;whiteSpace=wrap;html=1;absoluteArcSize=1;arcSize=14;strokeWidth=2;" vertex="1" parent="uXOJ_GGudiLRuNJcndU_-1">
          <mxGeometry x="10" y="500" width="100" height="60" as="geometry" />
        </mxCell>
        <mxCell id="uXOJ_GGudiLRuNJcndU_-17" value="remove carId from filteredList" style="rounded=1;whiteSpace=wrap;html=1;absoluteArcSize=1;arcSize=14;strokeWidth=2;" vertex="1" parent="uXOJ_GGudiLRuNJcndU_-1">
          <mxGeometry x="160" y="500" width="100" height="60" as="geometry" />
        </mxCell>
        <mxCell id="uXOJ_GGudiLRuNJcndU_-18" value="A" style="strokeWidth=2;html=1;shape=mxgraph.flowchart.start_2;whiteSpace=wrap;" vertex="1" parent="uXOJ_GGudiLRuNJcndU_-1">
          <mxGeometry x="180" y="610" width="60" height="60" as="geometry" />
        </mxCell>
        <mxCell id="uXOJ_GGudiLRuNJcndU_-19" style="edgeStyle=orthogonalEdgeStyle;rounded=0;orthogonalLoop=1;jettySize=auto;html=1;entryX=0.5;entryY=0;entryDx=0;entryDy=0;entryPerimeter=0;" edge="1" parent="uXOJ_GGudiLRuNJcndU_-1" source="uXOJ_GGudiLRuNJcndU_-17" target="uXOJ_GGudiLRuNJcndU_-18">
          <mxGeometry relative="1" as="geometry" />
        </mxCell>
        <mxCell id="uXOJ_GGudiLRuNJcndU_-20" value="" style="group" vertex="1" connectable="0" parent="1">
          <mxGeometry x="390" y="1430" width="450" height="900" as="geometry" />
        </mxCell>
        <mxCell id="uXOJ_GGudiLRuNJcndU_-21" value="" style="rounded=0;whiteSpace=wrap;html=1;" vertex="1" parent="uXOJ_GGudiLRuNJcndU_-20">
          <mxGeometry width="450" height="900" as="geometry" />
        </mxCell>
        <mxCell id="uXOJ_GGudiLRuNJcndU_-22" value="Admin Menu - Insert Cars" style="text;html=1;align=right;verticalAlign=middle;whiteSpace=wrap;rounded=0;fontSize=16;fontStyle=1" vertex="1" parent="uXOJ_GGudiLRuNJcndU_-20">
          <mxGeometry x="185" y="10" width="260" height="30" as="geometry" />
        </mxCell>
        <mxCell id="uXOJ_GGudiLRuNJcndU_-23" style="edgeStyle=orthogonalEdgeStyle;rounded=0;orthogonalLoop=1;jettySize=auto;html=1;" edge="1" parent="uXOJ_GGudiLRuNJcndU_-20" source="uXOJ_GGudiLRuNJcndU_-24" target="uXOJ_GGudiLRuNJcndU_-25">
          <mxGeometry relative="1" as="geometry" />
        </mxCell>
        <mxCell id="uXOJ_GGudiLRuNJcndU_-24" value="A_B" style="strokeWidth=2;html=1;shape=mxgraph.flowchart.start_2;whiteSpace=wrap;" vertex="1" parent="uXOJ_GGudiLRuNJcndU_-20">
          <mxGeometry x="30" y="10" width="60" height="60" as="geometry" />
        </mxCell>
        <mxCell id="uXOJ_GGudiLRuNJcndU_-25" value="Input&lt;div&gt;engineCapacity&lt;/div&gt;" style="shape=parallelogram;html=1;strokeWidth=2;perimeter=parallelogramPerimeter;whiteSpace=wrap;rounded=1;arcSize=12;size=0.23;" vertex="1" parent="uXOJ_GGudiLRuNJcndU_-20">
          <mxGeometry x="10" y="120" width="100" height="60" as="geometry" />
        </mxCell>
        <mxCell id="uXOJ_GGudiLRuNJcndU_-26" style="edgeStyle=orthogonalEdgeStyle;rounded=0;orthogonalLoop=1;jettySize=auto;html=1;" edge="1" parent="uXOJ_GGudiLRuNJcndU_-20" source="uXOJ_GGudiLRuNJcndU_-27" target="uXOJ_GGudiLRuNJcndU_-31">
          <mxGeometry relative="1" as="geometry" />
        </mxCell>
        <mxCell id="uXOJ_GGudiLRuNJcndU_-27" value="Generate randomId" style="rounded=1;whiteSpace=wrap;html=1;absoluteArcSize=1;arcSize=14;strokeWidth=2;movable=1;resizable=1;rotatable=1;deletable=1;editable=1;locked=0;connectable=1;" vertex="1" parent="uXOJ_GGudiLRuNJcndU_-20">
          <mxGeometry x="10" y="355" width="100" height="60" as="geometry" />
        </mxCell>
        <mxCell id="uXOJ_GGudiLRuNJcndU_-28" style="edgeStyle=orthogonalEdgeStyle;rounded=0;orthogonalLoop=1;jettySize=auto;html=1;entryX=1;entryY=0.5;entryDx=0;entryDy=0;" edge="1" parent="uXOJ_GGudiLRuNJcndU_-20" source="uXOJ_GGudiLRuNJcndU_-31" target="uXOJ_GGudiLRuNJcndU_-27">
          <mxGeometry relative="1" as="geometry">
            <Array as="points">
              <mxPoint x="150" y="500" />
              <mxPoint x="150" y="385" />
            </Array>
          </mxGeometry>
        </mxCell>
        <mxCell id="uXOJ_GGudiLRuNJcndU_-29" value="true" style="edgeLabel;html=1;align=center;verticalAlign=middle;resizable=0;points=[];" vertex="1" connectable="0" parent="uXOJ_GGudiLRuNJcndU_-28">
          <mxGeometry x="0.1161" y="1" relative="1" as="geometry">
            <mxPoint as="offset" />
          </mxGeometry>
        </mxCell>
        <mxCell id="uXOJ_GGudiLRuNJcndU_-30" value="false" style="edgeStyle=orthogonalEdgeStyle;rounded=0;orthogonalLoop=1;jettySize=auto;html=1;entryX=0.5;entryY=0;entryDx=0;entryDy=0;" edge="1" parent="uXOJ_GGudiLRuNJcndU_-20" source="uXOJ_GGudiLRuNJcndU_-31">
          <mxGeometry x="0.0043" relative="1" as="geometry">
            <mxPoint x="60" y="600" as="targetPoint" />
            <mxPoint as="offset" />
          </mxGeometry>
        </mxCell>
        <mxCell id="uXOJ_GGudiLRuNJcndU_-31" value="carId is&lt;div&gt;already exist&lt;/div&gt;" style="strokeWidth=2;html=1;shape=mxgraph.flowchart.decision;whiteSpace=wrap;" vertex="1" parent="uXOJ_GGudiLRuNJcndU_-20">
          <mxGeometry x="10" y="450" width="100" height="100" as="geometry" />
        </mxCell>
        <mxCell id="uXOJ_GGudiLRuNJcndU_-32" value="Add carData into list according to engineCapacity" style="rounded=1;whiteSpace=wrap;html=1;absoluteArcSize=1;arcSize=14;strokeWidth=2;" vertex="1" parent="uXOJ_GGudiLRuNJcndU_-20">
          <mxGeometry x="10" y="830" width="100" height="60" as="geometry" />
        </mxCell>
        <mxCell id="uXOJ_GGudiLRuNJcndU_-33" value="A" style="strokeWidth=2;html=1;shape=mxgraph.flowchart.start_2;whiteSpace=wrap;" vertex="1" parent="uXOJ_GGudiLRuNJcndU_-20">
          <mxGeometry x="185" y="830" width="60" height="60" as="geometry" />
        </mxCell>
        <mxCell id="uXOJ_GGudiLRuNJcndU_-34" style="edgeStyle=orthogonalEdgeStyle;rounded=0;orthogonalLoop=1;jettySize=auto;html=1;entryX=0;entryY=0.5;entryDx=0;entryDy=0;entryPerimeter=0;" edge="1" parent="uXOJ_GGudiLRuNJcndU_-20" source="uXOJ_GGudiLRuNJcndU_-32" target="uXOJ_GGudiLRuNJcndU_-33">
          <mxGeometry relative="1" as="geometry" />
        </mxCell>
        <mxCell id="uXOJ_GGudiLRuNJcndU_-35" style="edgeStyle=orthogonalEdgeStyle;rounded=0;orthogonalLoop=1;jettySize=auto;html=1;entryX=0.5;entryY=0;entryDx=0;entryDy=0;" edge="1" parent="uXOJ_GGudiLRuNJcndU_-20" source="uXOJ_GGudiLRuNJcndU_-37" target="uXOJ_GGudiLRuNJcndU_-27">
          <mxGeometry relative="1" as="geometry" />
        </mxCell>
        <mxCell id="uXOJ_GGudiLRuNJcndU_-36" value="false" style="edgeStyle=orthogonalEdgeStyle;rounded=0;orthogonalLoop=1;jettySize=auto;html=1;entryX=0;entryY=0.5;entryDx=0;entryDy=0;entryPerimeter=0;" edge="1" parent="uXOJ_GGudiLRuNJcndU_-20" target="uXOJ_GGudiLRuNJcndU_-39">
          <mxGeometry relative="1" as="geometry">
            <mxPoint x="160" y="254" as="targetPoint" />
            <mxPoint x="110" y="254" as="sourcePoint" />
          </mxGeometry>
        </mxCell>
        <mxCell id="uXOJ_GGudiLRuNJcndU_-37" value="&lt;div&gt;engineCapacity == 1000&lt;/div&gt;" style="strokeWidth=2;html=1;shape=mxgraph.flowchart.decision;whiteSpace=wrap;" vertex="1" parent="uXOJ_GGudiLRuNJcndU_-20">
          <mxGeometry x="10" y="204" width="100" height="100" as="geometry" />
        </mxCell>
        <mxCell id="uXOJ_GGudiLRuNJcndU_-38" style="edgeStyle=orthogonalEdgeStyle;rounded=0;orthogonalLoop=1;jettySize=auto;html=1;entryX=0.5;entryY=0;entryDx=0;entryDy=0;" edge="1" parent="uXOJ_GGudiLRuNJcndU_-20" source="uXOJ_GGudiLRuNJcndU_-39" target="uXOJ_GGudiLRuNJcndU_-27">
          <mxGeometry relative="1" as="geometry">
            <Array as="points">
              <mxPoint x="210" y="325" />
              <mxPoint x="60" y="325" />
            </Array>
          </mxGeometry>
        </mxCell>
        <mxCell id="uXOJ_GGudiLRuNJcndU_-39" value="&lt;div&gt;engineCapacity == 1500&lt;/div&gt;" style="strokeWidth=2;html=1;shape=mxgraph.flowchart.decision;whiteSpace=wrap;" vertex="1" parent="uXOJ_GGudiLRuNJcndU_-20">
          <mxGeometry x="160" y="204" width="100" height="100" as="geometry" />
        </mxCell>
        <mxCell id="uXOJ_GGudiLRuNJcndU_-40" style="edgeStyle=orthogonalEdgeStyle;rounded=0;orthogonalLoop=1;jettySize=auto;html=1;exitX=0.5;exitY=0;exitDx=0;exitDy=0;exitPerimeter=0;entryX=1;entryY=0.5;entryDx=0;entryDy=0;" edge="1" parent="uXOJ_GGudiLRuNJcndU_-20" source="uXOJ_GGudiLRuNJcndU_-44" target="uXOJ_GGudiLRuNJcndU_-25">
          <mxGeometry relative="1" as="geometry">
            <Array as="points">
              <mxPoint x="365" y="150" />
            </Array>
          </mxGeometry>
        </mxCell>
        <mxCell id="uXOJ_GGudiLRuNJcndU_-41" value="false" style="edgeLabel;html=1;align=center;verticalAlign=middle;resizable=0;points=[];" vertex="1" connectable="0" parent="uXOJ_GGudiLRuNJcndU_-40">
          <mxGeometry x="0.3616" y="-3" relative="1" as="geometry">
            <mxPoint as="offset" />
          </mxGeometry>
        </mxCell>
        <mxCell id="uXOJ_GGudiLRuNJcndU_-42" style="edgeStyle=orthogonalEdgeStyle;rounded=0;orthogonalLoop=1;jettySize=auto;html=1;entryX=0.5;entryY=0;entryDx=0;entryDy=0;" edge="1" parent="uXOJ_GGudiLRuNJcndU_-20" source="uXOJ_GGudiLRuNJcndU_-44" target="uXOJ_GGudiLRuNJcndU_-27">
          <mxGeometry relative="1" as="geometry">
            <Array as="points">
              <mxPoint x="365" y="325" />
              <mxPoint x="60" y="325" />
            </Array>
          </mxGeometry>
        </mxCell>
        <mxCell id="uXOJ_GGudiLRuNJcndU_-43" value="true" style="edgeLabel;html=1;align=center;verticalAlign=middle;resizable=0;points=[];" vertex="1" connectable="0" parent="uXOJ_GGudiLRuNJcndU_-42">
          <mxGeometry x="0.9054" y="1" relative="1" as="geometry">
            <mxPoint as="offset" />
          </mxGeometry>
        </mxCell>
        <mxCell id="uXOJ_GGudiLRuNJcndU_-44" value="&lt;div&gt;engineCapacity == 2000&lt;/div&gt;" style="strokeWidth=2;html=1;shape=mxgraph.flowchart.decision;whiteSpace=wrap;" vertex="1" parent="uXOJ_GGudiLRuNJcndU_-20">
          <mxGeometry x="315" y="204" width="100" height="100" as="geometry" />
        </mxCell>
        <mxCell id="uXOJ_GGudiLRuNJcndU_-45" style="edgeStyle=orthogonalEdgeStyle;rounded=0;orthogonalLoop=1;jettySize=auto;html=1;entryX=0.5;entryY=0;entryDx=0;entryDy=0;entryPerimeter=0;" edge="1" parent="uXOJ_GGudiLRuNJcndU_-20" source="uXOJ_GGudiLRuNJcndU_-25" target="uXOJ_GGudiLRuNJcndU_-37">
          <mxGeometry relative="1" as="geometry" />
        </mxCell>
        <mxCell id="uXOJ_GGudiLRuNJcndU_-46" style="edgeStyle=orthogonalEdgeStyle;rounded=0;orthogonalLoop=1;jettySize=auto;html=1;entryX=0;entryY=0.5;entryDx=0;entryDy=0;" edge="1" parent="uXOJ_GGudiLRuNJcndU_-20" source="uXOJ_GGudiLRuNJcndU_-47" target="uXOJ_GGudiLRuNJcndU_-49">
          <mxGeometry relative="1" as="geometry" />
        </mxCell>
        <mxCell id="uXOJ_GGudiLRuNJcndU_-47" value="Input&lt;div&gt;carName&lt;/div&gt;" style="shape=parallelogram;html=1;strokeWidth=2;perimeter=parallelogramPerimeter;whiteSpace=wrap;rounded=1;arcSize=12;size=0.23;" vertex="1" parent="uXOJ_GGudiLRuNJcndU_-20">
          <mxGeometry x="10" y="600" width="100" height="60" as="geometry" />
        </mxCell>
        <mxCell id="uXOJ_GGudiLRuNJcndU_-48" style="edgeStyle=orthogonalEdgeStyle;rounded=0;orthogonalLoop=1;jettySize=auto;html=1;entryX=0;entryY=0.5;entryDx=0;entryDy=0;" edge="1" parent="uXOJ_GGudiLRuNJcndU_-20" source="uXOJ_GGudiLRuNJcndU_-49" target="uXOJ_GGudiLRuNJcndU_-50">
          <mxGeometry relative="1" as="geometry" />
        </mxCell>
        <mxCell id="uXOJ_GGudiLRuNJcndU_-49" value="Input&lt;div&gt;carBrand&lt;/div&gt;" style="shape=parallelogram;html=1;strokeWidth=2;perimeter=parallelogramPerimeter;whiteSpace=wrap;rounded=1;arcSize=12;size=0.23;" vertex="1" parent="uXOJ_GGudiLRuNJcndU_-20">
          <mxGeometry x="165" y="600" width="100" height="60" as="geometry" />
        </mxCell>
        <mxCell id="uXOJ_GGudiLRuNJcndU_-50" value="Input&lt;div&gt;rentalPrice&lt;/div&gt;" style="shape=parallelogram;html=1;strokeWidth=2;perimeter=parallelogramPerimeter;whiteSpace=wrap;rounded=1;arcSize=12;size=0.23;" vertex="1" parent="uXOJ_GGudiLRuNJcndU_-20">
          <mxGeometry x="315" y="600" width="100" height="60" as="geometry" />
        </mxCell>
        <mxCell id="uXOJ_GGudiLRuNJcndU_-51" style="edgeStyle=orthogonalEdgeStyle;rounded=0;orthogonalLoop=1;jettySize=auto;html=1;entryX=1;entryY=0.5;entryDx=0;entryDy=0;" edge="1" parent="uXOJ_GGudiLRuNJcndU_-20" source="uXOJ_GGudiLRuNJcndU_-55" target="uXOJ_GGudiLRuNJcndU_-56">
          <mxGeometry relative="1" as="geometry" />
        </mxCell>
        <mxCell id="uXOJ_GGudiLRuNJcndU_-52" value="true" style="edgeLabel;html=1;align=center;verticalAlign=middle;resizable=0;points=[];" vertex="1" connectable="0" parent="uXOJ_GGudiLRuNJcndU_-51">
          <mxGeometry x="0.1944" relative="1" as="geometry">
            <mxPoint as="offset" />
          </mxGeometry>
        </mxCell>
        <mxCell id="uXOJ_GGudiLRuNJcndU_-53" style="edgeStyle=orthogonalEdgeStyle;rounded=0;orthogonalLoop=1;jettySize=auto;html=1;entryX=1;entryY=0.5;entryDx=0;entryDy=0;" edge="1" parent="uXOJ_GGudiLRuNJcndU_-20" source="uXOJ_GGudiLRuNJcndU_-55" target="uXOJ_GGudiLRuNJcndU_-50">
          <mxGeometry relative="1" as="geometry">
            <Array as="points">
              <mxPoint x="430" y="745" />
              <mxPoint x="430" y="630" />
            </Array>
          </mxGeometry>
        </mxCell>
        <mxCell id="uXOJ_GGudiLRuNJcndU_-54" value="false" style="edgeLabel;html=1;align=center;verticalAlign=middle;resizable=0;points=[];" vertex="1" connectable="0" parent="uXOJ_GGudiLRuNJcndU_-53">
          <mxGeometry x="0.0078" y="1" relative="1" as="geometry">
            <mxPoint as="offset" />
          </mxGeometry>
        </mxCell>
        <mxCell id="uXOJ_GGudiLRuNJcndU_-55" value="rentalPrice is number" style="strokeWidth=2;html=1;shape=mxgraph.flowchart.decision;whiteSpace=wrap;" vertex="1" parent="uXOJ_GGudiLRuNJcndU_-20">
          <mxGeometry x="315" y="695" width="100" height="100" as="geometry" />
        </mxCell>
        <mxCell id="uXOJ_GGudiLRuNJcndU_-56" value="Input&lt;div&gt;carSeats&lt;/div&gt;" style="shape=parallelogram;html=1;strokeWidth=2;perimeter=parallelogramPerimeter;whiteSpace=wrap;rounded=1;arcSize=12;size=0.23;" vertex="1" parent="uXOJ_GGudiLRuNJcndU_-20">
          <mxGeometry x="160" y="715" width="100" height="60" as="geometry" />
        </mxCell>
        <mxCell id="uXOJ_GGudiLRuNJcndU_-57" value="false" style="edgeStyle=orthogonalEdgeStyle;rounded=0;orthogonalLoop=1;jettySize=auto;html=1;entryX=0.5;entryY=0;entryDx=0;entryDy=0;" edge="1" parent="uXOJ_GGudiLRuNJcndU_-20" source="uXOJ_GGudiLRuNJcndU_-60" target="uXOJ_GGudiLRuNJcndU_-56">
          <mxGeometry relative="1" as="geometry">
            <Array as="points">
              <mxPoint x="60" y="690" />
              <mxPoint x="210" y="690" />
            </Array>
          </mxGeometry>
        </mxCell>
        <mxCell id="uXOJ_GGudiLRuNJcndU_-58" style="edgeStyle=orthogonalEdgeStyle;rounded=0;orthogonalLoop=1;jettySize=auto;html=1;entryX=0.5;entryY=0;entryDx=0;entryDy=0;" edge="1" parent="uXOJ_GGudiLRuNJcndU_-20" source="uXOJ_GGudiLRuNJcndU_-60" target="uXOJ_GGudiLRuNJcndU_-32">
          <mxGeometry relative="1" as="geometry" />
        </mxCell>
        <mxCell id="uXOJ_GGudiLRuNJcndU_-59" value="true" style="edgeLabel;html=1;align=center;verticalAlign=middle;resizable=0;points=[];" vertex="1" connectable="0" parent="uXOJ_GGudiLRuNJcndU_-58">
          <mxGeometry x="0.1111" y="-1" relative="1" as="geometry">
            <mxPoint as="offset" />
          </mxGeometry>
        </mxCell>
        <mxCell id="uXOJ_GGudiLRuNJcndU_-60" value="rentalPrice is number" style="strokeWidth=2;html=1;shape=mxgraph.flowchart.decision;whiteSpace=wrap;" vertex="1" parent="uXOJ_GGudiLRuNJcndU_-20">
          <mxGeometry x="10" y="695" width="100" height="100" as="geometry" />
        </mxCell>
        <mxCell id="uXOJ_GGudiLRuNJcndU_-61" style="edgeStyle=orthogonalEdgeStyle;rounded=0;orthogonalLoop=1;jettySize=auto;html=1;entryX=1;entryY=0.5;entryDx=0;entryDy=0;entryPerimeter=0;" edge="1" parent="uXOJ_GGudiLRuNJcndU_-20" source="uXOJ_GGudiLRuNJcndU_-56" target="uXOJ_GGudiLRuNJcndU_-60">
          <mxGeometry relative="1" as="geometry" />
        </mxCell>
        <mxCell id="uXOJ_GGudiLRuNJcndU_-62" style="edgeStyle=orthogonalEdgeStyle;rounded=0;orthogonalLoop=1;jettySize=auto;html=1;entryX=0.5;entryY=0;entryDx=0;entryDy=0;entryPerimeter=0;" edge="1" parent="uXOJ_GGudiLRuNJcndU_-20" source="uXOJ_GGudiLRuNJcndU_-50" target="uXOJ_GGudiLRuNJcndU_-55">
          <mxGeometry relative="1" as="geometry" />
        </mxCell>
        <mxCell id="uXOJ_GGudiLRuNJcndU_-63" value="false" style="edgeStyle=orthogonalEdgeStyle;rounded=0;orthogonalLoop=1;jettySize=auto;html=1;entryX=0;entryY=0.5;entryDx=0;entryDy=0;entryPerimeter=0;" edge="1" parent="uXOJ_GGudiLRuNJcndU_-20" source="uXOJ_GGudiLRuNJcndU_-39" target="uXOJ_GGudiLRuNJcndU_-44">
          <mxGeometry relative="1" as="geometry" />
        </mxCell>
        <mxCell id="uXOJ_GGudiLRuNJcndU_-169" value="" style="group" vertex="1" connectable="0" parent="1">
          <mxGeometry x="-370" y="690" width="700" height="720" as="geometry" />
        </mxCell>
        <mxCell id="uXOJ_GGudiLRuNJcndU_-170" value="" style="rounded=0;whiteSpace=wrap;html=1;" vertex="1" parent="uXOJ_GGudiLRuNJcndU_-169">
          <mxGeometry width="700" height="720" as="geometry" />
        </mxCell>
        <mxCell id="uXOJ_GGudiLRuNJcndU_-171" style="edgeStyle=orthogonalEdgeStyle;rounded=0;orthogonalLoop=1;jettySize=auto;html=1;entryX=0.5;entryY=0;entryDx=0;entryDy=0;" edge="1" parent="uXOJ_GGudiLRuNJcndU_-169" source="uXOJ_GGudiLRuNJcndU_-172" target="uXOJ_GGudiLRuNJcndU_-197">
          <mxGeometry relative="1" as="geometry" />
        </mxCell>
        <mxCell id="uXOJ_GGudiLRuNJcndU_-172" value="Start" style="ellipse;whiteSpace=wrap;html=1;fontSize=15;" vertex="1" parent="uXOJ_GGudiLRuNJcndU_-169">
          <mxGeometry x="110" y="15" width="120" height="60" as="geometry" />
        </mxCell>
        <mxCell id="uXOJ_GGudiLRuNJcndU_-173" value="Input Login" style="shape=parallelogram;html=1;strokeWidth=2;perimeter=parallelogramPerimeter;whiteSpace=wrap;rounded=1;arcSize=12;size=0.23;" vertex="1" parent="uXOJ_GGudiLRuNJcndU_-169">
          <mxGeometry x="280" y="256" width="100" height="60" as="geometry" />
        </mxCell>
        <mxCell id="uXOJ_GGudiLRuNJcndU_-174" value="Login == &quot;admin&quot;" style="strokeWidth=2;html=1;shape=mxgraph.flowchart.decision;whiteSpace=wrap;" vertex="1" parent="uXOJ_GGudiLRuNJcndU_-169">
          <mxGeometry x="280" y="361" width="100" height="100" as="geometry" />
        </mxCell>
        <mxCell id="uXOJ_GGudiLRuNJcndU_-175" value="Login == &quot;user&quot;" style="strokeWidth=2;html=1;shape=mxgraph.flowchart.decision;whiteSpace=wrap;" vertex="1" parent="uXOJ_GGudiLRuNJcndU_-169">
          <mxGeometry x="430" y="361" width="100" height="100" as="geometry" />
        </mxCell>
        <mxCell id="uXOJ_GGudiLRuNJcndU_-176" value="A" style="strokeWidth=2;html=1;shape=mxgraph.flowchart.start_2;whiteSpace=wrap;" vertex="1" parent="uXOJ_GGudiLRuNJcndU_-169">
          <mxGeometry x="300" y="501" width="60" height="60" as="geometry" />
        </mxCell>
        <mxCell id="uXOJ_GGudiLRuNJcndU_-177" value="B" style="strokeWidth=2;html=1;shape=mxgraph.flowchart.start_2;whiteSpace=wrap;" vertex="1" parent="uXOJ_GGudiLRuNJcndU_-169">
          <mxGeometry x="450" y="501" width="60" height="60" as="geometry" />
        </mxCell>
        <mxCell id="uXOJ_GGudiLRuNJcndU_-178" value="Main Menu" style="text;html=1;align=right;verticalAlign=middle;whiteSpace=wrap;rounded=0;fontSize=16;fontStyle=1" vertex="1" parent="uXOJ_GGudiLRuNJcndU_-169">
          <mxGeometry x="540" y="15" width="150" height="30" as="geometry" />
        </mxCell>
        <mxCell id="uXOJ_GGudiLRuNJcndU_-179" style="edgeStyle=orthogonalEdgeStyle;rounded=0;orthogonalLoop=1;jettySize=auto;html=1;entryX=0.5;entryY=0;entryDx=0;entryDy=0;" edge="1" parent="uXOJ_GGudiLRuNJcndU_-169" source="uXOJ_GGudiLRuNJcndU_-180" target="uXOJ_GGudiLRuNJcndU_-173">
          <mxGeometry relative="1" as="geometry" />
        </mxCell>
        <mxCell id="uXOJ_GGudiLRuNJcndU_-180" value="Z" style="strokeWidth=2;html=1;shape=mxgraph.flowchart.start_2;whiteSpace=wrap;" vertex="1" parent="uXOJ_GGudiLRuNJcndU_-169">
          <mxGeometry x="300" y="125" width="60" height="60" as="geometry" />
        </mxCell>
        <mxCell id="uXOJ_GGudiLRuNJcndU_-181" style="edgeStyle=orthogonalEdgeStyle;rounded=0;orthogonalLoop=1;jettySize=auto;html=1;entryX=0.5;entryY=0;entryDx=0;entryDy=0;" edge="1" parent="uXOJ_GGudiLRuNJcndU_-169" source="uXOJ_GGudiLRuNJcndU_-185" target="uXOJ_GGudiLRuNJcndU_-186">
          <mxGeometry relative="1" as="geometry" />
        </mxCell>
        <mxCell id="uXOJ_GGudiLRuNJcndU_-182" value="true" style="edgeLabel;html=1;align=center;verticalAlign=middle;resizable=0;points=[];" vertex="1" connectable="0" parent="uXOJ_GGudiLRuNJcndU_-181">
          <mxGeometry x="-0.1043" y="1" relative="1" as="geometry">
            <mxPoint as="offset" />
          </mxGeometry>
        </mxCell>
        <mxCell id="uXOJ_GGudiLRuNJcndU_-183" style="edgeStyle=orthogonalEdgeStyle;rounded=0;orthogonalLoop=1;jettySize=auto;html=1;entryX=1;entryY=0.5;entryDx=0;entryDy=0;" edge="1" parent="uXOJ_GGudiLRuNJcndU_-169" source="uXOJ_GGudiLRuNJcndU_-185" target="uXOJ_GGudiLRuNJcndU_-173">
          <mxGeometry relative="1" as="geometry">
            <mxPoint x="500" y="291" as="targetPoint" />
            <Array as="points">
              <mxPoint x="630" y="286" />
            </Array>
          </mxGeometry>
        </mxCell>
        <mxCell id="uXOJ_GGudiLRuNJcndU_-184" value="false" style="edgeLabel;html=1;align=center;verticalAlign=middle;resizable=0;points=[];" vertex="1" connectable="0" parent="uXOJ_GGudiLRuNJcndU_-183">
          <mxGeometry x="-0.8483" relative="1" as="geometry">
            <mxPoint as="offset" />
          </mxGeometry>
        </mxCell>
        <mxCell id="uXOJ_GGudiLRuNJcndU_-185" value="Login == &quot;exit&quot;" style="strokeWidth=2;html=1;shape=mxgraph.flowchart.decision;whiteSpace=wrap;" vertex="1" parent="uXOJ_GGudiLRuNJcndU_-169">
          <mxGeometry x="580" y="361" width="100" height="100" as="geometry" />
        </mxCell>
        <mxCell id="uXOJ_GGudiLRuNJcndU_-186" value="End" style="ellipse;whiteSpace=wrap;html=1;fontSize=15;" vertex="1" parent="uXOJ_GGudiLRuNJcndU_-169">
          <mxGeometry x="570" y="501" width="120" height="60" as="geometry" />
        </mxCell>
        <mxCell id="uXOJ_GGudiLRuNJcndU_-187" style="edgeStyle=orthogonalEdgeStyle;rounded=0;orthogonalLoop=1;jettySize=auto;html=1;entryX=0.5;entryY=0;entryDx=0;entryDy=0;entryPerimeter=0;" edge="1" parent="uXOJ_GGudiLRuNJcndU_-169" source="uXOJ_GGudiLRuNJcndU_-173" target="uXOJ_GGudiLRuNJcndU_-174">
          <mxGeometry relative="1" as="geometry" />
        </mxCell>
        <mxCell id="uXOJ_GGudiLRuNJcndU_-188" style="edgeStyle=orthogonalEdgeStyle;rounded=0;orthogonalLoop=1;jettySize=auto;html=1;entryX=0.5;entryY=0;entryDx=0;entryDy=0;entryPerimeter=0;" edge="1" parent="uXOJ_GGudiLRuNJcndU_-169" source="uXOJ_GGudiLRuNJcndU_-174" target="uXOJ_GGudiLRuNJcndU_-176">
          <mxGeometry relative="1" as="geometry" />
        </mxCell>
        <mxCell id="uXOJ_GGudiLRuNJcndU_-189" value="true" style="edgeLabel;html=1;align=center;verticalAlign=middle;resizable=0;points=[];" vertex="1" connectable="0" parent="uXOJ_GGudiLRuNJcndU_-188">
          <mxGeometry x="-0.2783" y="2" relative="1" as="geometry">
            <mxPoint as="offset" />
          </mxGeometry>
        </mxCell>
        <mxCell id="uXOJ_GGudiLRuNJcndU_-190" style="edgeStyle=orthogonalEdgeStyle;rounded=0;orthogonalLoop=1;jettySize=auto;html=1;entryX=0;entryY=0.5;entryDx=0;entryDy=0;entryPerimeter=0;" edge="1" parent="uXOJ_GGudiLRuNJcndU_-169" source="uXOJ_GGudiLRuNJcndU_-174" target="uXOJ_GGudiLRuNJcndU_-175">
          <mxGeometry relative="1" as="geometry" />
        </mxCell>
        <mxCell id="uXOJ_GGudiLRuNJcndU_-191" value="false" style="edgeLabel;html=1;align=center;verticalAlign=middle;resizable=0;points=[];" vertex="1" connectable="0" parent="uXOJ_GGudiLRuNJcndU_-190">
          <mxGeometry x="-0.3801" y="3" relative="1" as="geometry">
            <mxPoint as="offset" />
          </mxGeometry>
        </mxCell>
        <mxCell id="uXOJ_GGudiLRuNJcndU_-192" style="edgeStyle=orthogonalEdgeStyle;rounded=0;orthogonalLoop=1;jettySize=auto;html=1;entryX=0.5;entryY=0;entryDx=0;entryDy=0;entryPerimeter=0;" edge="1" parent="uXOJ_GGudiLRuNJcndU_-169" source="uXOJ_GGudiLRuNJcndU_-175" target="uXOJ_GGudiLRuNJcndU_-177">
          <mxGeometry relative="1" as="geometry" />
        </mxCell>
        <mxCell id="uXOJ_GGudiLRuNJcndU_-193" value="true" style="edgeLabel;html=1;align=center;verticalAlign=middle;resizable=0;points=[];" vertex="1" connectable="0" parent="uXOJ_GGudiLRuNJcndU_-192">
          <mxGeometry x="-0.2783" relative="1" as="geometry">
            <mxPoint as="offset" />
          </mxGeometry>
        </mxCell>
        <mxCell id="uXOJ_GGudiLRuNJcndU_-194" style="edgeStyle=orthogonalEdgeStyle;rounded=0;orthogonalLoop=1;jettySize=auto;html=1;entryX=0;entryY=0.5;entryDx=0;entryDy=0;entryPerimeter=0;" edge="1" parent="uXOJ_GGudiLRuNJcndU_-169" source="uXOJ_GGudiLRuNJcndU_-175" target="uXOJ_GGudiLRuNJcndU_-185">
          <mxGeometry relative="1" as="geometry" />
        </mxCell>
        <mxCell id="uXOJ_GGudiLRuNJcndU_-195" value="false" style="edgeLabel;html=1;align=center;verticalAlign=middle;resizable=0;points=[];" vertex="1" connectable="0" parent="uXOJ_GGudiLRuNJcndU_-194">
          <mxGeometry x="0.0547" y="3" relative="1" as="geometry">
            <mxPoint as="offset" />
          </mxGeometry>
        </mxCell>
        <mxCell id="uXOJ_GGudiLRuNJcndU_-196" style="edgeStyle=orthogonalEdgeStyle;rounded=0;orthogonalLoop=1;jettySize=auto;html=1;" edge="1" parent="uXOJ_GGudiLRuNJcndU_-169" source="uXOJ_GGudiLRuNJcndU_-197" target="uXOJ_GGudiLRuNJcndU_-202">
          <mxGeometry relative="1" as="geometry" />
        </mxCell>
        <mxCell id="uXOJ_GGudiLRuNJcndU_-197" value="&lt;div&gt;&lt;span style=&quot;background-color: initial;&quot;&gt;carIndex = 0&lt;/span&gt;&lt;/div&gt;" style="rounded=1;whiteSpace=wrap;html=1;absoluteArcSize=1;arcSize=14;strokeWidth=2;" vertex="1" parent="uXOJ_GGudiLRuNJcndU_-169">
          <mxGeometry x="120" y="125" width="100" height="60" as="geometry" />
        </mxCell>
        <mxCell id="uXOJ_GGudiLRuNJcndU_-198" style="edgeStyle=orthogonalEdgeStyle;rounded=0;orthogonalLoop=1;jettySize=auto;html=1;entryX=0;entryY=0.5;entryDx=0;entryDy=0;" edge="1" parent="uXOJ_GGudiLRuNJcndU_-169" source="uXOJ_GGudiLRuNJcndU_-202" target="uXOJ_GGudiLRuNJcndU_-173">
          <mxGeometry relative="1" as="geometry" />
        </mxCell>
        <mxCell id="uXOJ_GGudiLRuNJcndU_-199" value="true" style="edgeLabel;html=1;align=center;verticalAlign=middle;resizable=0;points=[];" vertex="1" connectable="0" parent="uXOJ_GGudiLRuNJcndU_-198">
          <mxGeometry x="-0.0766" y="-1" relative="1" as="geometry">
            <mxPoint as="offset" />
          </mxGeometry>
        </mxCell>
        <mxCell id="uXOJ_GGudiLRuNJcndU_-200" style="edgeStyle=orthogonalEdgeStyle;rounded=0;orthogonalLoop=1;jettySize=auto;html=1;entryX=0.5;entryY=0;entryDx=0;entryDy=0;" edge="1" parent="uXOJ_GGudiLRuNJcndU_-169" source="uXOJ_GGudiLRuNJcndU_-202" target="uXOJ_GGudiLRuNJcndU_-213">
          <mxGeometry relative="1" as="geometry" />
        </mxCell>
        <mxCell id="uXOJ_GGudiLRuNJcndU_-201" value="false" style="edgeLabel;html=1;align=center;verticalAlign=middle;resizable=0;points=[];" vertex="1" connectable="0" parent="uXOJ_GGudiLRuNJcndU_-200">
          <mxGeometry x="0.12" y="3" relative="1" as="geometry">
            <mxPoint as="offset" />
          </mxGeometry>
        </mxCell>
        <mxCell id="uXOJ_GGudiLRuNJcndU_-202" value="carIndex ==&lt;div&gt;length carDictionary&lt;/div&gt;" style="strokeWidth=2;html=1;shape=mxgraph.flowchart.decision;whiteSpace=wrap;" vertex="1" parent="uXOJ_GGudiLRuNJcndU_-169">
          <mxGeometry x="120" y="235" width="100" height="100" as="geometry" />
        </mxCell>
        <mxCell id="uXOJ_GGudiLRuNJcndU_-203" value="&lt;div&gt;&lt;span style=&quot;background-color: initial;&quot;&gt;Generate Random carId&lt;/span&gt;&lt;br&gt;&lt;/div&gt;" style="rounded=1;whiteSpace=wrap;html=1;absoluteArcSize=1;arcSize=14;strokeWidth=2;" vertex="1" parent="uXOJ_GGudiLRuNJcndU_-169">
          <mxGeometry x="120" y="495" width="100" height="60" as="geometry" />
        </mxCell>
        <mxCell id="uXOJ_GGudiLRuNJcndU_-204" style="edgeStyle=orthogonalEdgeStyle;rounded=0;orthogonalLoop=1;jettySize=auto;html=1;entryX=1;entryY=0.5;entryDx=0;entryDy=0;" edge="1" parent="uXOJ_GGudiLRuNJcndU_-169" source="uXOJ_GGudiLRuNJcndU_-208" target="uXOJ_GGudiLRuNJcndU_-203">
          <mxGeometry relative="1" as="geometry">
            <Array as="points">
              <mxPoint x="240" y="655" />
              <mxPoint x="240" y="525" />
            </Array>
          </mxGeometry>
        </mxCell>
        <mxCell id="uXOJ_GGudiLRuNJcndU_-205" value="true" style="edgeLabel;html=1;align=center;verticalAlign=middle;resizable=0;points=[];" vertex="1" connectable="0" parent="uXOJ_GGudiLRuNJcndU_-204">
          <mxGeometry x="-0.042" y="2" relative="1" as="geometry">
            <mxPoint as="offset" />
          </mxGeometry>
        </mxCell>
        <mxCell id="uXOJ_GGudiLRuNJcndU_-206" style="edgeStyle=orthogonalEdgeStyle;rounded=0;orthogonalLoop=1;jettySize=auto;html=1;entryX=0.5;entryY=1;entryDx=0;entryDy=0;" edge="1" parent="uXOJ_GGudiLRuNJcndU_-169" source="uXOJ_GGudiLRuNJcndU_-208" target="uXOJ_GGudiLRuNJcndU_-215">
          <mxGeometry relative="1" as="geometry" />
        </mxCell>
        <mxCell id="uXOJ_GGudiLRuNJcndU_-207" value="false" style="edgeLabel;html=1;align=center;verticalAlign=middle;resizable=0;points=[];" vertex="1" connectable="0" parent="uXOJ_GGudiLRuNJcndU_-206">
          <mxGeometry x="0.2905" y="3" relative="1" as="geometry">
            <mxPoint as="offset" />
          </mxGeometry>
        </mxCell>
        <mxCell id="uXOJ_GGudiLRuNJcndU_-208" value="carId is&lt;div&gt;already exist&lt;/div&gt;" style="strokeWidth=2;html=1;shape=mxgraph.flowchart.decision;whiteSpace=wrap;" vertex="1" parent="uXOJ_GGudiLRuNJcndU_-169">
          <mxGeometry x="120" y="605" width="100" height="100" as="geometry" />
        </mxCell>
        <mxCell id="uXOJ_GGudiLRuNJcndU_-209" value="carIndex ++" style="rounded=1;whiteSpace=wrap;html=1;absoluteArcSize=1;arcSize=14;strokeWidth=2;" vertex="1" parent="uXOJ_GGudiLRuNJcndU_-169">
          <mxGeometry x="10" y="385" width="100" height="60" as="geometry" />
        </mxCell>
        <mxCell id="uXOJ_GGudiLRuNJcndU_-210" style="edgeStyle=orthogonalEdgeStyle;rounded=0;orthogonalLoop=1;jettySize=auto;html=1;entryX=0;entryY=0.5;entryDx=0;entryDy=0;entryPerimeter=0;" edge="1" parent="uXOJ_GGudiLRuNJcndU_-169" source="uXOJ_GGudiLRuNJcndU_-209" target="uXOJ_GGudiLRuNJcndU_-202">
          <mxGeometry relative="1" as="geometry">
            <Array as="points">
              <mxPoint x="60" y="285" />
            </Array>
          </mxGeometry>
        </mxCell>
        <mxCell id="uXOJ_GGudiLRuNJcndU_-211" style="edgeStyle=orthogonalEdgeStyle;rounded=0;orthogonalLoop=1;jettySize=auto;html=1;entryX=0.5;entryY=0;entryDx=0;entryDy=0;entryPerimeter=0;" edge="1" parent="uXOJ_GGudiLRuNJcndU_-169" source="uXOJ_GGudiLRuNJcndU_-203" target="uXOJ_GGudiLRuNJcndU_-208">
          <mxGeometry relative="1" as="geometry" />
        </mxCell>
        <mxCell id="uXOJ_GGudiLRuNJcndU_-212" style="edgeStyle=orthogonalEdgeStyle;rounded=0;orthogonalLoop=1;jettySize=auto;html=1;entryX=0.5;entryY=0;entryDx=0;entryDy=0;" edge="1" parent="uXOJ_GGudiLRuNJcndU_-169" source="uXOJ_GGudiLRuNJcndU_-213" target="uXOJ_GGudiLRuNJcndU_-203">
          <mxGeometry relative="1" as="geometry" />
        </mxCell>
        <mxCell id="uXOJ_GGudiLRuNJcndU_-213" value="&lt;div&gt;&lt;span style=&quot;background-color: initial;&quot;&gt;Access carDictionary for carIndex&lt;/span&gt;&lt;br&gt;&lt;/div&gt;" style="rounded=1;whiteSpace=wrap;html=1;absoluteArcSize=1;arcSize=14;strokeWidth=2;" vertex="1" parent="uXOJ_GGudiLRuNJcndU_-169">
          <mxGeometry x="120" y="385" width="100" height="60" as="geometry" />
        </mxCell>
        <mxCell id="uXOJ_GGudiLRuNJcndU_-214" style="edgeStyle=orthogonalEdgeStyle;rounded=0;orthogonalLoop=1;jettySize=auto;html=1;entryX=0.5;entryY=1;entryDx=0;entryDy=0;" edge="1" parent="uXOJ_GGudiLRuNJcndU_-169" source="uXOJ_GGudiLRuNJcndU_-215" target="uXOJ_GGudiLRuNJcndU_-209">
          <mxGeometry relative="1" as="geometry" />
        </mxCell>
        <mxCell id="uXOJ_GGudiLRuNJcndU_-215" value="&lt;div&gt;Update carId&lt;/div&gt;" style="rounded=1;whiteSpace=wrap;html=1;absoluteArcSize=1;arcSize=14;strokeWidth=2;" vertex="1" parent="uXOJ_GGudiLRuNJcndU_-169">
          <mxGeometry x="10" y="495" width="100" height="60" as="geometry" />
        </mxCell>
        <mxCell id="uXOJ_GGudiLRuNJcndU_-216" value="" style="group" vertex="1" connectable="0" parent="1">
          <mxGeometry x="-370" y="70" width="720" height="560" as="geometry" />
        </mxCell>
        <mxCell id="uXOJ_GGudiLRuNJcndU_-217" value="" style="rounded=0;whiteSpace=wrap;html=1;" vertex="1" parent="uXOJ_GGudiLRuNJcndU_-216">
          <mxGeometry width="720" height="560" as="geometry" />
        </mxCell>
        <mxCell id="uXOJ_GGudiLRuNJcndU_-218" style="edgeStyle=orthogonalEdgeStyle;rounded=0;orthogonalLoop=1;jettySize=auto;html=1;" edge="1" parent="uXOJ_GGudiLRuNJcndU_-216" source="uXOJ_GGudiLRuNJcndU_-219" target="uXOJ_GGudiLRuNJcndU_-221">
          <mxGeometry relative="1" as="geometry" />
        </mxCell>
        <mxCell id="uXOJ_GGudiLRuNJcndU_-219" value="A" style="strokeWidth=2;html=1;shape=mxgraph.flowchart.start_2;whiteSpace=wrap;" vertex="1" parent="uXOJ_GGudiLRuNJcndU_-216">
          <mxGeometry x="30" y="10" width="60" height="60" as="geometry" />
        </mxCell>
        <mxCell id="uXOJ_GGudiLRuNJcndU_-220" value="Input&lt;div&gt;adminMenu&lt;/div&gt;" style="shape=parallelogram;html=1;strokeWidth=2;perimeter=parallelogramPerimeter;whiteSpace=wrap;rounded=1;arcSize=12;size=0.23;" vertex="1" parent="uXOJ_GGudiLRuNJcndU_-216">
          <mxGeometry x="10" y="230" width="100" height="60" as="geometry" />
        </mxCell>
        <mxCell id="uXOJ_GGudiLRuNJcndU_-221" value="Display Menu&lt;div&gt;Choices&lt;/div&gt;" style="rounded=1;whiteSpace=wrap;html=1;absoluteArcSize=1;arcSize=14;strokeWidth=2;" vertex="1" parent="uXOJ_GGudiLRuNJcndU_-216">
          <mxGeometry x="10" y="120" width="100" height="60" as="geometry" />
        </mxCell>
        <mxCell id="uXOJ_GGudiLRuNJcndU_-222" style="edgeStyle=orthogonalEdgeStyle;rounded=0;orthogonalLoop=1;jettySize=auto;html=1;" edge="1" parent="uXOJ_GGudiLRuNJcndU_-216" source="uXOJ_GGudiLRuNJcndU_-226" target="uXOJ_GGudiLRuNJcndU_-229">
          <mxGeometry relative="1" as="geometry" />
        </mxCell>
        <mxCell id="uXOJ_GGudiLRuNJcndU_-223" value="false" style="edgeLabel;html=1;align=center;verticalAlign=middle;resizable=0;points=[];" vertex="1" connectable="0" parent="uXOJ_GGudiLRuNJcndU_-222">
          <mxGeometry x="-0.1029" y="2" relative="1" as="geometry">
            <mxPoint as="offset" />
          </mxGeometry>
        </mxCell>
        <mxCell id="uXOJ_GGudiLRuNJcndU_-224" style="edgeStyle=orthogonalEdgeStyle;rounded=0;orthogonalLoop=1;jettySize=auto;html=1;" edge="1" parent="uXOJ_GGudiLRuNJcndU_-216" source="uXOJ_GGudiLRuNJcndU_-226" target="uXOJ_GGudiLRuNJcndU_-231">
          <mxGeometry relative="1" as="geometry" />
        </mxCell>
        <mxCell id="uXOJ_GGudiLRuNJcndU_-225" value="true" style="edgeLabel;html=1;align=center;verticalAlign=middle;resizable=0;points=[];" vertex="1" connectable="0" parent="uXOJ_GGudiLRuNJcndU_-224">
          <mxGeometry x="-0.0922" y="1" relative="1" as="geometry">
            <mxPoint as="offset" />
          </mxGeometry>
        </mxCell>
        <mxCell id="uXOJ_GGudiLRuNJcndU_-226" value="adminMenu&lt;div&gt;== 1&lt;/div&gt;" style="strokeWidth=2;html=1;shape=mxgraph.flowchart.decision;whiteSpace=wrap;" vertex="1" parent="uXOJ_GGudiLRuNJcndU_-216">
          <mxGeometry x="10" y="340" width="100" height="100" as="geometry" />
        </mxCell>
        <mxCell id="uXOJ_GGudiLRuNJcndU_-227" style="edgeStyle=orthogonalEdgeStyle;rounded=0;orthogonalLoop=1;jettySize=auto;html=1;" edge="1" parent="uXOJ_GGudiLRuNJcndU_-216" source="uXOJ_GGudiLRuNJcndU_-229" target="uXOJ_GGudiLRuNJcndU_-232">
          <mxGeometry relative="1" as="geometry" />
        </mxCell>
        <mxCell id="uXOJ_GGudiLRuNJcndU_-228" value="true" style="edgeLabel;html=1;align=center;verticalAlign=middle;resizable=0;points=[];" vertex="1" connectable="0" parent="uXOJ_GGudiLRuNJcndU_-227">
          <mxGeometry x="-0.3357" relative="1" as="geometry">
            <mxPoint as="offset" />
          </mxGeometry>
        </mxCell>
        <mxCell id="uXOJ_GGudiLRuNJcndU_-229" value="adminMenu&lt;div&gt;== 2&lt;/div&gt;" style="strokeWidth=2;html=1;shape=mxgraph.flowchart.decision;whiteSpace=wrap;" vertex="1" parent="uXOJ_GGudiLRuNJcndU_-216">
          <mxGeometry x="160" y="340" width="100" height="100" as="geometry" />
        </mxCell>
        <mxCell id="uXOJ_GGudiLRuNJcndU_-230" value="adminMenu&lt;div&gt;== 3&lt;/div&gt;" style="strokeWidth=2;html=1;shape=mxgraph.flowchart.decision;whiteSpace=wrap;" vertex="1" parent="uXOJ_GGudiLRuNJcndU_-216">
          <mxGeometry x="310" y="340" width="100" height="100" as="geometry" />
        </mxCell>
        <mxCell id="uXOJ_GGudiLRuNJcndU_-231" value="A_A" style="strokeWidth=2;html=1;shape=mxgraph.flowchart.start_2;whiteSpace=wrap;" vertex="1" parent="uXOJ_GGudiLRuNJcndU_-216">
          <mxGeometry x="30" y="490" width="60" height="60" as="geometry" />
        </mxCell>
        <mxCell id="uXOJ_GGudiLRuNJcndU_-232" value="A_B" style="strokeWidth=2;html=1;shape=mxgraph.flowchart.start_2;whiteSpace=wrap;" vertex="1" parent="uXOJ_GGudiLRuNJcndU_-216">
          <mxGeometry x="180" y="490" width="60" height="60" as="geometry" />
        </mxCell>
        <mxCell id="uXOJ_GGudiLRuNJcndU_-233" value="A_C" style="strokeWidth=2;html=1;shape=mxgraph.flowchart.start_2;whiteSpace=wrap;" vertex="1" parent="uXOJ_GGudiLRuNJcndU_-216">
          <mxGeometry x="330" y="490" width="60" height="60" as="geometry" />
        </mxCell>
        <mxCell id="uXOJ_GGudiLRuNJcndU_-234" value="Admin Menu" style="text;html=1;align=right;verticalAlign=middle;whiteSpace=wrap;rounded=0;fontSize=16;fontStyle=1" vertex="1" parent="uXOJ_GGudiLRuNJcndU_-216">
          <mxGeometry x="560" width="150" height="30" as="geometry" />
        </mxCell>
        <mxCell id="uXOJ_GGudiLRuNJcndU_-235" value="adminMenu&lt;div&gt;&lt;span style=&quot;background-color: initial;&quot;&gt;== 4&lt;/span&gt;&lt;/div&gt;" style="strokeWidth=2;html=1;shape=mxgraph.flowchart.decision;whiteSpace=wrap;" vertex="1" parent="uXOJ_GGudiLRuNJcndU_-216">
          <mxGeometry x="460" y="340" width="100" height="100" as="geometry" />
        </mxCell>
        <mxCell id="uXOJ_GGudiLRuNJcndU_-236" value="A_D" style="strokeWidth=2;html=1;shape=mxgraph.flowchart.start_2;whiteSpace=wrap;" vertex="1" parent="uXOJ_GGudiLRuNJcndU_-216">
          <mxGeometry x="480" y="490" width="60" height="60" as="geometry" />
        </mxCell>
        <mxCell id="uXOJ_GGudiLRuNJcndU_-237" style="edgeStyle=orthogonalEdgeStyle;rounded=0;orthogonalLoop=1;jettySize=auto;html=1;entryX=0.5;entryY=0;entryDx=0;entryDy=0;" edge="1" parent="uXOJ_GGudiLRuNJcndU_-216" source="uXOJ_GGudiLRuNJcndU_-221" target="uXOJ_GGudiLRuNJcndU_-220">
          <mxGeometry relative="1" as="geometry" />
        </mxCell>
        <mxCell id="uXOJ_GGudiLRuNJcndU_-238" style="edgeStyle=orthogonalEdgeStyle;rounded=0;orthogonalLoop=1;jettySize=auto;html=1;entryX=0.5;entryY=0;entryDx=0;entryDy=0;entryPerimeter=0;" edge="1" parent="uXOJ_GGudiLRuNJcndU_-216" source="uXOJ_GGudiLRuNJcndU_-220" target="uXOJ_GGudiLRuNJcndU_-226">
          <mxGeometry relative="1" as="geometry" />
        </mxCell>
        <mxCell id="uXOJ_GGudiLRuNJcndU_-239" style="edgeStyle=orthogonalEdgeStyle;rounded=0;orthogonalLoop=1;jettySize=auto;html=1;entryX=0;entryY=0.5;entryDx=0;entryDy=0;entryPerimeter=0;" edge="1" parent="uXOJ_GGudiLRuNJcndU_-216" source="uXOJ_GGudiLRuNJcndU_-229" target="uXOJ_GGudiLRuNJcndU_-230">
          <mxGeometry relative="1" as="geometry" />
        </mxCell>
        <mxCell id="uXOJ_GGudiLRuNJcndU_-240" value="false" style="edgeLabel;html=1;align=center;verticalAlign=middle;resizable=0;points=[];" vertex="1" connectable="0" parent="uXOJ_GGudiLRuNJcndU_-239">
          <mxGeometry x="-0.1609" relative="1" as="geometry">
            <mxPoint as="offset" />
          </mxGeometry>
        </mxCell>
        <mxCell id="uXOJ_GGudiLRuNJcndU_-241" value="false" style="edgeStyle=orthogonalEdgeStyle;rounded=0;orthogonalLoop=1;jettySize=auto;html=1;entryX=0;entryY=0.5;entryDx=0;entryDy=0;entryPerimeter=0;" edge="1" parent="uXOJ_GGudiLRuNJcndU_-216" source="uXOJ_GGudiLRuNJcndU_-230" target="uXOJ_GGudiLRuNJcndU_-235">
          <mxGeometry relative="1" as="geometry" />
        </mxCell>
        <mxCell id="uXOJ_GGudiLRuNJcndU_-242" style="edgeStyle=orthogonalEdgeStyle;rounded=0;orthogonalLoop=1;jettySize=auto;html=1;entryX=0.5;entryY=0;entryDx=0;entryDy=0;entryPerimeter=0;" edge="1" parent="uXOJ_GGudiLRuNJcndU_-216" source="uXOJ_GGudiLRuNJcndU_-235" target="uXOJ_GGudiLRuNJcndU_-236">
          <mxGeometry relative="1" as="geometry" />
        </mxCell>
        <mxCell id="uXOJ_GGudiLRuNJcndU_-243" value="true" style="edgeLabel;html=1;align=center;verticalAlign=middle;resizable=0;points=[];" vertex="1" connectable="0" parent="uXOJ_GGudiLRuNJcndU_-242">
          <mxGeometry x="-0.4748" relative="1" as="geometry">
            <mxPoint as="offset" />
          </mxGeometry>
        </mxCell>
        <mxCell id="uXOJ_GGudiLRuNJcndU_-244" style="edgeStyle=orthogonalEdgeStyle;rounded=0;orthogonalLoop=1;jettySize=auto;html=1;entryX=0.5;entryY=0;entryDx=0;entryDy=0;entryPerimeter=0;" edge="1" parent="uXOJ_GGudiLRuNJcndU_-216" source="uXOJ_GGudiLRuNJcndU_-230" target="uXOJ_GGudiLRuNJcndU_-233">
          <mxGeometry relative="1" as="geometry" />
        </mxCell>
        <mxCell id="uXOJ_GGudiLRuNJcndU_-245" value="true" style="edgeLabel;html=1;align=center;verticalAlign=middle;resizable=0;points=[];" vertex="1" connectable="0" parent="uXOJ_GGudiLRuNJcndU_-244">
          <mxGeometry x="-0.0574" y="2" relative="1" as="geometry">
            <mxPoint as="offset" />
          </mxGeometry>
        </mxCell>
        <mxCell id="uXOJ_GGudiLRuNJcndU_-246" style="edgeStyle=orthogonalEdgeStyle;rounded=0;orthogonalLoop=1;jettySize=auto;html=1;entryX=1;entryY=0.5;entryDx=0;entryDy=0;" edge="1" parent="uXOJ_GGudiLRuNJcndU_-216" source="uXOJ_GGudiLRuNJcndU_-248" target="uXOJ_GGudiLRuNJcndU_-220">
          <mxGeometry relative="1" as="geometry">
            <Array as="points">
              <mxPoint x="660" y="260" />
            </Array>
          </mxGeometry>
        </mxCell>
        <mxCell id="uXOJ_GGudiLRuNJcndU_-247" value="false" style="edgeLabel;html=1;align=center;verticalAlign=middle;resizable=0;points=[];" vertex="1" connectable="0" parent="uXOJ_GGudiLRuNJcndU_-246">
          <mxGeometry x="0.0957" y="-1" relative="1" as="geometry">
            <mxPoint as="offset" />
          </mxGeometry>
        </mxCell>
        <mxCell id="uXOJ_GGudiLRuNJcndU_-248" value="adminMenu&lt;div&gt;== 0&lt;/div&gt;" style="strokeWidth=2;html=1;shape=mxgraph.flowchart.decision;whiteSpace=wrap;" vertex="1" parent="uXOJ_GGudiLRuNJcndU_-216">
          <mxGeometry x="610" y="340" width="100" height="100" as="geometry" />
        </mxCell>
        <mxCell id="uXOJ_GGudiLRuNJcndU_-249" style="edgeStyle=orthogonalEdgeStyle;rounded=0;orthogonalLoop=1;jettySize=auto;html=1;entryX=0;entryY=0.5;entryDx=0;entryDy=0;entryPerimeter=0;" edge="1" parent="uXOJ_GGudiLRuNJcndU_-216" source="uXOJ_GGudiLRuNJcndU_-235" target="uXOJ_GGudiLRuNJcndU_-248">
          <mxGeometry relative="1" as="geometry" />
        </mxCell>
        <mxCell id="uXOJ_GGudiLRuNJcndU_-250" value="false" style="edgeLabel;html=1;align=center;verticalAlign=middle;resizable=0;points=[];" vertex="1" connectable="0" parent="uXOJ_GGudiLRuNJcndU_-249">
          <mxGeometry x="-0.4228" y="-2" relative="1" as="geometry">
            <mxPoint as="offset" />
          </mxGeometry>
        </mxCell>
        <mxCell id="uXOJ_GGudiLRuNJcndU_-251" value="Z" style="strokeWidth=2;html=1;shape=mxgraph.flowchart.start_2;whiteSpace=wrap;" vertex="1" parent="uXOJ_GGudiLRuNJcndU_-216">
          <mxGeometry x="630" y="490" width="60" height="60" as="geometry" />
        </mxCell>
        <mxCell id="uXOJ_GGudiLRuNJcndU_-252" style="edgeStyle=orthogonalEdgeStyle;rounded=0;orthogonalLoop=1;jettySize=auto;html=1;entryX=0.5;entryY=0;entryDx=0;entryDy=0;entryPerimeter=0;" edge="1" parent="uXOJ_GGudiLRuNJcndU_-216" source="uXOJ_GGudiLRuNJcndU_-248" target="uXOJ_GGudiLRuNJcndU_-251">
          <mxGeometry relative="1" as="geometry" />
        </mxCell>
        <mxCell id="uXOJ_GGudiLRuNJcndU_-253" value="" style="group" vertex="1" connectable="0" parent="1">
          <mxGeometry x="370" y="80" width="930" height="1305" as="geometry" />
        </mxCell>
        <mxCell id="uXOJ_GGudiLRuNJcndU_-254" value="" style="rounded=0;whiteSpace=wrap;html=1;" vertex="1" parent="uXOJ_GGudiLRuNJcndU_-253">
          <mxGeometry width="930" height="1305" as="geometry" />
        </mxCell>
        <mxCell id="uXOJ_GGudiLRuNJcndU_-255" style="edgeStyle=orthogonalEdgeStyle;rounded=0;orthogonalLoop=1;jettySize=auto;html=1;entryX=1;entryY=0.25;entryDx=0;entryDy=0;" edge="1" parent="uXOJ_GGudiLRuNJcndU_-253" source="uXOJ_GGudiLRuNJcndU_-287" target="uXOJ_GGudiLRuNJcndU_-288">
          <mxGeometry relative="1" as="geometry">
            <Array as="points">
              <mxPoint x="720" y="614" />
            </Array>
          </mxGeometry>
        </mxCell>
        <mxCell id="uXOJ_GGudiLRuNJcndU_-256" value="true" style="edgeLabel;html=1;align=center;verticalAlign=middle;resizable=0;points=[];" vertex="1" connectable="0" parent="uXOJ_GGudiLRuNJcndU_-255">
          <mxGeometry x="0.1658" y="-1" relative="1" as="geometry">
            <mxPoint as="offset" />
          </mxGeometry>
        </mxCell>
        <mxCell id="uXOJ_GGudiLRuNJcndU_-257" style="edgeStyle=orthogonalEdgeStyle;rounded=0;orthogonalLoop=1;jettySize=auto;html=1;" edge="1" parent="uXOJ_GGudiLRuNJcndU_-253" source="uXOJ_GGudiLRuNJcndU_-258" target="uXOJ_GGudiLRuNJcndU_-260">
          <mxGeometry relative="1" as="geometry" />
        </mxCell>
        <mxCell id="uXOJ_GGudiLRuNJcndU_-258" value="A_A" style="strokeWidth=2;html=1;shape=mxgraph.flowchart.start_2;whiteSpace=wrap;" vertex="1" parent="uXOJ_GGudiLRuNJcndU_-253">
          <mxGeometry x="210" y="7.5" width="60" height="60" as="geometry" />
        </mxCell>
        <mxCell id="uXOJ_GGudiLRuNJcndU_-259" style="edgeStyle=orthogonalEdgeStyle;rounded=0;orthogonalLoop=1;jettySize=auto;html=1;" edge="1" parent="uXOJ_GGudiLRuNJcndU_-253" source="uXOJ_GGudiLRuNJcndU_-260" target="uXOJ_GGudiLRuNJcndU_-263">
          <mxGeometry relative="1" as="geometry" />
        </mxCell>
        <mxCell id="uXOJ_GGudiLRuNJcndU_-260" value="Input&lt;div&gt;isFiltered&lt;/div&gt;" style="shape=parallelogram;html=1;strokeWidth=2;perimeter=parallelogramPerimeter;whiteSpace=wrap;rounded=1;arcSize=12;size=0.23;" vertex="1" parent="uXOJ_GGudiLRuNJcndU_-253">
          <mxGeometry x="190" y="112.5" width="100" height="60" as="geometry" />
        </mxCell>
        <mxCell id="uXOJ_GGudiLRuNJcndU_-261" style="edgeStyle=orthogonalEdgeStyle;rounded=0;orthogonalLoop=1;jettySize=auto;html=1;entryX=0.5;entryY=0;entryDx=0;entryDy=0;" edge="1" parent="uXOJ_GGudiLRuNJcndU_-253" source="uXOJ_GGudiLRuNJcndU_-263" target="uXOJ_GGudiLRuNJcndU_-299">
          <mxGeometry relative="1" as="geometry" />
        </mxCell>
        <mxCell id="uXOJ_GGudiLRuNJcndU_-262" value="true" style="edgeLabel;html=1;align=center;verticalAlign=middle;resizable=0;points=[];" vertex="1" connectable="0" parent="uXOJ_GGudiLRuNJcndU_-261">
          <mxGeometry x="-0.2259" relative="1" as="geometry">
            <mxPoint as="offset" />
          </mxGeometry>
        </mxCell>
        <mxCell id="uXOJ_GGudiLRuNJcndU_-263" value="isFiltered&amp;nbsp;==&lt;div&gt;&quot;no&quot;&lt;/div&gt;" style="strokeWidth=2;html=1;shape=mxgraph.flowchart.decision;whiteSpace=wrap;" vertex="1" parent="uXOJ_GGudiLRuNJcndU_-253">
          <mxGeometry x="190" y="212.5" width="100" height="100" as="geometry" />
        </mxCell>
        <mxCell id="uXOJ_GGudiLRuNJcndU_-264" style="edgeStyle=orthogonalEdgeStyle;rounded=0;orthogonalLoop=1;jettySize=auto;html=1;" edge="1" parent="uXOJ_GGudiLRuNJcndU_-253" target="uXOJ_GGudiLRuNJcndU_-277">
          <mxGeometry relative="1" as="geometry">
            <mxPoint x="410" y="308.5000000000001" as="sourcePoint" />
          </mxGeometry>
        </mxCell>
        <mxCell id="uXOJ_GGudiLRuNJcndU_-265" value="true" style="edgeLabel;html=1;align=center;verticalAlign=middle;resizable=0;points=[];" vertex="1" connectable="0" parent="uXOJ_GGudiLRuNJcndU_-264">
          <mxGeometry x="-0.0462" y="-1" relative="1" as="geometry">
            <mxPoint as="offset" />
          </mxGeometry>
        </mxCell>
        <mxCell id="uXOJ_GGudiLRuNJcndU_-266" value="isFiltered ==&lt;div&gt;&quot;yes&quot;&lt;/div&gt;" style="strokeWidth=2;html=1;shape=mxgraph.flowchart.decision;whiteSpace=wrap;" vertex="1" parent="uXOJ_GGudiLRuNJcndU_-253">
          <mxGeometry x="360" y="212.5" width="100" height="100" as="geometry" />
        </mxCell>
        <mxCell id="uXOJ_GGudiLRuNJcndU_-267" value="Display all cars" style="rounded=1;whiteSpace=wrap;html=1;absoluteArcSize=1;arcSize=14;strokeWidth=2;" vertex="1" parent="uXOJ_GGudiLRuNJcndU_-253">
          <mxGeometry x="190" y="597.5" width="100" height="60" as="geometry" />
        </mxCell>
        <mxCell id="uXOJ_GGudiLRuNJcndU_-268" value="Input&lt;div&gt;availability&lt;br&gt;&lt;/div&gt;" style="shape=parallelogram;html=1;strokeWidth=2;perimeter=parallelogramPerimeter;whiteSpace=wrap;rounded=1;arcSize=12;size=0.23;" vertex="1" parent="uXOJ_GGudiLRuNJcndU_-253">
          <mxGeometry x="585" y="623" width="100" height="60" as="geometry" />
        </mxCell>
        <mxCell id="uXOJ_GGudiLRuNJcndU_-269" style="edgeStyle=orthogonalEdgeStyle;rounded=0;orthogonalLoop=1;jettySize=auto;html=1;entryX=0.5;entryY=0;entryDx=0;entryDy=0;" edge="1" parent="uXOJ_GGudiLRuNJcndU_-253" source="uXOJ_GGudiLRuNJcndU_-270" target="uXOJ_GGudiLRuNJcndU_-289">
          <mxGeometry relative="1" as="geometry" />
        </mxCell>
        <mxCell id="uXOJ_GGudiLRuNJcndU_-270" value="availability&amp;nbsp;==&lt;div&gt;true&lt;/div&gt;" style="strokeWidth=2;html=1;shape=mxgraph.flowchart.decision;whiteSpace=wrap;" vertex="1" parent="uXOJ_GGudiLRuNJcndU_-253">
          <mxGeometry x="415" y="743" width="100" height="100" as="geometry" />
        </mxCell>
        <mxCell id="uXOJ_GGudiLRuNJcndU_-271" style="edgeStyle=orthogonalEdgeStyle;rounded=0;orthogonalLoop=1;jettySize=auto;html=1;entryX=0.604;entryY=1.012;entryDx=0;entryDy=0;entryPerimeter=0;" edge="1" parent="uXOJ_GGudiLRuNJcndU_-253" source="uXOJ_GGudiLRuNJcndU_-275" target="uXOJ_GGudiLRuNJcndU_-268">
          <mxGeometry relative="1" as="geometry">
            <Array as="points">
              <mxPoint x="805" y="713" />
              <mxPoint x="645" y="713" />
              <mxPoint x="645" y="684" />
            </Array>
          </mxGeometry>
        </mxCell>
        <mxCell id="uXOJ_GGudiLRuNJcndU_-272" value="false" style="edgeLabel;html=1;align=center;verticalAlign=middle;resizable=0;points=[];" vertex="1" connectable="0" parent="uXOJ_GGudiLRuNJcndU_-271">
          <mxGeometry x="-0.0889" y="-1" relative="1" as="geometry">
            <mxPoint as="offset" />
          </mxGeometry>
        </mxCell>
        <mxCell id="uXOJ_GGudiLRuNJcndU_-273" style="edgeStyle=orthogonalEdgeStyle;rounded=0;orthogonalLoop=1;jettySize=auto;html=1;entryX=1;entryY=0.5;entryDx=0;entryDy=0;" edge="1" parent="uXOJ_GGudiLRuNJcndU_-253" source="uXOJ_GGudiLRuNJcndU_-275" target="uXOJ_GGudiLRuNJcndU_-289">
          <mxGeometry relative="1" as="geometry">
            <Array as="points">
              <mxPoint x="805" y="915" />
            </Array>
          </mxGeometry>
        </mxCell>
        <mxCell id="uXOJ_GGudiLRuNJcndU_-274" value="true" style="edgeLabel;html=1;align=center;verticalAlign=middle;resizable=0;points=[];" vertex="1" connectable="0" parent="uXOJ_GGudiLRuNJcndU_-273">
          <mxGeometry x="-0.7659" y="-1" relative="1" as="geometry">
            <mxPoint as="offset" />
          </mxGeometry>
        </mxCell>
        <mxCell id="uXOJ_GGudiLRuNJcndU_-275" value="availability&lt;div&gt;== any&lt;/div&gt;" style="strokeWidth=2;html=1;shape=mxgraph.flowchart.decision;whiteSpace=wrap;" vertex="1" parent="uXOJ_GGudiLRuNJcndU_-253">
          <mxGeometry x="755" y="743" width="100" height="100" as="geometry" />
        </mxCell>
        <mxCell id="uXOJ_GGudiLRuNJcndU_-276" style="edgeStyle=orthogonalEdgeStyle;rounded=0;orthogonalLoop=1;jettySize=auto;html=1;" edge="1" parent="uXOJ_GGudiLRuNJcndU_-253" source="uXOJ_GGudiLRuNJcndU_-277" target="uXOJ_GGudiLRuNJcndU_-282">
          <mxGeometry relative="1" as="geometry" />
        </mxCell>
        <mxCell id="uXOJ_GGudiLRuNJcndU_-277" value="Input&lt;div&gt;engineCapacity&lt;br&gt;&lt;/div&gt;" style="shape=parallelogram;html=1;strokeWidth=2;perimeter=parallelogramPerimeter;whiteSpace=wrap;rounded=1;arcSize=12;size=0.23;" vertex="1" parent="uXOJ_GGudiLRuNJcndU_-253">
          <mxGeometry x="360" y="358.5" width="100" height="60" as="geometry" />
        </mxCell>
        <mxCell id="uXOJ_GGudiLRuNJcndU_-278" style="edgeStyle=orthogonalEdgeStyle;rounded=0;orthogonalLoop=1;jettySize=auto;html=1;" edge="1" parent="uXOJ_GGudiLRuNJcndU_-253" source="uXOJ_GGudiLRuNJcndU_-282" target="uXOJ_GGudiLRuNJcndU_-286">
          <mxGeometry relative="1" as="geometry" />
        </mxCell>
        <mxCell id="uXOJ_GGudiLRuNJcndU_-279" value="false" style="edgeLabel;html=1;align=center;verticalAlign=middle;resizable=0;points=[];" vertex="1" connectable="0" parent="uXOJ_GGudiLRuNJcndU_-278">
          <mxGeometry x="-0.225" y="-1" relative="1" as="geometry">
            <mxPoint as="offset" />
          </mxGeometry>
        </mxCell>
        <mxCell id="uXOJ_GGudiLRuNJcndU_-280" style="edgeStyle=orthogonalEdgeStyle;rounded=0;orthogonalLoop=1;jettySize=auto;html=1;entryX=0.5;entryY=0;entryDx=0;entryDy=0;" edge="1" parent="uXOJ_GGudiLRuNJcndU_-253" source="uXOJ_GGudiLRuNJcndU_-282" target="uXOJ_GGudiLRuNJcndU_-288">
          <mxGeometry relative="1" as="geometry" />
        </mxCell>
        <mxCell id="uXOJ_GGudiLRuNJcndU_-281" value="true" style="edgeLabel;html=1;align=center;verticalAlign=middle;resizable=0;points=[];" vertex="1" connectable="0" parent="uXOJ_GGudiLRuNJcndU_-280">
          <mxGeometry x="-0.2" y="-2" relative="1" as="geometry">
            <mxPoint as="offset" />
          </mxGeometry>
        </mxCell>
        <mxCell id="uXOJ_GGudiLRuNJcndU_-282" value="&lt;div&gt;engineCapacity == 1000&lt;/div&gt;" style="strokeWidth=2;html=1;shape=mxgraph.flowchart.decision;whiteSpace=wrap;" vertex="1" parent="uXOJ_GGudiLRuNJcndU_-253">
          <mxGeometry x="360" y="458.5" width="100" height="100" as="geometry" />
        </mxCell>
        <mxCell id="uXOJ_GGudiLRuNJcndU_-283" style="edgeStyle=orthogonalEdgeStyle;rounded=0;orthogonalLoop=1;jettySize=auto;html=1;" edge="1" parent="uXOJ_GGudiLRuNJcndU_-253" source="uXOJ_GGudiLRuNJcndU_-286" target="uXOJ_GGudiLRuNJcndU_-287">
          <mxGeometry relative="1" as="geometry" />
        </mxCell>
        <mxCell id="uXOJ_GGudiLRuNJcndU_-284" value="false" style="edgeLabel;html=1;align=center;verticalAlign=middle;resizable=0;points=[];" vertex="1" connectable="0" parent="uXOJ_GGudiLRuNJcndU_-283">
          <mxGeometry x="0.225" relative="1" as="geometry">
            <mxPoint as="offset" />
          </mxGeometry>
        </mxCell>
        <mxCell id="uXOJ_GGudiLRuNJcndU_-285" style="edgeStyle=orthogonalEdgeStyle;rounded=0;orthogonalLoop=1;jettySize=auto;html=1;entryX=1;entryY=0.25;entryDx=0;entryDy=0;" edge="1" parent="uXOJ_GGudiLRuNJcndU_-253" source="uXOJ_GGudiLRuNJcndU_-286" target="uXOJ_GGudiLRuNJcndU_-288">
          <mxGeometry relative="1" as="geometry">
            <Array as="points">
              <mxPoint x="565" y="614" />
            </Array>
          </mxGeometry>
        </mxCell>
        <mxCell id="uXOJ_GGudiLRuNJcndU_-286" value="&lt;div&gt;engineCapacity == 1500&lt;/div&gt;" style="strokeWidth=2;html=1;shape=mxgraph.flowchart.decision;whiteSpace=wrap;" vertex="1" parent="uXOJ_GGudiLRuNJcndU_-253">
          <mxGeometry x="515" y="459.5" width="100" height="100" as="geometry" />
        </mxCell>
        <mxCell id="uXOJ_GGudiLRuNJcndU_-287" value="&lt;div&gt;engineCapacity == 2000&lt;/div&gt;" style="strokeWidth=2;html=1;shape=mxgraph.flowchart.decision;whiteSpace=wrap;" vertex="1" parent="uXOJ_GGudiLRuNJcndU_-253">
          <mxGeometry x="665" y="459.5" width="100" height="100" as="geometry" />
        </mxCell>
        <mxCell id="uXOJ_GGudiLRuNJcndU_-288" value="filteredList =&amp;nbsp; access carDictionary with engineCapacity" style="rounded=1;whiteSpace=wrap;html=1;absoluteArcSize=1;arcSize=14;strokeWidth=2;" vertex="1" parent="uXOJ_GGudiLRuNJcndU_-253">
          <mxGeometry x="360" y="598.5" width="100" height="60" as="geometry" />
        </mxCell>
        <mxCell id="uXOJ_GGudiLRuNJcndU_-289" value="Input&lt;div&gt;carBrand&lt;/div&gt;" style="shape=parallelogram;html=1;strokeWidth=2;perimeter=parallelogramPerimeter;whiteSpace=wrap;rounded=1;arcSize=12;size=0.23;" vertex="1" parent="uXOJ_GGudiLRuNJcndU_-253">
          <mxGeometry x="495" y="885" width="100" height="60" as="geometry" />
        </mxCell>
        <mxCell id="uXOJ_GGudiLRuNJcndU_-290" style="edgeStyle=orthogonalEdgeStyle;rounded=0;orthogonalLoop=1;jettySize=auto;html=1;entryX=1;entryY=0.5;entryDx=0;entryDy=0;" edge="1" parent="uXOJ_GGudiLRuNJcndU_-253" source="uXOJ_GGudiLRuNJcndU_-294" target="uXOJ_GGudiLRuNJcndU_-295">
          <mxGeometry relative="1" as="geometry">
            <Array as="points">
              <mxPoint x="625" y="1204" />
            </Array>
          </mxGeometry>
        </mxCell>
        <mxCell id="uXOJ_GGudiLRuNJcndU_-291" value="true" style="edgeLabel;html=1;align=center;verticalAlign=middle;resizable=0;points=[];" vertex="1" connectable="0" parent="uXOJ_GGudiLRuNJcndU_-290">
          <mxGeometry x="-0.498" y="-5" relative="1" as="geometry">
            <mxPoint as="offset" />
          </mxGeometry>
        </mxCell>
        <mxCell id="uXOJ_GGudiLRuNJcndU_-292" style="edgeStyle=orthogonalEdgeStyle;rounded=0;orthogonalLoop=1;jettySize=auto;html=1;entryX=0.5;entryY=1;entryDx=0;entryDy=0;" edge="1" parent="uXOJ_GGudiLRuNJcndU_-253" source="uXOJ_GGudiLRuNJcndU_-294" target="uXOJ_GGudiLRuNJcndU_-289">
          <mxGeometry relative="1" as="geometry" />
        </mxCell>
        <mxCell id="uXOJ_GGudiLRuNJcndU_-293" value="false" style="edgeLabel;html=1;align=center;verticalAlign=middle;resizable=0;points=[];" vertex="1" connectable="0" parent="uXOJ_GGudiLRuNJcndU_-292">
          <mxGeometry x="-0.2091" relative="1" as="geometry">
            <mxPoint as="offset" />
          </mxGeometry>
        </mxCell>
        <mxCell id="uXOJ_GGudiLRuNJcndU_-294" value="carBrand&lt;div&gt;does exist in the filtered list&lt;/div&gt;" style="strokeWidth=2;html=1;shape=mxgraph.flowchart.decision;whiteSpace=wrap;" vertex="1" parent="uXOJ_GGudiLRuNJcndU_-253">
          <mxGeometry x="575" y="1030" width="100" height="100" as="geometry" />
        </mxCell>
        <mxCell id="uXOJ_GGudiLRuNJcndU_-295" value="update filteredList&lt;div&gt;based on availability, carBrand&lt;/div&gt;" style="rounded=1;whiteSpace=wrap;html=1;absoluteArcSize=1;arcSize=14;strokeWidth=2;" vertex="1" parent="uXOJ_GGudiLRuNJcndU_-253">
          <mxGeometry x="415" y="1174" width="100" height="60" as="geometry" />
        </mxCell>
        <mxCell id="uXOJ_GGudiLRuNJcndU_-296" value="Admin Menu - Display Cars" style="text;html=1;align=right;verticalAlign=middle;whiteSpace=wrap;rounded=0;fontSize=16;fontStyle=1" vertex="1" parent="uXOJ_GGudiLRuNJcndU_-253">
          <mxGeometry x="655" y="15" width="260" height="30" as="geometry" />
        </mxCell>
        <mxCell id="uXOJ_GGudiLRuNJcndU_-297" value="A" style="strokeWidth=2;html=1;shape=mxgraph.flowchart.start_2;whiteSpace=wrap;" vertex="1" parent="uXOJ_GGudiLRuNJcndU_-253">
          <mxGeometry x="210" y="707.5" width="60" height="60" as="geometry" />
        </mxCell>
        <mxCell id="uXOJ_GGudiLRuNJcndU_-298" style="edgeStyle=orthogonalEdgeStyle;rounded=0;orthogonalLoop=1;jettySize=auto;html=1;entryX=0.5;entryY=0;entryDx=0;entryDy=0;entryPerimeter=0;" edge="1" parent="uXOJ_GGudiLRuNJcndU_-253" source="uXOJ_GGudiLRuNJcndU_-267" target="uXOJ_GGudiLRuNJcndU_-297">
          <mxGeometry relative="1" as="geometry" />
        </mxCell>
        <mxCell id="uXOJ_GGudiLRuNJcndU_-299" value="Input&lt;div&gt;isSort&lt;/div&gt;" style="shape=parallelogram;html=1;strokeWidth=2;perimeter=parallelogramPerimeter;whiteSpace=wrap;rounded=1;arcSize=12;size=0.23;" vertex="1" parent="uXOJ_GGudiLRuNJcndU_-253">
          <mxGeometry x="190" y="353.5" width="100" height="60" as="geometry" />
        </mxCell>
        <mxCell id="uXOJ_GGudiLRuNJcndU_-300" style="edgeStyle=orthogonalEdgeStyle;rounded=0;orthogonalLoop=1;jettySize=auto;html=1;entryX=0.5;entryY=0;entryDx=0;entryDy=0;" edge="1" parent="uXOJ_GGudiLRuNJcndU_-253" source="uXOJ_GGudiLRuNJcndU_-302" target="uXOJ_GGudiLRuNJcndU_-267">
          <mxGeometry relative="1" as="geometry" />
        </mxCell>
        <mxCell id="uXOJ_GGudiLRuNJcndU_-301" value="true" style="edgeLabel;html=1;align=center;verticalAlign=middle;resizable=0;points=[];" vertex="1" connectable="0" parent="uXOJ_GGudiLRuNJcndU_-300">
          <mxGeometry x="-0.3295" y="-2" relative="1" as="geometry">
            <mxPoint as="offset" />
          </mxGeometry>
        </mxCell>
        <mxCell id="uXOJ_GGudiLRuNJcndU_-302" value="isSort ==&lt;div&gt;&quot;no&quot;&lt;/div&gt;" style="strokeWidth=2;html=1;shape=mxgraph.flowchart.decision;whiteSpace=wrap;" vertex="1" parent="uXOJ_GGudiLRuNJcndU_-253">
          <mxGeometry x="190" y="453.5" width="100" height="100" as="geometry" />
        </mxCell>
        <mxCell id="uXOJ_GGudiLRuNJcndU_-303" style="edgeStyle=orthogonalEdgeStyle;rounded=0;orthogonalLoop=1;jettySize=auto;html=1;entryX=0.5;entryY=0;entryDx=0;entryDy=0;entryPerimeter=0;" edge="1" parent="uXOJ_GGudiLRuNJcndU_-253" source="uXOJ_GGudiLRuNJcndU_-299" target="uXOJ_GGudiLRuNJcndU_-302">
          <mxGeometry relative="1" as="geometry" />
        </mxCell>
        <mxCell id="uXOJ_GGudiLRuNJcndU_-304" style="edgeStyle=orthogonalEdgeStyle;rounded=0;orthogonalLoop=1;jettySize=auto;html=1;entryX=1;entryY=0.5;entryDx=0;entryDy=0;" edge="1" parent="uXOJ_GGudiLRuNJcndU_-253" source="uXOJ_GGudiLRuNJcndU_-308" target="uXOJ_GGudiLRuNJcndU_-277">
          <mxGeometry relative="1" as="geometry">
            <Array as="points">
              <mxPoint x="865" y="388.5" />
            </Array>
          </mxGeometry>
        </mxCell>
        <mxCell id="uXOJ_GGudiLRuNJcndU_-305" value="false" style="edgeLabel;html=1;align=center;verticalAlign=middle;resizable=0;points=[];" vertex="1" connectable="0" parent="uXOJ_GGudiLRuNJcndU_-304">
          <mxGeometry x="0.4564" relative="1" as="geometry">
            <mxPoint as="offset" />
          </mxGeometry>
        </mxCell>
        <mxCell id="uXOJ_GGudiLRuNJcndU_-306" style="edgeStyle=orthogonalEdgeStyle;rounded=0;orthogonalLoop=1;jettySize=auto;html=1;entryX=0.5;entryY=0;entryDx=0;entryDy=0;" edge="1" parent="uXOJ_GGudiLRuNJcndU_-253" source="uXOJ_GGudiLRuNJcndU_-308" target="uXOJ_GGudiLRuNJcndU_-311">
          <mxGeometry relative="1" as="geometry" />
        </mxCell>
        <mxCell id="uXOJ_GGudiLRuNJcndU_-307" value="true" style="edgeLabel;html=1;align=center;verticalAlign=middle;resizable=0;points=[];" vertex="1" connectable="0" parent="uXOJ_GGudiLRuNJcndU_-306">
          <mxGeometry x="-0.1486" y="1" relative="1" as="geometry">
            <mxPoint as="offset" />
          </mxGeometry>
        </mxCell>
        <mxCell id="uXOJ_GGudiLRuNJcndU_-308" value="&lt;div&gt;engineCapacity == &quot;any&quot;&lt;/div&gt;" style="strokeWidth=2;html=1;shape=mxgraph.flowchart.decision;whiteSpace=wrap;" vertex="1" parent="uXOJ_GGudiLRuNJcndU_-253">
          <mxGeometry x="815" y="459.5" width="100" height="100" as="geometry" />
        </mxCell>
        <mxCell id="uXOJ_GGudiLRuNJcndU_-309" style="edgeStyle=orthogonalEdgeStyle;rounded=0;orthogonalLoop=1;jettySize=auto;html=1;entryX=0;entryY=0.5;entryDx=0;entryDy=0;entryPerimeter=0;" edge="1" parent="uXOJ_GGudiLRuNJcndU_-253" source="uXOJ_GGudiLRuNJcndU_-287" target="uXOJ_GGudiLRuNJcndU_-308">
          <mxGeometry relative="1" as="geometry" />
        </mxCell>
        <mxCell id="uXOJ_GGudiLRuNJcndU_-310" value="false" style="edgeLabel;html=1;align=center;verticalAlign=middle;resizable=0;points=[];" vertex="1" connectable="0" parent="uXOJ_GGudiLRuNJcndU_-309">
          <mxGeometry x="-0.3922" relative="1" as="geometry">
            <mxPoint as="offset" />
          </mxGeometry>
        </mxCell>
        <mxCell id="uXOJ_GGudiLRuNJcndU_-311" value="filteredList = extend with all engineCapacity from carDictionary" style="rounded=1;whiteSpace=wrap;html=1;absoluteArcSize=1;arcSize=14;strokeWidth=2;" vertex="1" parent="uXOJ_GGudiLRuNJcndU_-253">
          <mxGeometry x="815" y="598.5" width="100" height="60" as="geometry" />
        </mxCell>
        <mxCell id="uXOJ_GGudiLRuNJcndU_-312" style="edgeStyle=orthogonalEdgeStyle;rounded=0;orthogonalLoop=1;jettySize=auto;html=1;entryX=0.5;entryY=0;entryDx=0;entryDy=0;" edge="1" parent="uXOJ_GGudiLRuNJcndU_-253" source="uXOJ_GGudiLRuNJcndU_-314" target="uXOJ_GGudiLRuNJcndU_-289">
          <mxGeometry relative="1" as="geometry" />
        </mxCell>
        <mxCell id="uXOJ_GGudiLRuNJcndU_-313" value="true" style="edgeLabel;html=1;align=center;verticalAlign=middle;resizable=0;points=[];" vertex="1" connectable="0" parent="uXOJ_GGudiLRuNJcndU_-312">
          <mxGeometry x="0.6818" y="-2" relative="1" as="geometry">
            <mxPoint x="1" y="-2" as="offset" />
          </mxGeometry>
        </mxCell>
        <mxCell id="uXOJ_GGudiLRuNJcndU_-314" value="availability&amp;nbsp;== false" style="strokeWidth=2;html=1;shape=mxgraph.flowchart.decision;whiteSpace=wrap;" vertex="1" parent="uXOJ_GGudiLRuNJcndU_-253">
          <mxGeometry x="585" y="743" width="100" height="100" as="geometry" />
        </mxCell>
        <mxCell id="uXOJ_GGudiLRuNJcndU_-315" style="edgeStyle=orthogonalEdgeStyle;rounded=0;orthogonalLoop=1;jettySize=auto;html=1;entryX=0.5;entryY=0;entryDx=0;entryDy=0;entryPerimeter=0;" edge="1" parent="uXOJ_GGudiLRuNJcndU_-253" target="uXOJ_GGudiLRuNJcndU_-270">
          <mxGeometry relative="1" as="geometry">
            <mxPoint x="605" y="683" as="sourcePoint" />
            <mxPoint x="435" y="753" as="targetPoint" />
            <Array as="points">
              <mxPoint x="615" y="683" />
              <mxPoint x="615" y="713" />
              <mxPoint x="465" y="713" />
            </Array>
          </mxGeometry>
        </mxCell>
        <mxCell id="uXOJ_GGudiLRuNJcndU_-316" style="edgeStyle=orthogonalEdgeStyle;rounded=0;orthogonalLoop=1;jettySize=auto;html=1;entryX=0.033;entryY=0.501;entryDx=0;entryDy=0;entryPerimeter=0;" edge="1" parent="uXOJ_GGudiLRuNJcndU_-253" source="uXOJ_GGudiLRuNJcndU_-270" target="uXOJ_GGudiLRuNJcndU_-314">
          <mxGeometry relative="1" as="geometry" />
        </mxCell>
        <mxCell id="uXOJ_GGudiLRuNJcndU_-317" value="false" style="edgeLabel;html=1;align=center;verticalAlign=middle;resizable=0;points=[];" vertex="1" connectable="0" parent="uXOJ_GGudiLRuNJcndU_-316">
          <mxGeometry x="-0.782" y="2" relative="1" as="geometry">
            <mxPoint x="22" y="2" as="offset" />
          </mxGeometry>
        </mxCell>
        <mxCell id="uXOJ_GGudiLRuNJcndU_-318" style="edgeStyle=orthogonalEdgeStyle;rounded=0;orthogonalLoop=1;jettySize=auto;html=1;entryX=0;entryY=0.5;entryDx=0;entryDy=0;entryPerimeter=0;" edge="1" parent="uXOJ_GGudiLRuNJcndU_-253" source="uXOJ_GGudiLRuNJcndU_-314" target="uXOJ_GGudiLRuNJcndU_-275">
          <mxGeometry relative="1" as="geometry" />
        </mxCell>
        <mxCell id="uXOJ_GGudiLRuNJcndU_-319" value="false" style="edgeLabel;html=1;align=center;verticalAlign=middle;resizable=0;points=[];" vertex="1" connectable="0" parent="uXOJ_GGudiLRuNJcndU_-318">
          <mxGeometry x="-0.1302" y="2" relative="1" as="geometry">
            <mxPoint as="offset" />
          </mxGeometry>
        </mxCell>
        <mxCell id="uXOJ_GGudiLRuNJcndU_-320" style="edgeStyle=orthogonalEdgeStyle;rounded=0;orthogonalLoop=1;jettySize=auto;html=1;entryX=0.5;entryY=0;entryDx=0;entryDy=0;" edge="1" parent="uXOJ_GGudiLRuNJcndU_-253" source="uXOJ_GGudiLRuNJcndU_-322" target="uXOJ_GGudiLRuNJcndU_-295">
          <mxGeometry relative="1" as="geometry" />
        </mxCell>
        <mxCell id="uXOJ_GGudiLRuNJcndU_-321" value="true" style="edgeLabel;html=1;align=center;verticalAlign=middle;resizable=0;points=[];" vertex="1" connectable="0" parent="uXOJ_GGudiLRuNJcndU_-320">
          <mxGeometry x="-0.1061" relative="1" as="geometry">
            <mxPoint as="offset" />
          </mxGeometry>
        </mxCell>
        <mxCell id="uXOJ_GGudiLRuNJcndU_-322" value="carBrand ==&lt;div&gt;any&lt;/div&gt;" style="strokeWidth=2;html=1;shape=mxgraph.flowchart.decision;whiteSpace=wrap;" vertex="1" parent="uXOJ_GGudiLRuNJcndU_-253">
          <mxGeometry x="415" y="1030" width="100" height="100" as="geometry" />
        </mxCell>
        <mxCell id="uXOJ_GGudiLRuNJcndU_-323" style="edgeStyle=orthogonalEdgeStyle;rounded=0;orthogonalLoop=1;jettySize=auto;html=1;entryX=0.5;entryY=0;entryDx=0;entryDy=0;entryPerimeter=0;exitX=0.25;exitY=1;exitDx=0;exitDy=0;" edge="1" parent="uXOJ_GGudiLRuNJcndU_-253" source="uXOJ_GGudiLRuNJcndU_-289" target="uXOJ_GGudiLRuNJcndU_-322">
          <mxGeometry relative="1" as="geometry">
            <Array as="points">
              <mxPoint x="520" y="990" />
              <mxPoint x="465" y="990" />
            </Array>
          </mxGeometry>
        </mxCell>
        <mxCell id="uXOJ_GGudiLRuNJcndU_-324" style="edgeStyle=orthogonalEdgeStyle;rounded=0;orthogonalLoop=1;jettySize=auto;html=1;entryX=0;entryY=0.5;entryDx=0;entryDy=0;entryPerimeter=0;" edge="1" parent="uXOJ_GGudiLRuNJcndU_-253" source="uXOJ_GGudiLRuNJcndU_-322" target="uXOJ_GGudiLRuNJcndU_-294">
          <mxGeometry relative="1" as="geometry" />
        </mxCell>
        <mxCell id="uXOJ_GGudiLRuNJcndU_-325" value="false" style="edgeLabel;html=1;align=center;verticalAlign=middle;resizable=0;points=[];" vertex="1" connectable="0" parent="uXOJ_GGudiLRuNJcndU_-324">
          <mxGeometry x="-0.573" y="1" relative="1" as="geometry">
            <mxPoint x="7" y="1" as="offset" />
          </mxGeometry>
        </mxCell>
        <mxCell id="uXOJ_GGudiLRuNJcndU_-326" style="edgeStyle=orthogonalEdgeStyle;rounded=0;orthogonalLoop=1;jettySize=auto;html=1;entryX=0;entryY=0.5;entryDx=0;entryDy=0;entryPerimeter=0;" edge="1" parent="uXOJ_GGudiLRuNJcndU_-253" source="uXOJ_GGudiLRuNJcndU_-263" target="uXOJ_GGudiLRuNJcndU_-266">
          <mxGeometry relative="1" as="geometry" />
        </mxCell>
        <mxCell id="uXOJ_GGudiLRuNJcndU_-327" value="false" style="edgeLabel;html=1;align=center;verticalAlign=middle;resizable=0;points=[];" vertex="1" connectable="0" parent="uXOJ_GGudiLRuNJcndU_-326">
          <mxGeometry x="0.0808" y="1" relative="1" as="geometry">
            <mxPoint as="offset" />
          </mxGeometry>
        </mxCell>
        <mxCell id="uXOJ_GGudiLRuNJcndU_-328" style="edgeStyle=orthogonalEdgeStyle;rounded=0;orthogonalLoop=1;jettySize=auto;html=1;entryX=0;entryY=0.5;entryDx=0;entryDy=0;exitX=0.5;exitY=0;exitDx=0;exitDy=0;exitPerimeter=0;" edge="1" parent="uXOJ_GGudiLRuNJcndU_-253" source="uXOJ_GGudiLRuNJcndU_-332" target="uXOJ_GGudiLRuNJcndU_-299">
          <mxGeometry relative="1" as="geometry">
            <Array as="points">
              <mxPoint x="90" y="382.5" />
              <mxPoint x="202" y="382.5" />
            </Array>
          </mxGeometry>
        </mxCell>
        <mxCell id="uXOJ_GGudiLRuNJcndU_-329" value="false" style="edgeLabel;html=1;align=center;verticalAlign=middle;resizable=0;points=[];" vertex="1" connectable="0" parent="uXOJ_GGudiLRuNJcndU_-328">
          <mxGeometry x="-0.6707" relative="1" as="geometry">
            <mxPoint as="offset" />
          </mxGeometry>
        </mxCell>
        <mxCell id="uXOJ_GGudiLRuNJcndU_-330" style="edgeStyle=orthogonalEdgeStyle;rounded=0;orthogonalLoop=1;jettySize=auto;html=1;entryX=0.5;entryY=0;entryDx=0;entryDy=0;" edge="1" parent="uXOJ_GGudiLRuNJcndU_-253" source="uXOJ_GGudiLRuNJcndU_-332" target="uXOJ_GGudiLRuNJcndU_-336">
          <mxGeometry relative="1" as="geometry" />
        </mxCell>
        <mxCell id="uXOJ_GGudiLRuNJcndU_-331" value="true" style="edgeLabel;html=1;align=center;verticalAlign=middle;resizable=0;points=[];" vertex="1" connectable="0" parent="uXOJ_GGudiLRuNJcndU_-330">
          <mxGeometry x="-0.1545" y="-1" relative="1" as="geometry">
            <mxPoint as="offset" />
          </mxGeometry>
        </mxCell>
        <mxCell id="uXOJ_GGudiLRuNJcndU_-332" value="isSort ==&lt;div&gt;&quot;yes&quot;&lt;/div&gt;" style="strokeWidth=2;html=1;shape=mxgraph.flowchart.decision;whiteSpace=wrap;" vertex="1" parent="uXOJ_GGudiLRuNJcndU_-253">
          <mxGeometry x="40" y="453.5" width="100" height="100" as="geometry" />
        </mxCell>
        <mxCell id="uXOJ_GGudiLRuNJcndU_-333" style="edgeStyle=orthogonalEdgeStyle;rounded=0;orthogonalLoop=1;jettySize=auto;html=1;entryX=1;entryY=0.5;entryDx=0;entryDy=0;entryPerimeter=0;" edge="1" parent="uXOJ_GGudiLRuNJcndU_-253" source="uXOJ_GGudiLRuNJcndU_-302" target="uXOJ_GGudiLRuNJcndU_-332">
          <mxGeometry relative="1" as="geometry" />
        </mxCell>
        <mxCell id="uXOJ_GGudiLRuNJcndU_-334" value="false" style="edgeLabel;html=1;align=center;verticalAlign=middle;resizable=0;points=[];" vertex="1" connectable="0" parent="uXOJ_GGudiLRuNJcndU_-333">
          <mxGeometry x="0.2988" y="-2" relative="1" as="geometry">
            <mxPoint x="12" y="2" as="offset" />
          </mxGeometry>
        </mxCell>
        <mxCell id="uXOJ_GGudiLRuNJcndU_-335" style="edgeStyle=orthogonalEdgeStyle;rounded=0;orthogonalLoop=1;jettySize=auto;html=1;entryX=0.5;entryY=0;entryDx=0;entryDy=0;" edge="1" parent="uXOJ_GGudiLRuNJcndU_-253" source="uXOJ_GGudiLRuNJcndU_-336" target="uXOJ_GGudiLRuNJcndU_-337">
          <mxGeometry relative="1" as="geometry" />
        </mxCell>
        <mxCell id="uXOJ_GGudiLRuNJcndU_-336" value="Display sortByKey" style="rounded=1;whiteSpace=wrap;html=1;absoluteArcSize=1;arcSize=14;strokeWidth=2;" vertex="1" parent="uXOJ_GGudiLRuNJcndU_-253">
          <mxGeometry x="40" y="597.5" width="100" height="60" as="geometry" />
        </mxCell>
        <mxCell id="uXOJ_GGudiLRuNJcndU_-337" value="Input&lt;div&gt;sortByKey&lt;br&gt;&lt;/div&gt;" style="shape=parallelogram;html=1;strokeWidth=2;perimeter=parallelogramPerimeter;whiteSpace=wrap;rounded=1;arcSize=12;size=0.23;" vertex="1" parent="uXOJ_GGudiLRuNJcndU_-253">
          <mxGeometry x="40" y="697.5" width="100" height="60" as="geometry" />
        </mxCell>
        <mxCell id="uXOJ_GGudiLRuNJcndU_-338" style="edgeStyle=orthogonalEdgeStyle;rounded=0;orthogonalLoop=1;jettySize=auto;html=1;" edge="1" parent="uXOJ_GGudiLRuNJcndU_-253" source="uXOJ_GGudiLRuNJcndU_-341" target="uXOJ_GGudiLRuNJcndU_-353">
          <mxGeometry relative="1" as="geometry" />
        </mxCell>
        <mxCell id="uXOJ_GGudiLRuNJcndU_-339" style="edgeStyle=orthogonalEdgeStyle;rounded=0;orthogonalLoop=1;jettySize=auto;html=1;entryX=0;entryY=0.5;entryDx=0;entryDy=0;" edge="1" parent="uXOJ_GGudiLRuNJcndU_-253" source="uXOJ_GGudiLRuNJcndU_-341" target="uXOJ_GGudiLRuNJcndU_-337">
          <mxGeometry relative="1" as="geometry">
            <Array as="points">
              <mxPoint x="240" y="1290" />
              <mxPoint x="10" y="1290" />
              <mxPoint x="10" y="728" />
            </Array>
          </mxGeometry>
        </mxCell>
        <mxCell id="uXOJ_GGudiLRuNJcndU_-340" value="false" style="edgeLabel;html=1;align=center;verticalAlign=middle;resizable=0;points=[];" vertex="1" connectable="0" parent="uXOJ_GGudiLRuNJcndU_-339">
          <mxGeometry x="-0.762" y="1" relative="1" as="geometry">
            <mxPoint as="offset" />
          </mxGeometry>
        </mxCell>
        <mxCell id="uXOJ_GGudiLRuNJcndU_-341" value="sortByKey&lt;br&gt;&lt;div&gt;== totalpassenger&lt;/div&gt;" style="strokeWidth=2;html=1;shape=mxgraph.flowchart.decision;whiteSpace=wrap;" vertex="1" parent="uXOJ_GGudiLRuNJcndU_-253">
          <mxGeometry x="190" y="1180" width="100" height="100" as="geometry" />
        </mxCell>
        <mxCell id="uXOJ_GGudiLRuNJcndU_-342" style="edgeStyle=orthogonalEdgeStyle;rounded=0;orthogonalLoop=1;jettySize=auto;html=1;entryX=0.5;entryY=1;entryDx=0;entryDy=0;exitX=0.654;exitY=0.159;exitDx=0;exitDy=0;exitPerimeter=0;" edge="1" parent="uXOJ_GGudiLRuNJcndU_-253" source="uXOJ_GGudiLRuNJcndU_-343" target="uXOJ_GGudiLRuNJcndU_-353">
          <mxGeometry relative="1" as="geometry">
            <Array as="points">
              <mxPoint x="170" y="1196" />
              <mxPoint x="170" y="1160" />
              <mxPoint x="240" y="1160" />
            </Array>
          </mxGeometry>
        </mxCell>
        <mxCell id="uXOJ_GGudiLRuNJcndU_-343" value="sortByKey&lt;br&gt;== rentalprice" style="strokeWidth=2;html=1;shape=mxgraph.flowchart.decision;whiteSpace=wrap;" vertex="1" parent="uXOJ_GGudiLRuNJcndU_-253">
          <mxGeometry x="40" y="1180" width="100" height="100" as="geometry" />
        </mxCell>
        <mxCell id="uXOJ_GGudiLRuNJcndU_-344" style="edgeStyle=orthogonalEdgeStyle;rounded=0;orthogonalLoop=1;jettySize=auto;html=1;entryX=0.5;entryY=1;entryDx=0;entryDy=0;" edge="1" parent="uXOJ_GGudiLRuNJcndU_-253" source="uXOJ_GGudiLRuNJcndU_-346" target="uXOJ_GGudiLRuNJcndU_-353">
          <mxGeometry relative="1" as="geometry">
            <Array as="points">
              <mxPoint x="240" y="1100" />
            </Array>
          </mxGeometry>
        </mxCell>
        <mxCell id="uXOJ_GGudiLRuNJcndU_-345" value="true" style="edgeLabel;html=1;align=center;verticalAlign=middle;resizable=0;points=[];" vertex="1" connectable="0" parent="uXOJ_GGudiLRuNJcndU_-344">
          <mxGeometry x="0.0548" y="-2" relative="1" as="geometry">
            <mxPoint as="offset" />
          </mxGeometry>
        </mxCell>
        <mxCell id="uXOJ_GGudiLRuNJcndU_-346" value="&lt;div&gt;sortByKey&lt;/div&gt;&lt;div&gt;== carbrand&lt;/div&gt;" style="strokeWidth=2;html=1;shape=mxgraph.flowchart.decision;whiteSpace=wrap;" vertex="1" parent="uXOJ_GGudiLRuNJcndU_-253">
          <mxGeometry x="40" y="1050" width="100" height="100" as="geometry" />
        </mxCell>
        <mxCell id="uXOJ_GGudiLRuNJcndU_-347" style="edgeStyle=orthogonalEdgeStyle;rounded=0;orthogonalLoop=1;jettySize=auto;html=1;entryX=0.5;entryY=1;entryDx=0;entryDy=0;" edge="1" parent="uXOJ_GGudiLRuNJcndU_-253" source="uXOJ_GGudiLRuNJcndU_-348" target="uXOJ_GGudiLRuNJcndU_-353">
          <mxGeometry relative="1" as="geometry">
            <Array as="points">
              <mxPoint x="240" y="970" />
            </Array>
          </mxGeometry>
        </mxCell>
        <mxCell id="uXOJ_GGudiLRuNJcndU_-348" value="&lt;div&gt;sortByKey&lt;/div&gt;&lt;div&gt;&lt;span style=&quot;background-color: initial;&quot;&gt;== carname&lt;/span&gt;&lt;/div&gt;" style="strokeWidth=2;html=1;shape=mxgraph.flowchart.decision;whiteSpace=wrap;" vertex="1" parent="uXOJ_GGudiLRuNJcndU_-253">
          <mxGeometry x="40" y="920" width="100" height="100" as="geometry" />
        </mxCell>
        <mxCell id="uXOJ_GGudiLRuNJcndU_-349" style="edgeStyle=orthogonalEdgeStyle;rounded=0;orthogonalLoop=1;jettySize=auto;html=1;entryX=0;entryY=0.5;entryDx=0;entryDy=0;" edge="1" parent="uXOJ_GGudiLRuNJcndU_-253" source="uXOJ_GGudiLRuNJcndU_-351" target="uXOJ_GGudiLRuNJcndU_-353">
          <mxGeometry relative="1" as="geometry" />
        </mxCell>
        <mxCell id="uXOJ_GGudiLRuNJcndU_-350" value="true" style="edgeLabel;html=1;align=center;verticalAlign=middle;resizable=0;points=[];" vertex="1" connectable="0" parent="uXOJ_GGudiLRuNJcndU_-349">
          <mxGeometry x="-0.2214" y="1" relative="1" as="geometry">
            <mxPoint as="offset" />
          </mxGeometry>
        </mxCell>
        <mxCell id="uXOJ_GGudiLRuNJcndU_-351" value="&lt;div&gt;sortByKey&lt;/div&gt;&lt;div&gt;== carid&lt;/div&gt;" style="strokeWidth=2;html=1;shape=mxgraph.flowchart.decision;whiteSpace=wrap;" vertex="1" parent="uXOJ_GGudiLRuNJcndU_-253">
          <mxGeometry x="40" y="792.5" width="100" height="100" as="geometry" />
        </mxCell>
        <mxCell id="uXOJ_GGudiLRuNJcndU_-352" style="edgeStyle=orthogonalEdgeStyle;rounded=0;orthogonalLoop=1;jettySize=auto;html=1;entryX=0.5;entryY=0;entryDx=0;entryDy=0;entryPerimeter=0;" edge="1" parent="uXOJ_GGudiLRuNJcndU_-253" source="uXOJ_GGudiLRuNJcndU_-337" target="uXOJ_GGudiLRuNJcndU_-351">
          <mxGeometry relative="1" as="geometry" />
        </mxCell>
        <mxCell id="uXOJ_GGudiLRuNJcndU_-353" value="Display sortedCar&lt;div&gt;based on sortByKey&lt;/div&gt;" style="rounded=1;whiteSpace=wrap;html=1;absoluteArcSize=1;arcSize=14;strokeWidth=2;" vertex="1" parent="uXOJ_GGudiLRuNJcndU_-253">
          <mxGeometry x="190" y="812.5" width="100" height="60" as="geometry" />
        </mxCell>
        <mxCell id="uXOJ_GGudiLRuNJcndU_-354" style="edgeStyle=orthogonalEdgeStyle;rounded=0;orthogonalLoop=1;jettySize=auto;html=1;entryX=0.5;entryY=1;entryDx=0;entryDy=0;entryPerimeter=0;" edge="1" parent="uXOJ_GGudiLRuNJcndU_-253" source="uXOJ_GGudiLRuNJcndU_-353" target="uXOJ_GGudiLRuNJcndU_-297">
          <mxGeometry relative="1" as="geometry" />
        </mxCell>
        <mxCell id="uXOJ_GGudiLRuNJcndU_-355" style="edgeStyle=orthogonalEdgeStyle;rounded=0;orthogonalLoop=1;jettySize=auto;html=1;exitX=1;exitY=0.75;exitDx=0;exitDy=0;entryX=0;entryY=0.25;entryDx=0;entryDy=0;" edge="1" parent="uXOJ_GGudiLRuNJcndU_-253" source="uXOJ_GGudiLRuNJcndU_-288" target="uXOJ_GGudiLRuNJcndU_-268">
          <mxGeometry relative="1" as="geometry" />
        </mxCell>
        <mxCell id="uXOJ_GGudiLRuNJcndU_-356" style="edgeStyle=orthogonalEdgeStyle;rounded=0;orthogonalLoop=1;jettySize=auto;html=1;exitX=0;exitY=0.75;exitDx=0;exitDy=0;entryX=0.922;entryY=0.328;entryDx=0;entryDy=0;entryPerimeter=0;" edge="1" parent="uXOJ_GGudiLRuNJcndU_-253" source="uXOJ_GGudiLRuNJcndU_-311" target="uXOJ_GGudiLRuNJcndU_-268">
          <mxGeometry relative="1" as="geometry" />
        </mxCell>
        <mxCell id="uXOJ_GGudiLRuNJcndU_-357" style="edgeStyle=orthogonalEdgeStyle;rounded=0;orthogonalLoop=1;jettySize=auto;html=1;entryX=0.5;entryY=0;entryDx=0;entryDy=0;entryPerimeter=0;" edge="1" parent="uXOJ_GGudiLRuNJcndU_-253" source="uXOJ_GGudiLRuNJcndU_-351" target="uXOJ_GGudiLRuNJcndU_-348">
          <mxGeometry relative="1" as="geometry" />
        </mxCell>
        <mxCell id="uXOJ_GGudiLRuNJcndU_-358" value="false" style="edgeLabel;html=1;align=center;verticalAlign=middle;resizable=0;points=[];" vertex="1" connectable="0" parent="uXOJ_GGudiLRuNJcndU_-357">
          <mxGeometry x="0.145" y="1" relative="1" as="geometry">
            <mxPoint as="offset" />
          </mxGeometry>
        </mxCell>
        <mxCell id="uXOJ_GGudiLRuNJcndU_-359" style="edgeStyle=orthogonalEdgeStyle;rounded=0;orthogonalLoop=1;jettySize=auto;html=1;exitX=0.5;exitY=1;exitDx=0;exitDy=0;exitPerimeter=0;entryX=0.5;entryY=0;entryDx=0;entryDy=0;entryPerimeter=0;" edge="1" parent="uXOJ_GGudiLRuNJcndU_-253" source="uXOJ_GGudiLRuNJcndU_-348" target="uXOJ_GGudiLRuNJcndU_-346">
          <mxGeometry relative="1" as="geometry" />
        </mxCell>
        <mxCell id="uXOJ_GGudiLRuNJcndU_-360" value="false" style="edgeLabel;html=1;align=center;verticalAlign=middle;resizable=0;points=[];" vertex="1" connectable="0" parent="uXOJ_GGudiLRuNJcndU_-359">
          <mxGeometry x="-0.2815" y="1" relative="1" as="geometry">
            <mxPoint as="offset" />
          </mxGeometry>
        </mxCell>
        <mxCell id="uXOJ_GGudiLRuNJcndU_-361" style="edgeStyle=orthogonalEdgeStyle;rounded=0;orthogonalLoop=1;jettySize=auto;html=1;entryX=0.5;entryY=0;entryDx=0;entryDy=0;entryPerimeter=0;" edge="1" parent="uXOJ_GGudiLRuNJcndU_-253" source="uXOJ_GGudiLRuNJcndU_-346" target="uXOJ_GGudiLRuNJcndU_-343">
          <mxGeometry relative="1" as="geometry" />
        </mxCell>
        <mxCell id="uXOJ_GGudiLRuNJcndU_-362" value="false" style="edgeLabel;html=1;align=center;verticalAlign=middle;resizable=0;points=[];" vertex="1" connectable="0" parent="uXOJ_GGudiLRuNJcndU_-361">
          <mxGeometry x="-0.881" y="-2" relative="1" as="geometry">
            <mxPoint x="2" y="8" as="offset" />
          </mxGeometry>
        </mxCell>
        <mxCell id="uXOJ_GGudiLRuNJcndU_-363" style="edgeStyle=orthogonalEdgeStyle;rounded=0;orthogonalLoop=1;jettySize=auto;html=1;entryX=0;entryY=0.5;entryDx=0;entryDy=0;entryPerimeter=0;" edge="1" parent="uXOJ_GGudiLRuNJcndU_-253" source="uXOJ_GGudiLRuNJcndU_-343" target="uXOJ_GGudiLRuNJcndU_-341">
          <mxGeometry relative="1" as="geometry" />
        </mxCell>
        <mxCell id="uXOJ_GGudiLRuNJcndU_-364" value="false" style="edgeLabel;html=1;align=center;verticalAlign=middle;resizable=0;points=[];" vertex="1" connectable="0" parent="uXOJ_GGudiLRuNJcndU_-363">
          <mxGeometry x="-0.5116" relative="1" as="geometry">
            <mxPoint x="6" as="offset" />
          </mxGeometry>
        </mxCell>
        <mxCell id="uXOJ_GGudiLRuNJcndU_-365" style="edgeStyle=orthogonalEdgeStyle;rounded=0;orthogonalLoop=1;jettySize=auto;html=1;exitX=0.5;exitY=0;exitDx=0;exitDy=0;exitPerimeter=0;entryX=1;entryY=0.5;entryDx=0;entryDy=0;" edge="1" parent="uXOJ_GGudiLRuNJcndU_-253" source="uXOJ_GGudiLRuNJcndU_-367" target="uXOJ_GGudiLRuNJcndU_-299">
          <mxGeometry relative="1" as="geometry">
            <Array as="points">
              <mxPoint x="340" y="383" />
            </Array>
          </mxGeometry>
        </mxCell>
        <mxCell id="uXOJ_GGudiLRuNJcndU_-366" value="true" style="edgeLabel;html=1;align=center;verticalAlign=middle;resizable=0;points=[];" vertex="1" connectable="0" parent="uXOJ_GGudiLRuNJcndU_-365">
          <mxGeometry x="0.044" relative="1" as="geometry">
            <mxPoint as="offset" />
          </mxGeometry>
        </mxCell>
        <mxCell id="uXOJ_GGudiLRuNJcndU_-367" value="filteredList&lt;div&gt;length &amp;gt; 0&lt;/div&gt;" style="strokeWidth=2;html=1;shape=mxgraph.flowchart.decision;whiteSpace=wrap;" vertex="1" parent="uXOJ_GGudiLRuNJcndU_-253">
          <mxGeometry x="290" y="885" width="100" height="100" as="geometry" />
        </mxCell>
        <mxCell id="uXOJ_GGudiLRuNJcndU_-368" style="edgeStyle=orthogonalEdgeStyle;rounded=0;orthogonalLoop=1;jettySize=auto;html=1;entryX=0.975;entryY=0.496;entryDx=0;entryDy=0;entryPerimeter=0;" edge="1" parent="uXOJ_GGudiLRuNJcndU_-253" source="uXOJ_GGudiLRuNJcndU_-367" target="uXOJ_GGudiLRuNJcndU_-297">
          <mxGeometry relative="1" as="geometry">
            <Array as="points">
              <mxPoint x="340" y="737" />
            </Array>
          </mxGeometry>
        </mxCell>
        <mxCell id="uXOJ_GGudiLRuNJcndU_-369" value="false" style="edgeLabel;html=1;align=center;verticalAlign=middle;resizable=0;points=[];" vertex="1" connectable="0" parent="uXOJ_GGudiLRuNJcndU_-368">
          <mxGeometry x="-0.3318" relative="1" as="geometry">
            <mxPoint x="-30" y="-77" as="offset" />
          </mxGeometry>
        </mxCell>
        <mxCell id="uXOJ_GGudiLRuNJcndU_-370" style="edgeStyle=orthogonalEdgeStyle;rounded=0;orthogonalLoop=1;jettySize=auto;html=1;exitX=0;exitY=0.5;exitDx=0;exitDy=0;entryX=0.5;entryY=1;entryDx=0;entryDy=0;entryPerimeter=0;" edge="1" parent="uXOJ_GGudiLRuNJcndU_-253" source="uXOJ_GGudiLRuNJcndU_-295" target="uXOJ_GGudiLRuNJcndU_-367">
          <mxGeometry relative="1" as="geometry" />
        </mxCell>
        <mxCell id="uXOJ_GGudiLRuNJcndU_-371" value="" style="group" vertex="1" connectable="0" parent="1">
          <mxGeometry x="1180" y="1440" width="870" height="700" as="geometry" />
        </mxCell>
        <mxCell id="uXOJ_GGudiLRuNJcndU_-372" value="" style="rounded=0;whiteSpace=wrap;html=1;" vertex="1" parent="uXOJ_GGudiLRuNJcndU_-371">
          <mxGeometry width="870" height="700" as="geometry" />
        </mxCell>
        <mxCell id="uXOJ_GGudiLRuNJcndU_-373" value="Admin Menu - Update Cars" style="text;html=1;align=right;verticalAlign=middle;whiteSpace=wrap;rounded=0;fontSize=16;fontStyle=1" vertex="1" parent="uXOJ_GGudiLRuNJcndU_-371">
          <mxGeometry x="600" y="10" width="260" height="30" as="geometry" />
        </mxCell>
        <mxCell id="uXOJ_GGudiLRuNJcndU_-374" style="edgeStyle=orthogonalEdgeStyle;rounded=0;orthogonalLoop=1;jettySize=auto;html=1;entryX=0.5;entryY=0;entryDx=0;entryDy=0;" edge="1" parent="uXOJ_GGudiLRuNJcndU_-371" source="uXOJ_GGudiLRuNJcndU_-375" target="uXOJ_GGudiLRuNJcndU_-383">
          <mxGeometry relative="1" as="geometry" />
        </mxCell>
        <mxCell id="uXOJ_GGudiLRuNJcndU_-375" value="A_D" style="strokeWidth=2;html=1;shape=mxgraph.flowchart.start_2;whiteSpace=wrap;" vertex="1" parent="uXOJ_GGudiLRuNJcndU_-371">
          <mxGeometry x="30" y="10" width="60" height="60" as="geometry" />
        </mxCell>
        <mxCell id="uXOJ_GGudiLRuNJcndU_-376" value="Input carId" style="shape=parallelogram;html=1;strokeWidth=2;perimeter=parallelogramPerimeter;whiteSpace=wrap;rounded=1;arcSize=12;size=0.23;" vertex="1" parent="uXOJ_GGudiLRuNJcndU_-371">
          <mxGeometry x="160" y="130" width="100" height="60" as="geometry" />
        </mxCell>
        <mxCell id="uXOJ_GGudiLRuNJcndU_-377" style="edgeStyle=orthogonalEdgeStyle;rounded=0;orthogonalLoop=1;jettySize=auto;html=1;entryX=0.5;entryY=0;entryDx=0;entryDy=0;" edge="1" parent="uXOJ_GGudiLRuNJcndU_-371" source="uXOJ_GGudiLRuNJcndU_-381" target="uXOJ_GGudiLRuNJcndU_-376">
          <mxGeometry relative="1" as="geometry">
            <Array as="points">
              <mxPoint x="360" y="90" />
              <mxPoint x="210" y="90" />
            </Array>
          </mxGeometry>
        </mxCell>
        <mxCell id="uXOJ_GGudiLRuNJcndU_-378" value="false" style="edgeLabel;html=1;align=center;verticalAlign=middle;resizable=0;points=[];" vertex="1" connectable="0" parent="uXOJ_GGudiLRuNJcndU_-377">
          <mxGeometry x="0.0717" y="1" relative="1" as="geometry">
            <mxPoint as="offset" />
          </mxGeometry>
        </mxCell>
        <mxCell id="uXOJ_GGudiLRuNJcndU_-379" style="edgeStyle=orthogonalEdgeStyle;rounded=0;orthogonalLoop=1;jettySize=auto;html=1;entryX=0.5;entryY=0;entryDx=0;entryDy=0;" edge="1" parent="uXOJ_GGudiLRuNJcndU_-371" source="uXOJ_GGudiLRuNJcndU_-381" target="uXOJ_GGudiLRuNJcndU_-409">
          <mxGeometry relative="1" as="geometry">
            <Array as="points">
              <mxPoint x="360" y="230" />
              <mxPoint x="60" y="230" />
            </Array>
          </mxGeometry>
        </mxCell>
        <mxCell id="uXOJ_GGudiLRuNJcndU_-380" value="true" style="edgeLabel;html=1;align=center;verticalAlign=middle;resizable=0;points=[];" vertex="1" connectable="0" parent="uXOJ_GGudiLRuNJcndU_-379">
          <mxGeometry x="0.0941" y="3" relative="1" as="geometry">
            <mxPoint as="offset" />
          </mxGeometry>
        </mxCell>
        <mxCell id="uXOJ_GGudiLRuNJcndU_-381" value="carId exist in carDictionary" style="strokeWidth=2;html=1;shape=mxgraph.flowchart.decision;whiteSpace=wrap;" vertex="1" parent="uXOJ_GGudiLRuNJcndU_-371">
          <mxGeometry x="310" y="110" width="100" height="100" as="geometry" />
        </mxCell>
        <mxCell id="uXOJ_GGudiLRuNJcndU_-382" style="edgeStyle=orthogonalEdgeStyle;rounded=0;orthogonalLoop=1;jettySize=auto;html=1;entryX=0;entryY=0.5;entryDx=0;entryDy=0;" edge="1" parent="uXOJ_GGudiLRuNJcndU_-371" source="uXOJ_GGudiLRuNJcndU_-383" target="uXOJ_GGudiLRuNJcndU_-376">
          <mxGeometry relative="1" as="geometry" />
        </mxCell>
        <mxCell id="uXOJ_GGudiLRuNJcndU_-383" value="display carDictionary" style="rounded=1;whiteSpace=wrap;html=1;absoluteArcSize=1;arcSize=14;strokeWidth=2;" vertex="1" parent="uXOJ_GGudiLRuNJcndU_-371">
          <mxGeometry x="10" y="130" width="100" height="60" as="geometry" />
        </mxCell>
        <mxCell id="uXOJ_GGudiLRuNJcndU_-384" value="input carProperties" style="shape=parallelogram;html=1;strokeWidth=2;perimeter=parallelogramPerimeter;whiteSpace=wrap;rounded=1;arcSize=12;size=0.23;" vertex="1" parent="uXOJ_GGudiLRuNJcndU_-371">
          <mxGeometry x="10" y="370" width="100" height="60" as="geometry" />
        </mxCell>
        <mxCell id="uXOJ_GGudiLRuNJcndU_-385" style="edgeStyle=orthogonalEdgeStyle;rounded=0;orthogonalLoop=1;jettySize=auto;html=1;entryX=0.5;entryY=0;entryDx=0;entryDy=0;" edge="1" parent="uXOJ_GGudiLRuNJcndU_-371" source="uXOJ_GGudiLRuNJcndU_-386">
          <mxGeometry relative="1" as="geometry">
            <mxPoint x="60" y="630" as="targetPoint" />
          </mxGeometry>
        </mxCell>
        <mxCell id="uXOJ_GGudiLRuNJcndU_-386" value="carProperties&lt;div&gt;== carname&lt;/div&gt;" style="strokeWidth=2;html=1;shape=mxgraph.flowchart.decision;whiteSpace=wrap;" vertex="1" parent="uXOJ_GGudiLRuNJcndU_-371">
          <mxGeometry x="10" y="480" width="100" height="100" as="geometry" />
        </mxCell>
        <mxCell id="uXOJ_GGudiLRuNJcndU_-387" style="edgeStyle=orthogonalEdgeStyle;rounded=0;orthogonalLoop=1;jettySize=auto;html=1;" edge="1" parent="uXOJ_GGudiLRuNJcndU_-371" source="uXOJ_GGudiLRuNJcndU_-390" target="uXOJ_GGudiLRuNJcndU_-392">
          <mxGeometry relative="1" as="geometry" />
        </mxCell>
        <mxCell id="uXOJ_GGudiLRuNJcndU_-388" value="false" style="edgeLabel;html=1;align=center;verticalAlign=middle;resizable=0;points=[];" vertex="1" connectable="0" parent="uXOJ_GGudiLRuNJcndU_-387">
          <mxGeometry x="-0.6147" y="-1" relative="1" as="geometry">
            <mxPoint as="offset" />
          </mxGeometry>
        </mxCell>
        <mxCell id="uXOJ_GGudiLRuNJcndU_-389" style="edgeStyle=orthogonalEdgeStyle;rounded=0;orthogonalLoop=1;jettySize=auto;html=1;entryX=0.5;entryY=0;entryDx=0;entryDy=0;" edge="1" parent="uXOJ_GGudiLRuNJcndU_-371" source="uXOJ_GGudiLRuNJcndU_-390">
          <mxGeometry relative="1" as="geometry">
            <mxPoint x="60" y="630" as="targetPoint" />
            <Array as="points">
              <mxPoint x="210" y="600" />
              <mxPoint x="60" y="600" />
            </Array>
          </mxGeometry>
        </mxCell>
        <mxCell id="uXOJ_GGudiLRuNJcndU_-390" value="carProperties&lt;div&gt;== carbrand&lt;/div&gt;" style="strokeWidth=2;html=1;shape=mxgraph.flowchart.decision;whiteSpace=wrap;" vertex="1" parent="uXOJ_GGudiLRuNJcndU_-371">
          <mxGeometry x="160" y="480" width="100" height="100" as="geometry" />
        </mxCell>
        <mxCell id="uXOJ_GGudiLRuNJcndU_-391" style="edgeStyle=orthogonalEdgeStyle;rounded=0;orthogonalLoop=1;jettySize=auto;html=1;entryX=0.5;entryY=0;entryDx=0;entryDy=0;" edge="1" parent="uXOJ_GGudiLRuNJcndU_-371" source="uXOJ_GGudiLRuNJcndU_-392">
          <mxGeometry relative="1" as="geometry">
            <mxPoint x="60" y="630" as="targetPoint" />
            <Array as="points">
              <mxPoint x="360" y="600" />
              <mxPoint x="60" y="600" />
            </Array>
          </mxGeometry>
        </mxCell>
        <mxCell id="uXOJ_GGudiLRuNJcndU_-392" value="carProperties&lt;div&gt;== rentalprice&lt;/div&gt;" style="strokeWidth=2;html=1;shape=mxgraph.flowchart.decision;whiteSpace=wrap;" vertex="1" parent="uXOJ_GGudiLRuNJcndU_-371">
          <mxGeometry x="310" y="480" width="100" height="100" as="geometry" />
        </mxCell>
        <mxCell id="uXOJ_GGudiLRuNJcndU_-393" style="edgeStyle=orthogonalEdgeStyle;rounded=0;orthogonalLoop=1;jettySize=auto;html=1;entryX=0.5;entryY=0;entryDx=0;entryDy=0;" edge="1" parent="uXOJ_GGudiLRuNJcndU_-371" source="uXOJ_GGudiLRuNJcndU_-394">
          <mxGeometry relative="1" as="geometry">
            <mxPoint x="60" y="630" as="targetPoint" />
            <Array as="points">
              <mxPoint x="510" y="600" />
              <mxPoint x="60" y="600" />
            </Array>
          </mxGeometry>
        </mxCell>
        <mxCell id="uXOJ_GGudiLRuNJcndU_-394" value="carProperties&lt;div&gt;== availability&lt;/div&gt;" style="strokeWidth=2;html=1;shape=mxgraph.flowchart.decision;whiteSpace=wrap;" vertex="1" parent="uXOJ_GGudiLRuNJcndU_-371">
          <mxGeometry x="460" y="480" width="100" height="100" as="geometry" />
        </mxCell>
        <mxCell id="uXOJ_GGudiLRuNJcndU_-395" style="edgeStyle=orthogonalEdgeStyle;rounded=0;orthogonalLoop=1;jettySize=auto;html=1;entryX=0.5;entryY=0;entryDx=0;entryDy=0;" edge="1" parent="uXOJ_GGudiLRuNJcndU_-371" source="uXOJ_GGudiLRuNJcndU_-397">
          <mxGeometry relative="1" as="geometry">
            <mxPoint x="60" y="630" as="targetPoint" />
            <Array as="points">
              <mxPoint x="660" y="600" />
              <mxPoint x="60" y="600" />
            </Array>
          </mxGeometry>
        </mxCell>
        <mxCell id="uXOJ_GGudiLRuNJcndU_-396" value="true" style="edgeLabel;html=1;align=center;verticalAlign=middle;resizable=0;points=[];" vertex="1" connectable="0" parent="uXOJ_GGudiLRuNJcndU_-395">
          <mxGeometry x="0.8199" y="-4" relative="1" as="geometry">
            <mxPoint as="offset" />
          </mxGeometry>
        </mxCell>
        <mxCell id="uXOJ_GGudiLRuNJcndU_-397" value="carProperties&lt;div&gt;== carseats&lt;/div&gt;" style="strokeWidth=2;html=1;shape=mxgraph.flowchart.decision;whiteSpace=wrap;" vertex="1" parent="uXOJ_GGudiLRuNJcndU_-371">
          <mxGeometry x="610" y="480" width="100" height="100" as="geometry" />
        </mxCell>
        <mxCell id="uXOJ_GGudiLRuNJcndU_-398" style="edgeStyle=orthogonalEdgeStyle;rounded=0;orthogonalLoop=1;jettySize=auto;html=1;entryX=1;entryY=0.5;entryDx=0;entryDy=0;" edge="1" parent="uXOJ_GGudiLRuNJcndU_-371" source="uXOJ_GGudiLRuNJcndU_-400" target="uXOJ_GGudiLRuNJcndU_-384">
          <mxGeometry relative="1" as="geometry">
            <Array as="points">
              <mxPoint x="810" y="400" />
            </Array>
          </mxGeometry>
        </mxCell>
        <mxCell id="uXOJ_GGudiLRuNJcndU_-399" value="false" style="edgeLabel;html=1;align=center;verticalAlign=middle;resizable=0;points=[];" vertex="1" connectable="0" parent="uXOJ_GGudiLRuNJcndU_-398">
          <mxGeometry x="-0.0707" y="-4" relative="1" as="geometry">
            <mxPoint as="offset" />
          </mxGeometry>
        </mxCell>
        <mxCell id="uXOJ_GGudiLRuNJcndU_-400" value="carProperties&lt;div&gt;== exit&lt;/div&gt;" style="strokeWidth=2;html=1;shape=mxgraph.flowchart.decision;whiteSpace=wrap;" vertex="1" parent="uXOJ_GGudiLRuNJcndU_-371">
          <mxGeometry x="760" y="480" width="100" height="100" as="geometry" />
        </mxCell>
        <mxCell id="uXOJ_GGudiLRuNJcndU_-401" style="edgeStyle=orthogonalEdgeStyle;rounded=0;orthogonalLoop=1;jettySize=auto;html=1;entryX=0.5;entryY=0;entryDx=0;entryDy=0;entryPerimeter=0;" edge="1" parent="uXOJ_GGudiLRuNJcndU_-371" source="uXOJ_GGudiLRuNJcndU_-384" target="uXOJ_GGudiLRuNJcndU_-386">
          <mxGeometry relative="1" as="geometry" />
        </mxCell>
        <mxCell id="uXOJ_GGudiLRuNJcndU_-402" value="false" style="edgeStyle=orthogonalEdgeStyle;rounded=0;orthogonalLoop=1;jettySize=auto;html=1;entryX=0;entryY=0.5;entryDx=0;entryDy=0;entryPerimeter=0;" edge="1" parent="uXOJ_GGudiLRuNJcndU_-371" source="uXOJ_GGudiLRuNJcndU_-386" target="uXOJ_GGudiLRuNJcndU_-390">
          <mxGeometry relative="1" as="geometry" />
        </mxCell>
        <mxCell id="uXOJ_GGudiLRuNJcndU_-403" value="false" style="edgeStyle=orthogonalEdgeStyle;rounded=0;orthogonalLoop=1;jettySize=auto;html=1;exitX=1;exitY=0.5;exitDx=0;exitDy=0;exitPerimeter=0;entryX=0;entryY=0.5;entryDx=0;entryDy=0;entryPerimeter=0;" edge="1" parent="uXOJ_GGudiLRuNJcndU_-371" source="uXOJ_GGudiLRuNJcndU_-392" target="uXOJ_GGudiLRuNJcndU_-394">
          <mxGeometry relative="1" as="geometry" />
        </mxCell>
        <mxCell id="uXOJ_GGudiLRuNJcndU_-404" style="edgeStyle=orthogonalEdgeStyle;rounded=0;orthogonalLoop=1;jettySize=auto;html=1;entryX=0;entryY=0.5;entryDx=0;entryDy=0;entryPerimeter=0;" edge="1" parent="uXOJ_GGudiLRuNJcndU_-371" source="uXOJ_GGudiLRuNJcndU_-394" target="uXOJ_GGudiLRuNJcndU_-397">
          <mxGeometry relative="1" as="geometry" />
        </mxCell>
        <mxCell id="uXOJ_GGudiLRuNJcndU_-405" value="false" style="edgeLabel;html=1;align=center;verticalAlign=middle;resizable=0;points=[];" vertex="1" connectable="0" parent="uXOJ_GGudiLRuNJcndU_-404">
          <mxGeometry x="-0.6147" relative="1" as="geometry">
            <mxPoint as="offset" />
          </mxGeometry>
        </mxCell>
        <mxCell id="uXOJ_GGudiLRuNJcndU_-406" style="edgeStyle=orthogonalEdgeStyle;rounded=0;orthogonalLoop=1;jettySize=auto;html=1;entryX=0;entryY=0.5;entryDx=0;entryDy=0;entryPerimeter=0;" edge="1" parent="uXOJ_GGudiLRuNJcndU_-371" source="uXOJ_GGudiLRuNJcndU_-397" target="uXOJ_GGudiLRuNJcndU_-400">
          <mxGeometry relative="1" as="geometry" />
        </mxCell>
        <mxCell id="uXOJ_GGudiLRuNJcndU_-407" value="false" style="edgeLabel;html=1;align=center;verticalAlign=middle;resizable=0;points=[];" vertex="1" connectable="0" parent="uXOJ_GGudiLRuNJcndU_-406">
          <mxGeometry x="-0.4674" y="-3" relative="1" as="geometry">
            <mxPoint as="offset" />
          </mxGeometry>
        </mxCell>
        <mxCell id="uXOJ_GGudiLRuNJcndU_-408" style="edgeStyle=orthogonalEdgeStyle;rounded=0;orthogonalLoop=1;jettySize=auto;html=1;entryX=0.5;entryY=0;entryDx=0;entryDy=0;" edge="1" parent="uXOJ_GGudiLRuNJcndU_-371" source="uXOJ_GGudiLRuNJcndU_-409" target="uXOJ_GGudiLRuNJcndU_-384">
          <mxGeometry relative="1" as="geometry" />
        </mxCell>
        <mxCell id="uXOJ_GGudiLRuNJcndU_-409" value="carToBeUpdated = carDictionary with key first 2 carId" style="rounded=1;whiteSpace=wrap;html=1;absoluteArcSize=1;arcSize=14;strokeWidth=2;" vertex="1" parent="uXOJ_GGudiLRuNJcndU_-371">
          <mxGeometry x="10" y="260" width="100" height="60" as="geometry" />
        </mxCell>
        <mxCell id="uXOJ_GGudiLRuNJcndU_-410" style="edgeStyle=orthogonalEdgeStyle;rounded=0;orthogonalLoop=1;jettySize=auto;html=1;entryX=0;entryY=0.5;entryDx=0;entryDy=0;entryPerimeter=0;" edge="1" parent="uXOJ_GGudiLRuNJcndU_-371" source="uXOJ_GGudiLRuNJcndU_-376" target="uXOJ_GGudiLRuNJcndU_-381">
          <mxGeometry relative="1" as="geometry" />
        </mxCell>
        <mxCell id="uXOJ_GGudiLRuNJcndU_-411" style="edgeStyle=orthogonalEdgeStyle;rounded=0;orthogonalLoop=1;jettySize=auto;html=1;entryX=0;entryY=0.5;entryDx=0;entryDy=0;" edge="1" parent="uXOJ_GGudiLRuNJcndU_-371" source="uXOJ_GGudiLRuNJcndU_-412" target="uXOJ_GGudiLRuNJcndU_-413">
          <mxGeometry relative="1" as="geometry" />
        </mxCell>
        <mxCell id="uXOJ_GGudiLRuNJcndU_-412" value="input value" style="shape=parallelogram;html=1;strokeWidth=2;perimeter=parallelogramPerimeter;whiteSpace=wrap;rounded=1;arcSize=12;size=0.23;" vertex="1" parent="uXOJ_GGudiLRuNJcndU_-371">
          <mxGeometry x="10" y="630" width="100" height="60" as="geometry" />
        </mxCell>
        <mxCell id="uXOJ_GGudiLRuNJcndU_-413" value="update carToBeUpdated&lt;div&gt;properties with new value&lt;/div&gt;" style="rounded=1;whiteSpace=wrap;html=1;absoluteArcSize=1;arcSize=14;strokeWidth=2;" vertex="1" parent="uXOJ_GGudiLRuNJcndU_-371">
          <mxGeometry x="160" y="630" width="100" height="60" as="geometry" />
        </mxCell>
        <mxCell id="uXOJ_GGudiLRuNJcndU_-414" value="A" style="strokeWidth=2;html=1;shape=mxgraph.flowchart.start_2;whiteSpace=wrap;" vertex="1" parent="uXOJ_GGudiLRuNJcndU_-371">
          <mxGeometry x="630" y="630" width="60" height="60" as="geometry" />
        </mxCell>
        <mxCell id="uXOJ_GGudiLRuNJcndU_-415" style="edgeStyle=orthogonalEdgeStyle;rounded=0;orthogonalLoop=1;jettySize=auto;html=1;entryX=0;entryY=0.5;entryDx=0;entryDy=0;entryPerimeter=0;" edge="1" parent="uXOJ_GGudiLRuNJcndU_-371" source="uXOJ_GGudiLRuNJcndU_-413" target="uXOJ_GGudiLRuNJcndU_-414">
          <mxGeometry relative="1" as="geometry" />
        </mxCell>
        <mxCell id="uXOJ_GGudiLRuNJcndU_-416" style="edgeStyle=orthogonalEdgeStyle;rounded=0;orthogonalLoop=1;jettySize=auto;html=1;entryX=1;entryY=0.5;entryDx=0;entryDy=0;entryPerimeter=0;" edge="1" parent="uXOJ_GGudiLRuNJcndU_-371" source="uXOJ_GGudiLRuNJcndU_-400" target="uXOJ_GGudiLRuNJcndU_-414">
          <mxGeometry relative="1" as="geometry">
            <Array as="points">
              <mxPoint x="810" y="660" />
            </Array>
          </mxGeometry>
        </mxCell>
        <mxCell id="uXOJ_GGudiLRuNJcndU_-456" value="" style="group" vertex="1" connectable="0" parent="1">
          <mxGeometry x="-800" y="70" width="420" height="560" as="geometry" />
        </mxCell>
        <mxCell id="uXOJ_GGudiLRuNJcndU_-418" value="" style="rounded=0;whiteSpace=wrap;html=1;" vertex="1" parent="uXOJ_GGudiLRuNJcndU_-456">
          <mxGeometry width="420" height="560" as="geometry" />
        </mxCell>
        <mxCell id="uXOJ_GGudiLRuNJcndU_-419" style="edgeStyle=orthogonalEdgeStyle;rounded=0;orthogonalLoop=1;jettySize=auto;html=1;" edge="1" parent="uXOJ_GGudiLRuNJcndU_-456" source="uXOJ_GGudiLRuNJcndU_-420" target="uXOJ_GGudiLRuNJcndU_-422">
          <mxGeometry relative="1" as="geometry" />
        </mxCell>
        <mxCell id="uXOJ_GGudiLRuNJcndU_-420" value="B" style="strokeWidth=2;html=1;shape=mxgraph.flowchart.start_2;whiteSpace=wrap;" vertex="1" parent="uXOJ_GGudiLRuNJcndU_-456">
          <mxGeometry x="30" y="10" width="60" height="60" as="geometry" />
        </mxCell>
        <mxCell id="uXOJ_GGudiLRuNJcndU_-421" value="Input&lt;div&gt;userMenu&lt;/div&gt;" style="shape=parallelogram;html=1;strokeWidth=2;perimeter=parallelogramPerimeter;whiteSpace=wrap;rounded=1;arcSize=12;size=0.23;" vertex="1" parent="uXOJ_GGudiLRuNJcndU_-456">
          <mxGeometry x="10" y="230" width="100" height="60" as="geometry" />
        </mxCell>
        <mxCell id="uXOJ_GGudiLRuNJcndU_-422" value="Display Menu&lt;div&gt;Choices&lt;/div&gt;" style="rounded=1;whiteSpace=wrap;html=1;absoluteArcSize=1;arcSize=14;strokeWidth=2;" vertex="1" parent="uXOJ_GGudiLRuNJcndU_-456">
          <mxGeometry x="10" y="120" width="100" height="60" as="geometry" />
        </mxCell>
        <mxCell id="uXOJ_GGudiLRuNJcndU_-423" style="edgeStyle=orthogonalEdgeStyle;rounded=0;orthogonalLoop=1;jettySize=auto;html=1;" edge="1" parent="uXOJ_GGudiLRuNJcndU_-456" source="uXOJ_GGudiLRuNJcndU_-427" target="uXOJ_GGudiLRuNJcndU_-430">
          <mxGeometry relative="1" as="geometry" />
        </mxCell>
        <mxCell id="uXOJ_GGudiLRuNJcndU_-424" value="false" style="edgeLabel;html=1;align=center;verticalAlign=middle;resizable=0;points=[];" vertex="1" connectable="0" parent="uXOJ_GGudiLRuNJcndU_-423">
          <mxGeometry x="-0.1029" y="2" relative="1" as="geometry">
            <mxPoint as="offset" />
          </mxGeometry>
        </mxCell>
        <mxCell id="uXOJ_GGudiLRuNJcndU_-425" style="edgeStyle=orthogonalEdgeStyle;rounded=0;orthogonalLoop=1;jettySize=auto;html=1;" edge="1" parent="uXOJ_GGudiLRuNJcndU_-456" source="uXOJ_GGudiLRuNJcndU_-427" target="uXOJ_GGudiLRuNJcndU_-432">
          <mxGeometry relative="1" as="geometry" />
        </mxCell>
        <mxCell id="uXOJ_GGudiLRuNJcndU_-426" value="true" style="edgeLabel;html=1;align=center;verticalAlign=middle;resizable=0;points=[];" vertex="1" connectable="0" parent="uXOJ_GGudiLRuNJcndU_-425">
          <mxGeometry x="-0.0922" y="1" relative="1" as="geometry">
            <mxPoint as="offset" />
          </mxGeometry>
        </mxCell>
        <mxCell id="uXOJ_GGudiLRuNJcndU_-427" value="userMenu&lt;div&gt;== 1&lt;/div&gt;" style="strokeWidth=2;html=1;shape=mxgraph.flowchart.decision;whiteSpace=wrap;" vertex="1" parent="uXOJ_GGudiLRuNJcndU_-456">
          <mxGeometry x="10" y="340" width="100" height="100" as="geometry" />
        </mxCell>
        <mxCell id="uXOJ_GGudiLRuNJcndU_-428" style="edgeStyle=orthogonalEdgeStyle;rounded=0;orthogonalLoop=1;jettySize=auto;html=1;" edge="1" parent="uXOJ_GGudiLRuNJcndU_-456" source="uXOJ_GGudiLRuNJcndU_-430" target="uXOJ_GGudiLRuNJcndU_-433">
          <mxGeometry relative="1" as="geometry" />
        </mxCell>
        <mxCell id="uXOJ_GGudiLRuNJcndU_-429" value="true" style="edgeLabel;html=1;align=center;verticalAlign=middle;resizable=0;points=[];" vertex="1" connectable="0" parent="uXOJ_GGudiLRuNJcndU_-428">
          <mxGeometry x="-0.3357" relative="1" as="geometry">
            <mxPoint as="offset" />
          </mxGeometry>
        </mxCell>
        <mxCell id="uXOJ_GGudiLRuNJcndU_-454" style="edgeStyle=orthogonalEdgeStyle;rounded=0;orthogonalLoop=1;jettySize=auto;html=1;entryX=0;entryY=0.5;entryDx=0;entryDy=0;entryPerimeter=0;" edge="1" parent="uXOJ_GGudiLRuNJcndU_-456" source="uXOJ_GGudiLRuNJcndU_-430" target="uXOJ_GGudiLRuNJcndU_-449">
          <mxGeometry relative="1" as="geometry" />
        </mxCell>
        <mxCell id="uXOJ_GGudiLRuNJcndU_-455" value="false" style="edgeLabel;html=1;align=center;verticalAlign=middle;resizable=0;points=[];" vertex="1" connectable="0" parent="uXOJ_GGudiLRuNJcndU_-454">
          <mxGeometry x="-0.5205" y="2" relative="1" as="geometry">
            <mxPoint as="offset" />
          </mxGeometry>
        </mxCell>
        <mxCell id="uXOJ_GGudiLRuNJcndU_-430" value="userMenu&lt;div&gt;== 2&lt;/div&gt;" style="strokeWidth=2;html=1;shape=mxgraph.flowchart.decision;whiteSpace=wrap;" vertex="1" parent="uXOJ_GGudiLRuNJcndU_-456">
          <mxGeometry x="160" y="340" width="100" height="100" as="geometry" />
        </mxCell>
        <mxCell id="uXOJ_GGudiLRuNJcndU_-432" value="B_A" style="strokeWidth=2;html=1;shape=mxgraph.flowchart.start_2;whiteSpace=wrap;" vertex="1" parent="uXOJ_GGudiLRuNJcndU_-456">
          <mxGeometry x="30" y="490" width="60" height="60" as="geometry" />
        </mxCell>
        <mxCell id="uXOJ_GGudiLRuNJcndU_-433" value="B_B" style="strokeWidth=2;html=1;shape=mxgraph.flowchart.start_2;whiteSpace=wrap;" vertex="1" parent="uXOJ_GGudiLRuNJcndU_-456">
          <mxGeometry x="180" y="490" width="60" height="60" as="geometry" />
        </mxCell>
        <mxCell id="uXOJ_GGudiLRuNJcndU_-435" value="User Menu" style="text;html=1;align=right;verticalAlign=middle;whiteSpace=wrap;rounded=0;fontSize=16;fontStyle=1" vertex="1" parent="uXOJ_GGudiLRuNJcndU_-456">
          <mxGeometry x="260" y="10" width="150" height="30" as="geometry" />
        </mxCell>
        <mxCell id="uXOJ_GGudiLRuNJcndU_-438" style="edgeStyle=orthogonalEdgeStyle;rounded=0;orthogonalLoop=1;jettySize=auto;html=1;entryX=0.5;entryY=0;entryDx=0;entryDy=0;" edge="1" parent="uXOJ_GGudiLRuNJcndU_-456" source="uXOJ_GGudiLRuNJcndU_-422" target="uXOJ_GGudiLRuNJcndU_-421">
          <mxGeometry relative="1" as="geometry" />
        </mxCell>
        <mxCell id="uXOJ_GGudiLRuNJcndU_-439" style="edgeStyle=orthogonalEdgeStyle;rounded=0;orthogonalLoop=1;jettySize=auto;html=1;entryX=0.5;entryY=0;entryDx=0;entryDy=0;entryPerimeter=0;" edge="1" parent="uXOJ_GGudiLRuNJcndU_-456" source="uXOJ_GGudiLRuNJcndU_-421" target="uXOJ_GGudiLRuNJcndU_-427">
          <mxGeometry relative="1" as="geometry" />
        </mxCell>
        <mxCell id="uXOJ_GGudiLRuNJcndU_-447" style="edgeStyle=orthogonalEdgeStyle;rounded=0;orthogonalLoop=1;jettySize=auto;html=1;entryX=1;entryY=0.5;entryDx=0;entryDy=0;" edge="1" parent="uXOJ_GGudiLRuNJcndU_-456" source="uXOJ_GGudiLRuNJcndU_-449" target="uXOJ_GGudiLRuNJcndU_-421">
          <mxGeometry relative="1" as="geometry">
            <Array as="points">
              <mxPoint x="360" y="260" />
            </Array>
          </mxGeometry>
        </mxCell>
        <mxCell id="uXOJ_GGudiLRuNJcndU_-448" value="false" style="edgeLabel;html=1;align=center;verticalAlign=middle;resizable=0;points=[];" vertex="1" connectable="0" parent="uXOJ_GGudiLRuNJcndU_-447">
          <mxGeometry x="0.0957" y="-1" relative="1" as="geometry">
            <mxPoint as="offset" />
          </mxGeometry>
        </mxCell>
        <mxCell id="uXOJ_GGudiLRuNJcndU_-449" value="userMenu&lt;div&gt;== 0&lt;/div&gt;" style="strokeWidth=2;html=1;shape=mxgraph.flowchart.decision;whiteSpace=wrap;" vertex="1" parent="uXOJ_GGudiLRuNJcndU_-456">
          <mxGeometry x="310" y="340" width="100" height="100" as="geometry" />
        </mxCell>
        <mxCell id="uXOJ_GGudiLRuNJcndU_-452" value="Z" style="strokeWidth=2;html=1;shape=mxgraph.flowchart.start_2;whiteSpace=wrap;" vertex="1" parent="uXOJ_GGudiLRuNJcndU_-456">
          <mxGeometry x="330" y="490" width="60" height="60" as="geometry" />
        </mxCell>
        <mxCell id="uXOJ_GGudiLRuNJcndU_-453" style="edgeStyle=orthogonalEdgeStyle;rounded=0;orthogonalLoop=1;jettySize=auto;html=1;entryX=0.5;entryY=0;entryDx=0;entryDy=0;entryPerimeter=0;" edge="1" parent="uXOJ_GGudiLRuNJcndU_-456" source="uXOJ_GGudiLRuNJcndU_-449" target="uXOJ_GGudiLRuNJcndU_-452">
          <mxGeometry relative="1" as="geometry" />
        </mxCell>
        <mxCell id="uXOJ_GGudiLRuNJcndU_-457" value="" style="group" vertex="1" connectable="0" parent="1">
          <mxGeometry x="-370" y="1430" width="600" height="1300" as="geometry" />
        </mxCell>
        <mxCell id="uXOJ_GGudiLRuNJcndU_-65" value="" style="rounded=0;whiteSpace=wrap;html=1;" vertex="1" parent="uXOJ_GGudiLRuNJcndU_-457">
          <mxGeometry width="600" height="1300" as="geometry" />
        </mxCell>
        <mxCell id="uXOJ_GGudiLRuNJcndU_-66" style="edgeStyle=orthogonalEdgeStyle;rounded=0;orthogonalLoop=1;jettySize=auto;html=1;entryX=0.5;entryY=1;entryDx=0;entryDy=0;" edge="1" parent="uXOJ_GGudiLRuNJcndU_-457" target="uXOJ_GGudiLRuNJcndU_-79">
          <mxGeometry relative="1" as="geometry">
            <mxPoint x="99" y="510" as="sourcePoint" />
            <Array as="points">
              <mxPoint x="100" y="510" />
              <mxPoint x="100" y="480" />
              <mxPoint x="310" y="480" />
            </Array>
          </mxGeometry>
        </mxCell>
        <mxCell id="uXOJ_GGudiLRuNJcndU_-67" style="edgeStyle=orthogonalEdgeStyle;rounded=0;orthogonalLoop=1;jettySize=auto;html=1;entryX=0.5;entryY=1;entryDx=0;entryDy=0;" edge="1" parent="uXOJ_GGudiLRuNJcndU_-457" source="uXOJ_GGudiLRuNJcndU_-88" target="uXOJ_GGudiLRuNJcndU_-79">
          <mxGeometry relative="1" as="geometry">
            <Array as="points">
              <mxPoint x="365" y="480" />
              <mxPoint x="310" y="480" />
            </Array>
          </mxGeometry>
        </mxCell>
        <mxCell id="uXOJ_GGudiLRuNJcndU_-68" style="edgeStyle=orthogonalEdgeStyle;rounded=0;orthogonalLoop=1;jettySize=auto;html=1;entryX=0.5;entryY=0;entryDx=0;entryDy=0;" edge="1" parent="uXOJ_GGudiLRuNJcndU_-457" source="uXOJ_GGudiLRuNJcndU_-69" target="uXOJ_GGudiLRuNJcndU_-72">
          <mxGeometry relative="1" as="geometry" />
        </mxCell>
        <mxCell id="uXOJ_GGudiLRuNJcndU_-69" value="B_A" style="strokeWidth=2;html=1;shape=mxgraph.flowchart.start_2;whiteSpace=wrap;" vertex="1" parent="uXOJ_GGudiLRuNJcndU_-457">
          <mxGeometry x="50" y="10" width="60" height="60" as="geometry" />
        </mxCell>
        <mxCell id="uXOJ_GGudiLRuNJcndU_-70" value="User Menu - Rent Car" style="text;html=1;align=right;verticalAlign=middle;whiteSpace=wrap;rounded=0;fontSize=16;fontStyle=1" vertex="1" parent="uXOJ_GGudiLRuNJcndU_-457">
          <mxGeometry x="390" y="10" width="195" height="30" as="geometry" />
        </mxCell>
        <mxCell id="uXOJ_GGudiLRuNJcndU_-71" style="edgeStyle=orthogonalEdgeStyle;rounded=0;orthogonalLoop=1;jettySize=auto;html=1;" edge="1" parent="uXOJ_GGudiLRuNJcndU_-457" source="uXOJ_GGudiLRuNJcndU_-72">
          <mxGeometry relative="1" as="geometry">
            <mxPoint x="80" y="220" as="targetPoint" />
          </mxGeometry>
        </mxCell>
        <mxCell id="uXOJ_GGudiLRuNJcndU_-72" value="Input engineCapacity" style="shape=parallelogram;html=1;strokeWidth=2;perimeter=parallelogramPerimeter;whiteSpace=wrap;rounded=1;arcSize=12;size=0.23;" vertex="1" parent="uXOJ_GGudiLRuNJcndU_-457">
          <mxGeometry x="30" y="120" width="100" height="60" as="geometry" />
        </mxCell>
        <mxCell id="uXOJ_GGudiLRuNJcndU_-73" style="edgeStyle=orthogonalEdgeStyle;rounded=0;orthogonalLoop=1;jettySize=auto;html=1;" edge="1" parent="uXOJ_GGudiLRuNJcndU_-457" target="uXOJ_GGudiLRuNJcndU_-90">
          <mxGeometry relative="1" as="geometry">
            <mxPoint x="80" y="320" as="sourcePoint" />
          </mxGeometry>
        </mxCell>
        <mxCell id="uXOJ_GGudiLRuNJcndU_-74" style="edgeStyle=orthogonalEdgeStyle;rounded=0;orthogonalLoop=1;jettySize=auto;html=1;entryX=1;entryY=0.25;entryDx=0;entryDy=0;exitX=0.5;exitY=1;exitDx=0;exitDy=0;exitPerimeter=0;" edge="1" parent="uXOJ_GGudiLRuNJcndU_-457" source="uXOJ_GGudiLRuNJcndU_-116" target="uXOJ_GGudiLRuNJcndU_-90">
          <mxGeometry relative="1" as="geometry">
            <Array as="points">
              <mxPoint x="235" y="375" />
            </Array>
            <mxPoint x="260.03703703703695" y="320" as="sourcePoint" />
          </mxGeometry>
        </mxCell>
        <mxCell id="uXOJ_GGudiLRuNJcndU_-75" style="edgeStyle=orthogonalEdgeStyle;rounded=0;orthogonalLoop=1;jettySize=auto;html=1;entryX=1;entryY=0.5;entryDx=0;entryDy=0;exitX=0.5;exitY=0;exitDx=0;exitDy=0;exitPerimeter=0;" edge="1" parent="uXOJ_GGudiLRuNJcndU_-457" source="uXOJ_GGudiLRuNJcndU_-120" target="uXOJ_GGudiLRuNJcndU_-72">
          <mxGeometry relative="1" as="geometry">
            <Array as="points">
              <mxPoint x="535" y="150" />
            </Array>
            <mxPoint x="440.03703703703695" y="220" as="sourcePoint" />
          </mxGeometry>
        </mxCell>
        <mxCell id="uXOJ_GGudiLRuNJcndU_-76" value="false" style="edgeLabel;html=1;align=center;verticalAlign=middle;resizable=0;points=[];" vertex="1" connectable="0" parent="uXOJ_GGudiLRuNJcndU_-75">
          <mxGeometry x="-0.0907" y="1" relative="1" as="geometry">
            <mxPoint as="offset" />
          </mxGeometry>
        </mxCell>
        <mxCell id="uXOJ_GGudiLRuNJcndU_-77" style="edgeStyle=orthogonalEdgeStyle;rounded=0;orthogonalLoop=1;jettySize=auto;html=1;entryX=1;entryY=0.25;entryDx=0;entryDy=0;exitX=0.5;exitY=1;exitDx=0;exitDy=0;exitPerimeter=0;" edge="1" parent="uXOJ_GGudiLRuNJcndU_-457" source="uXOJ_GGudiLRuNJcndU_-117" target="uXOJ_GGudiLRuNJcndU_-90">
          <mxGeometry relative="1" as="geometry">
            <Array as="points">
              <mxPoint x="385" y="375" />
            </Array>
            <mxPoint x="440" y="320" as="sourcePoint" />
          </mxGeometry>
        </mxCell>
        <mxCell id="uXOJ_GGudiLRuNJcndU_-78" value="true" style="edgeLabel;html=1;align=center;verticalAlign=middle;resizable=0;points=[];" vertex="1" connectable="0" parent="uXOJ_GGudiLRuNJcndU_-77">
          <mxGeometry x="0.234" y="-3" relative="1" as="geometry">
            <mxPoint as="offset" />
          </mxGeometry>
        </mxCell>
        <mxCell id="uXOJ_GGudiLRuNJcndU_-79" value="Input&lt;div&gt;priceRange&lt;/div&gt;" style="shape=parallelogram;html=1;strokeWidth=2;perimeter=parallelogramPerimeter;whiteSpace=wrap;rounded=1;arcSize=12;size=0.23;" vertex="1" parent="uXOJ_GGudiLRuNJcndU_-457">
          <mxGeometry x="260" y="394" width="100" height="60" as="geometry" />
        </mxCell>
        <mxCell id="uXOJ_GGudiLRuNJcndU_-80" style="edgeStyle=orthogonalEdgeStyle;rounded=0;orthogonalLoop=1;jettySize=auto;html=1;" edge="1" parent="uXOJ_GGudiLRuNJcndU_-457" source="uXOJ_GGudiLRuNJcndU_-82" target="uXOJ_GGudiLRuNJcndU_-85">
          <mxGeometry relative="1" as="geometry" />
        </mxCell>
        <mxCell id="uXOJ_GGudiLRuNJcndU_-81" value="true" style="edgeLabel;html=1;align=center;verticalAlign=middle;resizable=0;points=[];" vertex="1" connectable="0" parent="uXOJ_GGudiLRuNJcndU_-80">
          <mxGeometry x="-0.4" relative="1" as="geometry">
            <mxPoint as="offset" />
          </mxGeometry>
        </mxCell>
        <mxCell id="uXOJ_GGudiLRuNJcndU_-82" value="&lt;div&gt;priceRange format is TRUE&lt;/div&gt;" style="strokeWidth=2;html=1;shape=mxgraph.flowchart.decision;whiteSpace=wrap;" vertex="1" parent="uXOJ_GGudiLRuNJcndU_-457">
          <mxGeometry x="28" y="490" width="100" height="100" as="geometry" />
        </mxCell>
        <mxCell id="uXOJ_GGudiLRuNJcndU_-83" style="edgeStyle=orthogonalEdgeStyle;rounded=0;orthogonalLoop=1;jettySize=auto;html=1;entryX=0.5;entryY=1;entryDx=0;entryDy=0;" edge="1" parent="uXOJ_GGudiLRuNJcndU_-457" source="uXOJ_GGudiLRuNJcndU_-85" target="uXOJ_GGudiLRuNJcndU_-79">
          <mxGeometry relative="1" as="geometry">
            <Array as="points">
              <mxPoint x="220" y="480" />
              <mxPoint x="310" y="480" />
            </Array>
          </mxGeometry>
        </mxCell>
        <mxCell id="uXOJ_GGudiLRuNJcndU_-84" value="false" style="edgeLabel;html=1;align=center;verticalAlign=middle;resizable=0;points=[];" vertex="1" connectable="0" parent="uXOJ_GGudiLRuNJcndU_-83">
          <mxGeometry x="0.6804" relative="1" as="geometry">
            <mxPoint y="6" as="offset" />
          </mxGeometry>
        </mxCell>
        <mxCell id="uXOJ_GGudiLRuNJcndU_-85" value="Minimum&lt;div&gt;is lower than Maximum&lt;/div&gt;" style="strokeWidth=2;html=1;shape=mxgraph.flowchart.decision;whiteSpace=wrap;" vertex="1" parent="uXOJ_GGudiLRuNJcndU_-457">
          <mxGeometry x="170" y="490" width="100" height="100" as="geometry" />
        </mxCell>
        <mxCell id="uXOJ_GGudiLRuNJcndU_-86" style="edgeStyle=orthogonalEdgeStyle;rounded=0;orthogonalLoop=1;jettySize=auto;html=1;entryX=0;entryY=0.5;entryDx=0;entryDy=0;" edge="1" parent="uXOJ_GGudiLRuNJcndU_-457" source="uXOJ_GGudiLRuNJcndU_-88" target="uXOJ_GGudiLRuNJcndU_-92">
          <mxGeometry relative="1" as="geometry">
            <Array as="points" />
            <mxPoint x="485" y="540" as="targetPoint" />
          </mxGeometry>
        </mxCell>
        <mxCell id="uXOJ_GGudiLRuNJcndU_-87" value="true" style="edgeLabel;html=1;align=center;verticalAlign=middle;resizable=0;points=[];" vertex="1" connectable="0" parent="uXOJ_GGudiLRuNJcndU_-86">
          <mxGeometry x="-0.8667" relative="1" as="geometry">
            <mxPoint x="15" as="offset" />
          </mxGeometry>
        </mxCell>
        <mxCell id="uXOJ_GGudiLRuNJcndU_-88" value="Input only contains number" style="strokeWidth=2;html=1;shape=mxgraph.flowchart.decision;whiteSpace=wrap;" vertex="1" parent="uXOJ_GGudiLRuNJcndU_-457">
          <mxGeometry x="315" y="490" width="100" height="100" as="geometry" />
        </mxCell>
        <mxCell id="uXOJ_GGudiLRuNJcndU_-89" style="edgeStyle=orthogonalEdgeStyle;rounded=0;orthogonalLoop=1;jettySize=auto;html=1;exitX=1;exitY=0.75;exitDx=0;exitDy=0;entryX=0;entryY=0;entryDx=0;entryDy=0;" edge="1" parent="uXOJ_GGudiLRuNJcndU_-457" source="uXOJ_GGudiLRuNJcndU_-90" target="uXOJ_GGudiLRuNJcndU_-79">
          <mxGeometry relative="1" as="geometry" />
        </mxCell>
        <mxCell id="uXOJ_GGudiLRuNJcndU_-90" value="filteredList =&amp;nbsp; access carDictionary with engineCapacity" style="rounded=1;whiteSpace=wrap;html=1;absoluteArcSize=1;arcSize=14;strokeWidth=2;" vertex="1" parent="uXOJ_GGudiLRuNJcndU_-457">
          <mxGeometry x="30" y="360" width="100" height="60" as="geometry" />
        </mxCell>
        <mxCell id="uXOJ_GGudiLRuNJcndU_-91" style="edgeStyle=orthogonalEdgeStyle;rounded=0;orthogonalLoop=1;jettySize=auto;html=1;" edge="1" parent="uXOJ_GGudiLRuNJcndU_-457" source="uXOJ_GGudiLRuNJcndU_-92" target="uXOJ_GGudiLRuNJcndU_-94">
          <mxGeometry relative="1" as="geometry" />
        </mxCell>
        <mxCell id="uXOJ_GGudiLRuNJcndU_-92" value="Input&lt;div&gt;totalSeats&lt;/div&gt;" style="shape=parallelogram;html=1;strokeWidth=2;perimeter=parallelogramPerimeter;whiteSpace=wrap;rounded=1;arcSize=12;size=0.23;" vertex="1" parent="uXOJ_GGudiLRuNJcndU_-457">
          <mxGeometry x="485" y="510" width="100" height="60" as="geometry" />
        </mxCell>
        <mxCell id="uXOJ_GGudiLRuNJcndU_-93" style="edgeStyle=orthogonalEdgeStyle;rounded=0;orthogonalLoop=1;jettySize=auto;html=1;entryX=1;entryY=0.5;entryDx=0;entryDy=0;entryPerimeter=0;" edge="1" parent="uXOJ_GGudiLRuNJcndU_-457" source="uXOJ_GGudiLRuNJcndU_-94" target="uXOJ_GGudiLRuNJcndU_-127">
          <mxGeometry relative="1" as="geometry">
            <mxPoint x="415" y="640" as="targetPoint" />
          </mxGeometry>
        </mxCell>
        <mxCell id="uXOJ_GGudiLRuNJcndU_-94" value="update filteredList based on priceRange, totalSeats" style="rounded=1;whiteSpace=wrap;html=1;absoluteArcSize=1;arcSize=14;strokeWidth=2;" vertex="1" parent="uXOJ_GGudiLRuNJcndU_-457">
          <mxGeometry x="485" y="620" width="100" height="60" as="geometry" />
        </mxCell>
        <mxCell id="uXOJ_GGudiLRuNJcndU_-95" style="edgeStyle=orthogonalEdgeStyle;rounded=0;orthogonalLoop=1;jettySize=auto;html=1;" edge="1" parent="uXOJ_GGudiLRuNJcndU_-457" source="uXOJ_GGudiLRuNJcndU_-96" target="uXOJ_GGudiLRuNJcndU_-101">
          <mxGeometry relative="1" as="geometry" />
        </mxCell>
        <mxCell id="uXOJ_GGudiLRuNJcndU_-96" value="Input carId" style="shape=parallelogram;html=1;strokeWidth=2;perimeter=parallelogramPerimeter;whiteSpace=wrap;rounded=1;arcSize=12;size=0.23;" vertex="1" parent="uXOJ_GGudiLRuNJcndU_-457">
          <mxGeometry x="160" y="970" width="100" height="60" as="geometry" />
        </mxCell>
        <mxCell id="uXOJ_GGudiLRuNJcndU_-97" style="edgeStyle=orthogonalEdgeStyle;rounded=0;orthogonalLoop=1;jettySize=auto;html=1;entryX=1;entryY=0.25;entryDx=0;entryDy=0;exitX=0.15;exitY=0.369;exitDx=0;exitDy=0;exitPerimeter=0;" edge="1" parent="uXOJ_GGudiLRuNJcndU_-457" source="uXOJ_GGudiLRuNJcndU_-101" target="uXOJ_GGudiLRuNJcndU_-96">
          <mxGeometry relative="1" as="geometry">
            <Array as="points" />
          </mxGeometry>
        </mxCell>
        <mxCell id="uXOJ_GGudiLRuNJcndU_-98" value="false" style="edgeLabel;html=1;align=center;verticalAlign=middle;resizable=0;points=[];" vertex="1" connectable="0" parent="uXOJ_GGudiLRuNJcndU_-97">
          <mxGeometry x="0.0141" y="-2" relative="1" as="geometry">
            <mxPoint as="offset" />
          </mxGeometry>
        </mxCell>
        <mxCell id="uXOJ_GGudiLRuNJcndU_-99" style="edgeStyle=orthogonalEdgeStyle;rounded=0;orthogonalLoop=1;jettySize=auto;html=1;entryX=0;entryY=0.5;entryDx=0;entryDy=0;" edge="1" parent="uXOJ_GGudiLRuNJcndU_-457" source="uXOJ_GGudiLRuNJcndU_-101" target="uXOJ_GGudiLRuNJcndU_-103">
          <mxGeometry relative="1" as="geometry" />
        </mxCell>
        <mxCell id="uXOJ_GGudiLRuNJcndU_-100" value="true" style="edgeLabel;html=1;align=center;verticalAlign=middle;resizable=0;points=[];" vertex="1" connectable="0" parent="uXOJ_GGudiLRuNJcndU_-99">
          <mxGeometry x="-0.3239" y="-3" relative="1" as="geometry">
            <mxPoint as="offset" />
          </mxGeometry>
        </mxCell>
        <mxCell id="uXOJ_GGudiLRuNJcndU_-101" value="carId exist in filteredCars" style="strokeWidth=2;html=1;shape=mxgraph.flowchart.decision;whiteSpace=wrap;" vertex="1" parent="uXOJ_GGudiLRuNJcndU_-457">
          <mxGeometry x="320" y="950" width="100" height="100" as="geometry" />
        </mxCell>
        <mxCell id="uXOJ_GGudiLRuNJcndU_-102" style="edgeStyle=orthogonalEdgeStyle;rounded=0;orthogonalLoop=1;jettySize=auto;html=1;" edge="1" parent="uXOJ_GGudiLRuNJcndU_-457" source="uXOJ_GGudiLRuNJcndU_-103" target="uXOJ_GGudiLRuNJcndU_-105">
          <mxGeometry relative="1" as="geometry" />
        </mxCell>
        <mxCell id="uXOJ_GGudiLRuNJcndU_-103" value="input rentalDuration" style="shape=parallelogram;html=1;strokeWidth=2;perimeter=parallelogramPerimeter;whiteSpace=wrap;rounded=1;arcSize=12;size=0.23;" vertex="1" parent="uXOJ_GGudiLRuNJcndU_-457">
          <mxGeometry x="485" y="970" width="100" height="60" as="geometry" />
        </mxCell>
        <mxCell id="uXOJ_GGudiLRuNJcndU_-104" style="edgeStyle=orthogonalEdgeStyle;rounded=0;orthogonalLoop=1;jettySize=auto;html=1;" edge="1" parent="uXOJ_GGudiLRuNJcndU_-457" source="uXOJ_GGudiLRuNJcndU_-105" target="uXOJ_GGudiLRuNJcndU_-106">
          <mxGeometry relative="1" as="geometry" />
        </mxCell>
        <mxCell id="uXOJ_GGudiLRuNJcndU_-105" value="display&lt;div&gt;totalPayment&lt;/div&gt;" style="rounded=1;whiteSpace=wrap;html=1;absoluteArcSize=1;arcSize=14;strokeWidth=2;" vertex="1" parent="uXOJ_GGudiLRuNJcndU_-457">
          <mxGeometry x="485" y="865" width="100" height="60" as="geometry" />
        </mxCell>
        <mxCell id="uXOJ_GGudiLRuNJcndU_-106" value="update carDictionary availability to False for carId" style="rounded=1;whiteSpace=wrap;html=1;absoluteArcSize=1;arcSize=14;strokeWidth=2;" vertex="1" parent="uXOJ_GGudiLRuNJcndU_-457">
          <mxGeometry x="315" y="864" width="100" height="60" as="geometry" />
        </mxCell>
        <mxCell id="uXOJ_GGudiLRuNJcndU_-107" value="Z" style="strokeWidth=2;html=1;shape=mxgraph.flowchart.start_2;whiteSpace=wrap;" vertex="1" parent="uXOJ_GGudiLRuNJcndU_-457">
          <mxGeometry x="335" y="745" width="60" height="60" as="geometry" />
        </mxCell>
        <mxCell id="uXOJ_GGudiLRuNJcndU_-108" style="edgeStyle=orthogonalEdgeStyle;rounded=0;orthogonalLoop=1;jettySize=auto;html=1;entryX=0;entryY=0.5;entryDx=0;entryDy=0;entryPerimeter=0;" edge="1" parent="uXOJ_GGudiLRuNJcndU_-457" source="uXOJ_GGudiLRuNJcndU_-85" target="uXOJ_GGudiLRuNJcndU_-88">
          <mxGeometry relative="1" as="geometry" />
        </mxCell>
        <mxCell id="uXOJ_GGudiLRuNJcndU_-109" value="true" style="edgeLabel;html=1;align=center;verticalAlign=middle;resizable=0;points=[];" vertex="1" connectable="0" parent="uXOJ_GGudiLRuNJcndU_-108">
          <mxGeometry x="0.2" y="-3" relative="1" as="geometry">
            <mxPoint x="-9" y="-3" as="offset" />
          </mxGeometry>
        </mxCell>
        <mxCell id="uXOJ_GGudiLRuNJcndU_-110" style="edgeStyle=orthogonalEdgeStyle;rounded=0;orthogonalLoop=1;jettySize=auto;html=1;" edge="1" parent="uXOJ_GGudiLRuNJcndU_-457" source="uXOJ_GGudiLRuNJcndU_-113" target="uXOJ_GGudiLRuNJcndU_-116">
          <mxGeometry relative="1" as="geometry" />
        </mxCell>
        <mxCell id="uXOJ_GGudiLRuNJcndU_-111" value="false" style="edgeLabel;html=1;align=center;verticalAlign=middle;resizable=0;points=[];" vertex="1" connectable="0" parent="uXOJ_GGudiLRuNJcndU_-110">
          <mxGeometry x="-0.225" y="-1" relative="1" as="geometry">
            <mxPoint as="offset" />
          </mxGeometry>
        </mxCell>
        <mxCell id="uXOJ_GGudiLRuNJcndU_-112" value="true" style="edgeLabel;html=1;align=center;verticalAlign=middle;resizable=0;points=[];" vertex="1" connectable="0" parent="uXOJ_GGudiLRuNJcndU_-457">
          <mxGeometry x="78" y="336" as="geometry" />
        </mxCell>
        <mxCell id="uXOJ_GGudiLRuNJcndU_-113" value="&lt;div&gt;engineCapacity == 1000&lt;/div&gt;" style="strokeWidth=2;html=1;shape=mxgraph.flowchart.decision;whiteSpace=wrap;" vertex="1" parent="uXOJ_GGudiLRuNJcndU_-457">
          <mxGeometry x="30" y="220" width="100" height="100" as="geometry" />
        </mxCell>
        <mxCell id="uXOJ_GGudiLRuNJcndU_-114" style="edgeStyle=orthogonalEdgeStyle;rounded=0;orthogonalLoop=1;jettySize=auto;html=1;" edge="1" parent="uXOJ_GGudiLRuNJcndU_-457" source="uXOJ_GGudiLRuNJcndU_-116" target="uXOJ_GGudiLRuNJcndU_-117">
          <mxGeometry relative="1" as="geometry" />
        </mxCell>
        <mxCell id="uXOJ_GGudiLRuNJcndU_-115" value="false" style="edgeLabel;html=1;align=center;verticalAlign=middle;resizable=0;points=[];" vertex="1" connectable="0" parent="uXOJ_GGudiLRuNJcndU_-114">
          <mxGeometry x="0.225" relative="1" as="geometry">
            <mxPoint as="offset" />
          </mxGeometry>
        </mxCell>
        <mxCell id="uXOJ_GGudiLRuNJcndU_-116" value="&lt;div&gt;engineCapacity == 1500&lt;/div&gt;" style="strokeWidth=2;html=1;shape=mxgraph.flowchart.decision;whiteSpace=wrap;" vertex="1" parent="uXOJ_GGudiLRuNJcndU_-457">
          <mxGeometry x="185" y="221" width="100" height="100" as="geometry" />
        </mxCell>
        <mxCell id="uXOJ_GGudiLRuNJcndU_-117" value="&lt;div&gt;engineCapacity == 2000&lt;/div&gt;" style="strokeWidth=2;html=1;shape=mxgraph.flowchart.decision;whiteSpace=wrap;" vertex="1" parent="uXOJ_GGudiLRuNJcndU_-457">
          <mxGeometry x="335" y="221" width="100" height="100" as="geometry" />
        </mxCell>
        <mxCell id="uXOJ_GGudiLRuNJcndU_-118" style="edgeStyle=orthogonalEdgeStyle;rounded=0;orthogonalLoop=1;jettySize=auto;html=1;exitX=0.5;exitY=1;exitDx=0;exitDy=0;exitPerimeter=0;entryX=0.5;entryY=0;entryDx=0;entryDy=0;" edge="1" parent="uXOJ_GGudiLRuNJcndU_-457" source="uXOJ_GGudiLRuNJcndU_-120" target="uXOJ_GGudiLRuNJcndU_-123">
          <mxGeometry relative="1" as="geometry" />
        </mxCell>
        <mxCell id="uXOJ_GGudiLRuNJcndU_-119" value="true" style="edgeLabel;html=1;align=center;verticalAlign=middle;resizable=0;points=[];" vertex="1" connectable="0" parent="uXOJ_GGudiLRuNJcndU_-118">
          <mxGeometry x="-0.0285" y="-1" relative="1" as="geometry">
            <mxPoint as="offset" />
          </mxGeometry>
        </mxCell>
        <mxCell id="uXOJ_GGudiLRuNJcndU_-120" value="&lt;div&gt;engineCapacity == &quot;any&quot;&lt;/div&gt;" style="strokeWidth=2;html=1;shape=mxgraph.flowchart.decision;whiteSpace=wrap;" vertex="1" parent="uXOJ_GGudiLRuNJcndU_-457">
          <mxGeometry x="485" y="221" width="100" height="100" as="geometry" />
        </mxCell>
        <mxCell id="uXOJ_GGudiLRuNJcndU_-121" style="edgeStyle=orthogonalEdgeStyle;rounded=0;orthogonalLoop=1;jettySize=auto;html=1;entryX=0;entryY=0.5;entryDx=0;entryDy=0;entryPerimeter=0;" edge="1" parent="uXOJ_GGudiLRuNJcndU_-457" source="uXOJ_GGudiLRuNJcndU_-117" target="uXOJ_GGudiLRuNJcndU_-120">
          <mxGeometry relative="1" as="geometry" />
        </mxCell>
        <mxCell id="uXOJ_GGudiLRuNJcndU_-122" value="false" style="edgeLabel;html=1;align=center;verticalAlign=middle;resizable=0;points=[];" vertex="1" connectable="0" parent="uXOJ_GGudiLRuNJcndU_-121">
          <mxGeometry x="-0.3922" relative="1" as="geometry">
            <mxPoint as="offset" />
          </mxGeometry>
        </mxCell>
        <mxCell id="uXOJ_GGudiLRuNJcndU_-123" value="filteredList = extend with all engineCapacity from carDictionary" style="rounded=1;whiteSpace=wrap;html=1;absoluteArcSize=1;arcSize=14;strokeWidth=2;" vertex="1" parent="uXOJ_GGudiLRuNJcndU_-457">
          <mxGeometry x="485" y="360" width="100" height="60" as="geometry" />
        </mxCell>
        <mxCell id="uXOJ_GGudiLRuNJcndU_-124" style="edgeStyle=orthogonalEdgeStyle;rounded=0;orthogonalLoop=1;jettySize=auto;html=1;exitX=0;exitY=0.75;exitDx=0;exitDy=0;entryX=0.969;entryY=0.18;entryDx=0;entryDy=0;entryPerimeter=0;" edge="1" parent="uXOJ_GGudiLRuNJcndU_-457" source="uXOJ_GGudiLRuNJcndU_-123" target="uXOJ_GGudiLRuNJcndU_-79">
          <mxGeometry relative="1" as="geometry" />
        </mxCell>
        <mxCell id="uXOJ_GGudiLRuNJcndU_-125" style="edgeStyle=orthogonalEdgeStyle;rounded=0;orthogonalLoop=1;jettySize=auto;html=1;entryX=0.5;entryY=0;entryDx=0;entryDy=0;entryPerimeter=0;" edge="1" parent="uXOJ_GGudiLRuNJcndU_-457" source="uXOJ_GGudiLRuNJcndU_-79" target="uXOJ_GGudiLRuNJcndU_-82">
          <mxGeometry relative="1" as="geometry">
            <Array as="points">
              <mxPoint x="78" y="440" />
            </Array>
          </mxGeometry>
        </mxCell>
        <mxCell id="uXOJ_GGudiLRuNJcndU_-126" style="edgeStyle=orthogonalEdgeStyle;rounded=0;orthogonalLoop=1;jettySize=auto;html=1;entryX=1;entryY=0.5;entryDx=0;entryDy=0;" edge="1" parent="uXOJ_GGudiLRuNJcndU_-457" source="uXOJ_GGudiLRuNJcndU_-127" target="uXOJ_GGudiLRuNJcndU_-130">
          <mxGeometry relative="1" as="geometry" />
        </mxCell>
        <mxCell id="uXOJ_GGudiLRuNJcndU_-127" value="filteredList&lt;div&gt;length &amp;gt; 0&lt;/div&gt;" style="strokeWidth=2;html=1;shape=mxgraph.flowchart.decision;whiteSpace=wrap;" vertex="1" parent="uXOJ_GGudiLRuNJcndU_-457">
          <mxGeometry x="315" y="600" width="100" height="100" as="geometry" />
        </mxCell>
        <mxCell id="uXOJ_GGudiLRuNJcndU_-128" style="edgeStyle=orthogonalEdgeStyle;rounded=0;orthogonalLoop=1;jettySize=auto;html=1;entryX=0.5;entryY=0;entryDx=0;entryDy=0;" edge="1" parent="uXOJ_GGudiLRuNJcndU_-457" source="uXOJ_GGudiLRuNJcndU_-129" target="uXOJ_GGudiLRuNJcndU_-96">
          <mxGeometry relative="1" as="geometry" />
        </mxCell>
        <mxCell id="uXOJ_GGudiLRuNJcndU_-129" value="Display filteredCars" style="rounded=1;whiteSpace=wrap;html=1;absoluteArcSize=1;arcSize=14;strokeWidth=2;" vertex="1" parent="uXOJ_GGudiLRuNJcndU_-457">
          <mxGeometry x="160.00000000000006" y="864" width="100" height="60" as="geometry" />
        </mxCell>
        <mxCell id="uXOJ_GGudiLRuNJcndU_-130" value="Input&lt;div&gt;isSort&lt;/div&gt;" style="shape=parallelogram;html=1;strokeWidth=2;perimeter=parallelogramPerimeter;whiteSpace=wrap;rounded=1;arcSize=12;size=0.23;" vertex="1" parent="uXOJ_GGudiLRuNJcndU_-457">
          <mxGeometry x="160.00000000000006" y="620" width="100" height="60" as="geometry" />
        </mxCell>
        <mxCell id="uXOJ_GGudiLRuNJcndU_-131" style="edgeStyle=orthogonalEdgeStyle;rounded=0;orthogonalLoop=1;jettySize=auto;html=1;entryX=0.5;entryY=0;entryDx=0;entryDy=0;" edge="1" parent="uXOJ_GGudiLRuNJcndU_-457" source="uXOJ_GGudiLRuNJcndU_-133" target="uXOJ_GGudiLRuNJcndU_-129">
          <mxGeometry relative="1" as="geometry" />
        </mxCell>
        <mxCell id="uXOJ_GGudiLRuNJcndU_-132" value="true" style="edgeLabel;html=1;align=center;verticalAlign=middle;resizable=0;points=[];" vertex="1" connectable="0" parent="uXOJ_GGudiLRuNJcndU_-131">
          <mxGeometry x="-0.3295" y="-2" relative="1" as="geometry">
            <mxPoint as="offset" />
          </mxGeometry>
        </mxCell>
        <mxCell id="uXOJ_GGudiLRuNJcndU_-133" value="isSort ==&lt;div&gt;&quot;no&quot;&lt;/div&gt;" style="strokeWidth=2;html=1;shape=mxgraph.flowchart.decision;whiteSpace=wrap;" vertex="1" parent="uXOJ_GGudiLRuNJcndU_-457">
          <mxGeometry x="160.00000000000006" y="720" width="100" height="100" as="geometry" />
        </mxCell>
        <mxCell id="uXOJ_GGudiLRuNJcndU_-134" style="edgeStyle=orthogonalEdgeStyle;rounded=0;orthogonalLoop=1;jettySize=auto;html=1;entryX=0.5;entryY=0;entryDx=0;entryDy=0;entryPerimeter=0;" edge="1" parent="uXOJ_GGudiLRuNJcndU_-457" source="uXOJ_GGudiLRuNJcndU_-130" target="uXOJ_GGudiLRuNJcndU_-133">
          <mxGeometry relative="1" as="geometry" />
        </mxCell>
        <mxCell id="uXOJ_GGudiLRuNJcndU_-135" style="edgeStyle=orthogonalEdgeStyle;rounded=0;orthogonalLoop=1;jettySize=auto;html=1;entryX=0.5;entryY=0;entryDx=0;entryDy=0;" edge="1" parent="uXOJ_GGudiLRuNJcndU_-457" source="uXOJ_GGudiLRuNJcndU_-139" target="uXOJ_GGudiLRuNJcndU_-143">
          <mxGeometry relative="1" as="geometry" />
        </mxCell>
        <mxCell id="uXOJ_GGudiLRuNJcndU_-136" value="true" style="edgeLabel;html=1;align=center;verticalAlign=middle;resizable=0;points=[];" vertex="1" connectable="0" parent="uXOJ_GGudiLRuNJcndU_-135">
          <mxGeometry x="-0.1545" y="-1" relative="1" as="geometry">
            <mxPoint as="offset" />
          </mxGeometry>
        </mxCell>
        <mxCell id="uXOJ_GGudiLRuNJcndU_-137" style="edgeStyle=orthogonalEdgeStyle;rounded=0;orthogonalLoop=1;jettySize=auto;html=1;entryX=0;entryY=0.5;entryDx=0;entryDy=0;exitX=0.5;exitY=0;exitDx=0;exitDy=0;exitPerimeter=0;" edge="1" parent="uXOJ_GGudiLRuNJcndU_-457" source="uXOJ_GGudiLRuNJcndU_-139" target="uXOJ_GGudiLRuNJcndU_-130">
          <mxGeometry relative="1" as="geometry">
            <Array as="points">
              <mxPoint x="60" y="650" />
            </Array>
          </mxGeometry>
        </mxCell>
        <mxCell id="uXOJ_GGudiLRuNJcndU_-138" value="false" style="edgeLabel;html=1;align=center;verticalAlign=middle;resizable=0;points=[];" vertex="1" connectable="0" parent="uXOJ_GGudiLRuNJcndU_-137">
          <mxGeometry x="0.1309" y="-1" relative="1" as="geometry">
            <mxPoint as="offset" />
          </mxGeometry>
        </mxCell>
        <mxCell id="uXOJ_GGudiLRuNJcndU_-139" value="isSort ==&lt;div&gt;&quot;yes&quot;&lt;/div&gt;" style="strokeWidth=2;html=1;shape=mxgraph.flowchart.decision;whiteSpace=wrap;" vertex="1" parent="uXOJ_GGudiLRuNJcndU_-457">
          <mxGeometry x="10.000000000000057" y="720" width="100" height="100" as="geometry" />
        </mxCell>
        <mxCell id="uXOJ_GGudiLRuNJcndU_-140" style="edgeStyle=orthogonalEdgeStyle;rounded=0;orthogonalLoop=1;jettySize=auto;html=1;entryX=1;entryY=0.5;entryDx=0;entryDy=0;entryPerimeter=0;" edge="1" parent="uXOJ_GGudiLRuNJcndU_-457" source="uXOJ_GGudiLRuNJcndU_-133" target="uXOJ_GGudiLRuNJcndU_-139">
          <mxGeometry relative="1" as="geometry" />
        </mxCell>
        <mxCell id="uXOJ_GGudiLRuNJcndU_-141" value="false" style="edgeLabel;html=1;align=center;verticalAlign=middle;resizable=0;points=[];" vertex="1" connectable="0" parent="uXOJ_GGudiLRuNJcndU_-140">
          <mxGeometry x="0.2988" y="-2" relative="1" as="geometry">
            <mxPoint x="12" y="2" as="offset" />
          </mxGeometry>
        </mxCell>
        <mxCell id="uXOJ_GGudiLRuNJcndU_-142" style="edgeStyle=orthogonalEdgeStyle;rounded=0;orthogonalLoop=1;jettySize=auto;html=1;entryX=0.5;entryY=0;entryDx=0;entryDy=0;" edge="1" parent="uXOJ_GGudiLRuNJcndU_-457" source="uXOJ_GGudiLRuNJcndU_-143" target="uXOJ_GGudiLRuNJcndU_-144">
          <mxGeometry relative="1" as="geometry" />
        </mxCell>
        <mxCell id="uXOJ_GGudiLRuNJcndU_-143" value="Display sortByKey" style="rounded=1;whiteSpace=wrap;html=1;absoluteArcSize=1;arcSize=14;strokeWidth=2;" vertex="1" parent="uXOJ_GGudiLRuNJcndU_-457">
          <mxGeometry x="10.000000000000057" y="864" width="100" height="60" as="geometry" />
        </mxCell>
        <mxCell id="uXOJ_GGudiLRuNJcndU_-144" value="Input&lt;div&gt;sortByKey&lt;br&gt;&lt;/div&gt;" style="shape=parallelogram;html=1;strokeWidth=2;perimeter=parallelogramPerimeter;whiteSpace=wrap;rounded=1;arcSize=12;size=0.23;" vertex="1" parent="uXOJ_GGudiLRuNJcndU_-457">
          <mxGeometry x="10.000000000000057" y="964" width="100" height="60" as="geometry" />
        </mxCell>
        <mxCell id="uXOJ_GGudiLRuNJcndU_-145" style="edgeStyle=orthogonalEdgeStyle;rounded=0;orthogonalLoop=1;jettySize=auto;html=1;entryX=0.5;entryY=1;entryDx=0;entryDy=0;" edge="1" parent="uXOJ_GGudiLRuNJcndU_-457" source="uXOJ_GGudiLRuNJcndU_-146" target="uXOJ_GGudiLRuNJcndU_-158">
          <mxGeometry relative="1" as="geometry">
            <Array as="points">
              <mxPoint x="510" y="1170" />
              <mxPoint x="210" y="1170" />
            </Array>
          </mxGeometry>
        </mxCell>
        <mxCell id="uXOJ_GGudiLRuNJcndU_-146" value="sortByKey&lt;br&gt;&lt;div&gt;== totalpassenger&lt;/div&gt;" style="strokeWidth=2;html=1;shape=mxgraph.flowchart.decision;whiteSpace=wrap;" vertex="1" parent="uXOJ_GGudiLRuNJcndU_-457">
          <mxGeometry x="460.00000000000006" y="1186.5" width="100" height="100" as="geometry" />
        </mxCell>
        <mxCell id="uXOJ_GGudiLRuNJcndU_-147" style="edgeStyle=orthogonalEdgeStyle;rounded=0;orthogonalLoop=1;jettySize=auto;html=1;entryX=0.5;entryY=1;entryDx=0;entryDy=0;exitX=0.5;exitY=0;exitDx=0;exitDy=0;exitPerimeter=0;" edge="1" parent="uXOJ_GGudiLRuNJcndU_-457" source="uXOJ_GGudiLRuNJcndU_-148" target="uXOJ_GGudiLRuNJcndU_-158">
          <mxGeometry relative="1" as="geometry">
            <Array as="points">
              <mxPoint x="360" y="1170" />
              <mxPoint x="210" y="1170" />
            </Array>
          </mxGeometry>
        </mxCell>
        <mxCell id="uXOJ_GGudiLRuNJcndU_-148" value="sortByKey&lt;br&gt;== rentalprice" style="strokeWidth=2;html=1;shape=mxgraph.flowchart.decision;whiteSpace=wrap;" vertex="1" parent="uXOJ_GGudiLRuNJcndU_-457">
          <mxGeometry x="310.00000000000006" y="1186.5" width="100" height="100" as="geometry" />
        </mxCell>
        <mxCell id="uXOJ_GGudiLRuNJcndU_-149" style="edgeStyle=orthogonalEdgeStyle;rounded=0;orthogonalLoop=1;jettySize=auto;html=1;entryX=0.5;entryY=1;entryDx=0;entryDy=0;" edge="1" parent="uXOJ_GGudiLRuNJcndU_-457" source="uXOJ_GGudiLRuNJcndU_-151" target="uXOJ_GGudiLRuNJcndU_-158">
          <mxGeometry relative="1" as="geometry" />
        </mxCell>
        <mxCell id="uXOJ_GGudiLRuNJcndU_-150" value="true" style="edgeLabel;html=1;align=center;verticalAlign=middle;resizable=0;points=[];" vertex="1" connectable="0" parent="uXOJ_GGudiLRuNJcndU_-149">
          <mxGeometry x="0.2819" y="2" relative="1" as="geometry">
            <mxPoint as="offset" />
          </mxGeometry>
        </mxCell>
        <mxCell id="uXOJ_GGudiLRuNJcndU_-151" value="&lt;div&gt;sortByKey&lt;/div&gt;&lt;div&gt;== carbrand&lt;/div&gt;" style="strokeWidth=2;html=1;shape=mxgraph.flowchart.decision;whiteSpace=wrap;" vertex="1" parent="uXOJ_GGudiLRuNJcndU_-457">
          <mxGeometry x="160.00000000000006" y="1186.5" width="100" height="100" as="geometry" />
        </mxCell>
        <mxCell id="uXOJ_GGudiLRuNJcndU_-152" value="&lt;div&gt;sortByKey&lt;/div&gt;&lt;div&gt;&lt;span style=&quot;background-color: initial;&quot;&gt;== carname&lt;/span&gt;&lt;/div&gt;" style="strokeWidth=2;html=1;shape=mxgraph.flowchart.decision;whiteSpace=wrap;" vertex="1" parent="uXOJ_GGudiLRuNJcndU_-457">
          <mxGeometry x="10.000000000000057" y="1186.5" width="100" height="100" as="geometry" />
        </mxCell>
        <mxCell id="uXOJ_GGudiLRuNJcndU_-153" style="edgeStyle=orthogonalEdgeStyle;rounded=0;orthogonalLoop=1;jettySize=auto;html=1;entryX=0;entryY=0.5;entryDx=0;entryDy=0;" edge="1" parent="uXOJ_GGudiLRuNJcndU_-457" source="uXOJ_GGudiLRuNJcndU_-155" target="uXOJ_GGudiLRuNJcndU_-158">
          <mxGeometry relative="1" as="geometry" />
        </mxCell>
        <mxCell id="uXOJ_GGudiLRuNJcndU_-154" value="true" style="edgeLabel;html=1;align=center;verticalAlign=middle;resizable=0;points=[];" vertex="1" connectable="0" parent="uXOJ_GGudiLRuNJcndU_-153">
          <mxGeometry x="-0.2214" y="1" relative="1" as="geometry">
            <mxPoint as="offset" />
          </mxGeometry>
        </mxCell>
        <mxCell id="uXOJ_GGudiLRuNJcndU_-155" value="&lt;div&gt;sortByKey&lt;/div&gt;&lt;div&gt;== carid&lt;/div&gt;" style="strokeWidth=2;html=1;shape=mxgraph.flowchart.decision;whiteSpace=wrap;" vertex="1" parent="uXOJ_GGudiLRuNJcndU_-457">
          <mxGeometry x="10.000000000000057" y="1059" width="100" height="100" as="geometry" />
        </mxCell>
        <mxCell id="uXOJ_GGudiLRuNJcndU_-156" style="edgeStyle=orthogonalEdgeStyle;rounded=0;orthogonalLoop=1;jettySize=auto;html=1;entryX=0.5;entryY=0;entryDx=0;entryDy=0;entryPerimeter=0;" edge="1" parent="uXOJ_GGudiLRuNJcndU_-457" source="uXOJ_GGudiLRuNJcndU_-144" target="uXOJ_GGudiLRuNJcndU_-155">
          <mxGeometry relative="1" as="geometry" />
        </mxCell>
        <mxCell id="uXOJ_GGudiLRuNJcndU_-157" style="edgeStyle=orthogonalEdgeStyle;rounded=0;orthogonalLoop=1;jettySize=auto;html=1;exitX=0.5;exitY=0;exitDx=0;exitDy=0;entryX=0.5;entryY=1;entryDx=0;entryDy=0;" edge="1" parent="uXOJ_GGudiLRuNJcndU_-457" source="uXOJ_GGudiLRuNJcndU_-158" target="uXOJ_GGudiLRuNJcndU_-96">
          <mxGeometry relative="1" as="geometry" />
        </mxCell>
        <mxCell id="uXOJ_GGudiLRuNJcndU_-158" value="Display sortedCar&lt;div&gt;based on sortByKey&lt;/div&gt;" style="rounded=1;whiteSpace=wrap;html=1;absoluteArcSize=1;arcSize=14;strokeWidth=2;" vertex="1" parent="uXOJ_GGudiLRuNJcndU_-457">
          <mxGeometry x="160.00000000000006" y="1079" width="100" height="60" as="geometry" />
        </mxCell>
        <mxCell id="uXOJ_GGudiLRuNJcndU_-159" style="edgeStyle=orthogonalEdgeStyle;rounded=0;orthogonalLoop=1;jettySize=auto;html=1;entryX=0.5;entryY=0;entryDx=0;entryDy=0;entryPerimeter=0;" edge="1" parent="uXOJ_GGudiLRuNJcndU_-457" source="uXOJ_GGudiLRuNJcndU_-155" target="uXOJ_GGudiLRuNJcndU_-152">
          <mxGeometry relative="1" as="geometry" />
        </mxCell>
        <mxCell id="uXOJ_GGudiLRuNJcndU_-160" value="false" style="edgeLabel;html=1;align=center;verticalAlign=middle;resizable=0;points=[];" vertex="1" connectable="0" parent="uXOJ_GGudiLRuNJcndU_-159">
          <mxGeometry x="0.145" y="1" relative="1" as="geometry">
            <mxPoint as="offset" />
          </mxGeometry>
        </mxCell>
        <mxCell id="uXOJ_GGudiLRuNJcndU_-161" style="edgeStyle=orthogonalEdgeStyle;rounded=0;orthogonalLoop=1;jettySize=auto;html=1;exitX=1;exitY=0.5;exitDx=0;exitDy=0;exitPerimeter=0;entryX=0;entryY=0.5;entryDx=0;entryDy=0;entryPerimeter=0;" edge="1" parent="uXOJ_GGudiLRuNJcndU_-457" source="uXOJ_GGudiLRuNJcndU_-152" target="uXOJ_GGudiLRuNJcndU_-151">
          <mxGeometry relative="1" as="geometry" />
        </mxCell>
        <mxCell id="uXOJ_GGudiLRuNJcndU_-162" value="false" style="edgeLabel;html=1;align=center;verticalAlign=middle;resizable=0;points=[];" vertex="1" connectable="0" parent="uXOJ_GGudiLRuNJcndU_-161">
          <mxGeometry x="-0.2815" y="1" relative="1" as="geometry">
            <mxPoint as="offset" />
          </mxGeometry>
        </mxCell>
        <mxCell id="uXOJ_GGudiLRuNJcndU_-163" style="edgeStyle=orthogonalEdgeStyle;rounded=0;orthogonalLoop=1;jettySize=auto;html=1;entryX=0.5;entryY=0;entryDx=0;entryDy=0;entryPerimeter=0;" edge="1" parent="uXOJ_GGudiLRuNJcndU_-457" source="uXOJ_GGudiLRuNJcndU_-127" target="uXOJ_GGudiLRuNJcndU_-107">
          <mxGeometry relative="1" as="geometry" />
        </mxCell>
        <mxCell id="uXOJ_GGudiLRuNJcndU_-164" style="edgeStyle=orthogonalEdgeStyle;rounded=0;orthogonalLoop=1;jettySize=auto;html=1;entryX=0.5;entryY=1;entryDx=0;entryDy=0;entryPerimeter=0;" edge="1" parent="uXOJ_GGudiLRuNJcndU_-457" source="uXOJ_GGudiLRuNJcndU_-106" target="uXOJ_GGudiLRuNJcndU_-107">
          <mxGeometry relative="1" as="geometry" />
        </mxCell>
        <mxCell id="uXOJ_GGudiLRuNJcndU_-165" style="edgeStyle=orthogonalEdgeStyle;rounded=0;orthogonalLoop=1;jettySize=auto;html=1;entryX=0;entryY=0.5;entryDx=0;entryDy=0;entryPerimeter=0;" edge="1" parent="uXOJ_GGudiLRuNJcndU_-457" source="uXOJ_GGudiLRuNJcndU_-151" target="uXOJ_GGudiLRuNJcndU_-148">
          <mxGeometry relative="1" as="geometry" />
        </mxCell>
        <mxCell id="uXOJ_GGudiLRuNJcndU_-166" value="false" style="edgeLabel;html=1;align=center;verticalAlign=middle;resizable=0;points=[];" vertex="1" connectable="0" parent="uXOJ_GGudiLRuNJcndU_-165">
          <mxGeometry x="-0.7083" y="-1" relative="1" as="geometry">
            <mxPoint x="14" y="-1" as="offset" />
          </mxGeometry>
        </mxCell>
        <mxCell id="uXOJ_GGudiLRuNJcndU_-167" style="edgeStyle=orthogonalEdgeStyle;rounded=0;orthogonalLoop=1;jettySize=auto;html=1;entryX=0;entryY=0.5;entryDx=0;entryDy=0;entryPerimeter=0;" edge="1" parent="uXOJ_GGudiLRuNJcndU_-457" source="uXOJ_GGudiLRuNJcndU_-148" target="uXOJ_GGudiLRuNJcndU_-146">
          <mxGeometry relative="1" as="geometry" />
        </mxCell>
        <mxCell id="uXOJ_GGudiLRuNJcndU_-168" value="false" style="edgeLabel;html=1;align=center;verticalAlign=middle;resizable=0;points=[];" vertex="1" connectable="0" parent="uXOJ_GGudiLRuNJcndU_-167">
          <mxGeometry x="-0.7019" y="-1" relative="1" as="geometry">
            <mxPoint x="13" y="-1" as="offset" />
          </mxGeometry>
        </mxCell>
        <mxCell id="uXOJ_GGudiLRuNJcndU_-576" value="" style="group" vertex="1" connectable="0" parent="1">
          <mxGeometry x="-760" y="690" width="360" height="430" as="geometry" />
        </mxCell>
        <mxCell id="uXOJ_GGudiLRuNJcndU_-575" value="" style="rounded=0;whiteSpace=wrap;html=1;" vertex="1" parent="uXOJ_GGudiLRuNJcndU_-576">
          <mxGeometry width="360" height="430" as="geometry" />
        </mxCell>
        <mxCell id="uXOJ_GGudiLRuNJcndU_-462" style="edgeStyle=orthogonalEdgeStyle;rounded=0;orthogonalLoop=1;jettySize=auto;html=1;entryX=0.5;entryY=0;entryDx=0;entryDy=0;" edge="1" parent="uXOJ_GGudiLRuNJcndU_-576" source="uXOJ_GGudiLRuNJcndU_-463">
          <mxGeometry relative="1" as="geometry">
            <mxPoint x="100" y="119.99999999999977" as="targetPoint" />
          </mxGeometry>
        </mxCell>
        <mxCell id="uXOJ_GGudiLRuNJcndU_-463" value="B_B" style="strokeWidth=2;html=1;shape=mxgraph.flowchart.start_2;whiteSpace=wrap;" vertex="1" parent="uXOJ_GGudiLRuNJcndU_-576">
          <mxGeometry x="70" y="10" width="60" height="60" as="geometry" />
        </mxCell>
        <mxCell id="uXOJ_GGudiLRuNJcndU_-464" value="User Menu - Return Car" style="text;html=1;align=right;verticalAlign=middle;whiteSpace=wrap;rounded=0;fontSize=16;fontStyle=1" vertex="1" parent="uXOJ_GGudiLRuNJcndU_-576">
          <mxGeometry x="160" y="10" width="195" height="30" as="geometry" />
        </mxCell>
        <mxCell id="uXOJ_GGudiLRuNJcndU_-465" style="edgeStyle=orthogonalEdgeStyle;rounded=0;orthogonalLoop=1;jettySize=auto;html=1;" edge="1" parent="uXOJ_GGudiLRuNJcndU_-576">
          <mxGeometry relative="1" as="geometry">
            <mxPoint x="100" y="220" as="targetPoint" />
            <mxPoint x="100.00000000000045" y="179.99999999999977" as="sourcePoint" />
          </mxGeometry>
        </mxCell>
        <mxCell id="uXOJ_GGudiLRuNJcndU_-563" value="display carID with availability False" style="rounded=1;whiteSpace=wrap;html=1;absoluteArcSize=1;arcSize=14;strokeWidth=2;" vertex="1" parent="uXOJ_GGudiLRuNJcndU_-576">
          <mxGeometry x="50" y="120" width="100" height="60" as="geometry" />
        </mxCell>
        <mxCell id="uXOJ_GGudiLRuNJcndU_-564" value="Input&lt;div&gt;carID&lt;/div&gt;" style="shape=parallelogram;html=1;strokeWidth=2;perimeter=parallelogramPerimeter;whiteSpace=wrap;rounded=1;arcSize=12;size=0.23;" vertex="1" parent="uXOJ_GGudiLRuNJcndU_-576">
          <mxGeometry x="48" y="220" width="100" height="60" as="geometry" />
        </mxCell>
        <mxCell id="uXOJ_GGudiLRuNJcndU_-568" style="edgeStyle=orthogonalEdgeStyle;rounded=0;orthogonalLoop=1;jettySize=auto;html=1;entryX=0;entryY=0.5;entryDx=0;entryDy=0;" edge="1" parent="uXOJ_GGudiLRuNJcndU_-576" source="uXOJ_GGudiLRuNJcndU_-565" target="uXOJ_GGudiLRuNJcndU_-564">
          <mxGeometry relative="1" as="geometry">
            <mxPoint x="30" y="250" as="targetPoint" />
            <Array as="points">
              <mxPoint x="20" y="370" />
              <mxPoint x="20" y="250" />
            </Array>
          </mxGeometry>
        </mxCell>
        <mxCell id="uXOJ_GGudiLRuNJcndU_-569" value="false" style="edgeLabel;html=1;align=center;verticalAlign=middle;resizable=0;points=[];" vertex="1" connectable="0" parent="uXOJ_GGudiLRuNJcndU_-568">
          <mxGeometry x="-0.1571" y="2" relative="1" as="geometry">
            <mxPoint as="offset" />
          </mxGeometry>
        </mxCell>
        <mxCell id="uXOJ_GGudiLRuNJcndU_-571" style="edgeStyle=orthogonalEdgeStyle;rounded=0;orthogonalLoop=1;jettySize=auto;html=1;entryX=0;entryY=0.5;entryDx=0;entryDy=0;" edge="1" parent="uXOJ_GGudiLRuNJcndU_-576" source="uXOJ_GGudiLRuNJcndU_-565" target="uXOJ_GGudiLRuNJcndU_-570">
          <mxGeometry relative="1" as="geometry" />
        </mxCell>
        <mxCell id="uXOJ_GGudiLRuNJcndU_-572" value="true" style="edgeLabel;html=1;align=center;verticalAlign=middle;resizable=0;points=[];" vertex="1" connectable="0" parent="uXOJ_GGudiLRuNJcndU_-571">
          <mxGeometry x="-0.6699" y="1" relative="1" as="geometry">
            <mxPoint x="5" y="1" as="offset" />
          </mxGeometry>
        </mxCell>
        <mxCell id="uXOJ_GGudiLRuNJcndU_-565" value="&lt;div&gt;carID exist&lt;/div&gt;&lt;div&gt;in the list&lt;/div&gt;" style="strokeWidth=2;html=1;shape=mxgraph.flowchart.decision;whiteSpace=wrap;" vertex="1" parent="uXOJ_GGudiLRuNJcndU_-576">
          <mxGeometry x="48" y="320" width="100" height="100" as="geometry" />
        </mxCell>
        <mxCell id="uXOJ_GGudiLRuNJcndU_-566" style="edgeStyle=orthogonalEdgeStyle;rounded=0;orthogonalLoop=1;jettySize=auto;html=1;entryX=0.5;entryY=0;entryDx=0;entryDy=0;entryPerimeter=0;" edge="1" parent="uXOJ_GGudiLRuNJcndU_-576" source="uXOJ_GGudiLRuNJcndU_-564" target="uXOJ_GGudiLRuNJcndU_-565">
          <mxGeometry relative="1" as="geometry" />
        </mxCell>
        <mxCell id="uXOJ_GGudiLRuNJcndU_-574" style="edgeStyle=orthogonalEdgeStyle;rounded=0;orthogonalLoop=1;jettySize=auto;html=1;" edge="1" parent="uXOJ_GGudiLRuNJcndU_-576" source="uXOJ_GGudiLRuNJcndU_-570" target="uXOJ_GGudiLRuNJcndU_-573">
          <mxGeometry relative="1" as="geometry" />
        </mxCell>
        <mxCell id="uXOJ_GGudiLRuNJcndU_-570" value="update availability to True" style="rounded=1;whiteSpace=wrap;html=1;absoluteArcSize=1;arcSize=14;strokeWidth=2;" vertex="1" parent="uXOJ_GGudiLRuNJcndU_-576">
          <mxGeometry x="190" y="340" width="100" height="60" as="geometry" />
        </mxCell>
        <mxCell id="uXOJ_GGudiLRuNJcndU_-573" value="Z" style="strokeWidth=2;html=1;shape=mxgraph.flowchart.start_2;whiteSpace=wrap;" vertex="1" parent="uXOJ_GGudiLRuNJcndU_-576">
          <mxGeometry x="210" y="220" width="60" height="60" as="geometry" />
        </mxCell>
      </root>
    </mxGraphModel>
  </diagram>
</mxfile>
